<svg xmlns="http://www.w3.org/2000/svg" width="16" height="16" fill="currentColor" class="bi bi-universal-access-circle" viewBox="0 0 16 16">
  <!-- The MIT License (MIT)

  Copyright (c) 2019-2024 The Bootstrap Authors

  Permission is hereby granted, free of charge, to any person obtaining a copy
  of this software and associated documentation files (the "Software"), to deal
  in the Software without restriction, including without limitation the rights
  to use, copy, modify, merge, publish, distribute, sublicense, and/or sell
  copies of the Software, and to permit persons to whom the Software is
  furnished to do so, subject to the following conditions:

  The above copyright notice and this permission notice shall be included in
  all copies or substantial portions of the Software.

  THE SOFTWARE IS PROVIDED "AS IS", WITHOUT WARRANTY OF ANY KIND, EXPRESS OR
  IMPLIED, INCLUDING BUT NOT LIMITED TO THE WARRANTIES OF MERCHANTABILITY,
  FITNESS FOR A PARTICULAR PURPOSE AND NONINFRINGEMENT. IN NO EVENT SHALL THE
  AUTHORS OR COPYRIGHT HOLDERS BE LIABLE FOR ANY CLAIM, DAMAGES OR OTHER
  LIABILITY, WHETHER IN AN ACTION OF CONTRACT, TORT OR OTHERWISE, ARISING FROM,
  OUT OF OR IN CONNECTION WITH THE SOFTWARE OR THE USE OR OTHER DEALINGS IN
  THE SOFTWARE. -->
  <path d="M8 4.143A1.071 1.071 0 1 0 8 2a1.071 1.071 0 0 0 0 2.143m-4.668 1.47 3.24.316v2.5l-.323 4.585A.383.383 0 0 0 7 13.14l.826-4.017c.045-.18.301-.18.346 0L9 13.139a.383.383 0 0 0 .752-.125L9.43 8.43v-2.5l3.239-.316a.38.38 0 0 0-.047-.756H3.379a.38.38 0 0 0-.047.756Z"/>
  <path d="M8 0a8 8 0 1 0 0 16A8 8 0 0 0 8 0M1 8a7 7 0 1 1 14 0A7 7 0 0 1 1 8"/>
</svg>