<svg width="16" height="16" viewBox="0 0 16 16" fill="none" xmlns="http://www.w3.org/2000/svg">
<path d="M6 7H1C0.4 7 0 6.6 0 6V1C0 0.4 0.4 0 1 0H6C6.6 0 7 0.4 7 1V6C7 6.6 6.6 7 6 7ZM2 5H5V2H2V5Z" fill="#16B378"/>
<path d="M6 16H1C0.4 16 0 15.6 0 15V10C0 9.4 0.4 9 1 9H6C6.6 9 7 9.4 7 10V15C7 15.6 6.6 16 6 16ZM2 14H5V11H2V14Z" fill="#16B378"/>
<path d="M15 7H10C9.4 7 9 6.6 9 6V1C9 0.4 9.4 0 10 0H15C15.6 0 16 0.4 16 1V6C16 6.6 15.6 7 15 7ZM11 5H14V2H11V5Z" fill="#16B378"/>
<path d="M4 3H3V4H4V3Z" fill="#16B378"/>
<path d="M4 12H3V13H4V12Z" fill="#16B378"/>
<path d="M16 14H9V16H16V14Z" fill="#16B378"/>
<path d="M16 13H14V11H11V9H15C15.6 9 16 9.4 16 10V13Z" fill="#16B378"/>
<path d="M13 12H12V13H13V12Z" fill="#16B378"/>
<path d="M13 3H12V4H13V3Z" fill="#16B378"/>
</svg>
