<?xml version="1.0" encoding="UTF-8"?>
<svg width="24px" height="24px" viewBox="0 0 24 24" version="1.1"
  xmlns="http://www.w3.org/2000/svg"
  xmlns:xlink="http://www.w3.org/1999/xlink">
  <g stroke="none" stroke-width="1" fill="none" fill-rule="evenodd">
    <path d="M9.562 3a7.5 7.5 0 0 0-6.798 10.673l-.724 2.842a1.25 1.25 0 0 0 1.504 1.524c.75-.18 1.903-.457 2.93-.702A7.5 7.5 0 1 0 9.561 3Zm-6 7.5a6 6 0 1 1 3.33 5.375l-.244-.121-.264.063c-.923.22-1.99.475-2.788.667l.69-2.708.07-.276-.13-.253a5.971 5.971 0 0 1-.664-2.747Zm11 10.5c-1.97 0-3.762-.759-5.1-2h.1c.718 0 1.415-.089 2.08-.257.865.482 1.86.757 2.92.757.96 0 1.866-.225 2.67-.625l.243-.121.264.063c.922.22 1.966.445 2.74.61-.175-.751-.414-1.756-.642-2.651l-.07-.276.13-.253a5.971 5.971 0 0 0 .665-2.747 5.995 5.995 0 0 0-2.747-5.042 8.44 8.44 0 0 0-.8-2.047 7.503 7.503 0 0 1 4.344 10.263c.253 1.008.509 2.1.671 2.803a1.244 1.244 0 0 1-1.467 1.5 132.62 132.62 0 0 1-2.913-.64 7.476 7.476 0 0 1-3.088.663Z" fill="#000000" fill-rule="nonzero" />
  </g>
</svg>