<svg width="20" height="20" viewBox="0 0 20 20" fill="none" xmlns="http://www.w3.org/2000/svg">
<path d="M10.0001 3.33268C6.31818 3.33268 3.33341 6.31745 3.33341 9.99935C3.33341 13.6812 6.31818 16.666 10.0001 16.666C13.682 16.666 16.6667 13.6812 16.6667 9.99935C16.6667 6.31745 13.682 3.33268 10.0001 3.33268ZM1.66675 9.99935C1.66675 5.39698 5.39771 1.66602 10.0001 1.66602C14.6025 1.66602 18.3334 5.39698 18.3334 9.99935C18.3334 14.6017 14.6025 18.3327 10.0001 18.3327C5.39771 18.3327 1.66675 14.6017 1.66675 9.99935ZM10.0001 4.99935C10.4603 4.99935 10.8334 5.37245 10.8334 5.83268V9.65417L13.0893 11.9101C13.4148 12.2355 13.4148 12.7632 13.0893 13.0886C12.7639 13.414 12.2363 13.414 11.9108 13.0886L9.41083 10.5886C9.25455 10.4323 9.16675 10.2204 9.16675 9.99935V5.83268C9.16675 5.37245 9.53984 4.99935 10.0001 4.99935Z" fill="#929299"/>
</svg>
