<?xml version="1.0" encoding="UTF-8"?>
<svg width="16px" height="16px" viewBox="0 0 16 16" version="1.1" xmlns="http://www.w3.org/2000/svg" xmlns:xlink="http://www.w3.org/1999/xlink">
    <!-- Generator: Sketch 52.5 (67469) - http://www.bohemiancoding.com/sketch -->
    <title>Icons / UI / Code</title>
    <desc>Created with Sketch.</desc>
    <g id="Icons-/-UI-/-Code" stroke="none" stroke-width="1" fill="none" fill-rule="evenodd">
        <g id="code" transform="translate(0.000000, 1.000000)" fill="#000000" fill-rule="nonzero">
            <path d="M10.0333272,0.32051046 C10.1324565,0.062774188 10.4217533,-0.0658021386 10.6794895,0.0333271969 C10.9372258,0.132456532 11.0658021,0.421753267 10.9666728,0.67948954 L5.9666728,13.6794895 C5.86754347,13.9372258 5.57824673,14.0658021 5.32051046,13.9666728 C5.06277419,13.8675435 4.93419786,13.5782467 5.0333272,13.3205105 L10.0333272,0.32051046 Z M3.85355339,9.14644661 C4.04881554,9.34170876 4.04881554,9.65829124 3.85355339,9.85355339 C3.65829124,10.0488155 3.34170876,10.0488155 3.14644661,9.85355339 L0.146446609,6.85355339 C-0.0488155365,6.65829124 -0.0488155365,6.34170876 0.146446609,6.14644661 L3.14644661,3.14644661 C3.34170876,2.95118446 3.65829124,2.95118446 3.85355339,3.14644661 C4.04881554,3.34170876 4.04881554,3.65829124 3.85355339,3.85355339 L1.20710678,6.5 L3.85355339,9.14644661 Z M12.1464466,3.85355339 C11.9511845,3.65829124 11.9511845,3.34170876 12.1464466,3.14644661 C12.3417088,2.95118446 12.6582912,2.95118446 12.8535534,3.14644661 L15.8535534,6.14644661 C16.0488155,6.34170876 16.0488155,6.65829124 15.8535534,6.85355339 L12.8535534,9.85355339 C12.6582912,10.0488155 12.3417088,10.0488155 12.1464466,9.85355339 C11.9511845,9.65829124 11.9511845,9.34170876 12.1464466,9.14644661 L14.7928932,6.5 L12.1464466,3.85355339 Z" id="Combined-Shape"></path>
        </g>
    </g>
</svg>