<?xml version="1.0" encoding="UTF-8"?>
<svg width="16px" height="16px" viewBox="0 0 16 16" version="1.1" xmlns="http://www.w3.org/2000/svg" xmlns:xlink="http://www.w3.org/1999/xlink">
    <!-- Generator: Sketch 52.5 (67469) - http://www.bohemiancoding.com/sketch -->
    <title>Icons / UI / Convert</title>
    <desc>Created with Sketch.</desc>
    <g id="Icons-/-UI-/-Convert" stroke="none" stroke-width="1" fill="none" fill-rule="evenodd">
        <path d="M3.75601345,12.2439865 L2,14 L2,9 L6.5,9.5 L4.46314198,11.536858 C5.51514894,12.5899468 6.99932383,13.1332998 8.51559013,12.9762352 C10.37935,12.7831748 11.9787411,11.5642774 12.6591286,9.8184406 C12.7594011,9.56114692 13.0492657,9.43385609 13.3065594,9.53412858 C13.5638531,9.63440106 13.6911439,9.92426572 13.5908714,10.1815594 C12.7744064,12.2765636 10.8551372,13.7392405 8.61862529,13.9709129 C6.79926232,14.1593743 5.01840241,13.5074791 3.75601345,12.2439865 Z M12.2439865,3.75601345 L14,2 L14,7 L9.5,6.5 L11.536858,4.46314198 C10.4848511,3.41005318 9.00067617,2.86670015 7.48440987,3.02376483 C5.62064996,3.21682516 4.0212589,4.43572259 3.34087142,6.1815594 C3.24059894,6.43885308 2.95073428,6.56614391 2.6934406,6.46587142 C2.43614692,6.36559894 2.30885609,6.07573428 2.40912858,5.8184406 C3.22559355,3.72343643 5.14486282,2.26075951 7.38137471,2.02908712 C9.20073768,1.84062572 10.9815976,2.49252092 12.2439865,3.75601345 Z" id="Combined-Shape" fill="#000000" fill-rule="nonzero"></path>
    </g>
</svg>