<?xml version="1.0" encoding="UTF-8"?>
<svg width="16px" height="16px" viewBox="0 0 16 16" version="1.1" xmlns="http://www.w3.org/2000/svg" xmlns:xlink="http://www.w3.org/1999/xlink">
    <!-- Generator: Sketch 52.5 (67469) - http://www.bohemiancoding.com/sketch -->
    <title>Icons / UI / Dots</title>
    <desc>Created with Sketch.</desc>
    <g id="Icons-/-UI-/-Dots" stroke="none" stroke-width="1" fill="none" fill-rule="evenodd">
        <path d="M8,9.5 C7.17157288,9.5 6.5,8.82842712 6.5,8 C6.5,7.17157288 7.17157288,6.5 8,6.5 C8.82842712,6.5 9.5,7.17157288 9.5,8 C9.5,8.82842712 8.82842712,9.5 8,9.5 Z M12.5,9.5 C11.6715729,9.5 11,8.82842712 11,8 C11,7.17157288 11.6715729,6.5 12.5,6.5 C13.3284271,6.5 14,7.17157288 14,8 C14,8.82842712 13.3284271,9.5 12.5,9.5 Z M3.5,9.5 C2.67157288,9.5 2,8.82842712 2,8 C2,7.17157288 2.67157288,6.5 3.5,6.5 C4.32842712,6.5 5,7.17157288 5,8 C5,8.82842712 4.32842712,9.5 3.5,9.5 Z" id="Combined-Shape" fill="#000000" fill-rule="nonzero"></path>
    </g>
</svg>