<?xml version="1.0" encoding="UTF-8"?>
<svg width="16px" height="16px" viewBox="0 0 16 16" version="1.1" xmlns="http://www.w3.org/2000/svg" xmlns:xlink="http://www.w3.org/1999/xlink">
    <!-- Generator: Sketch 52.5 (67469) - http://www.bohemiancoding.com/sketch -->
    <title>Icons / UI / Download</title>
    <desc>Created with Sketch.</desc>
    <g id="Icons-/-UI-/-Download" stroke="none" stroke-width="1" fill="none" fill-rule="evenodd">
        <path d="M12,13.2928932 L14.1464466,11.1464466 C14.3417088,10.9511845 14.6582912,10.9511845 14.8535534,11.1464466 C15.0488155,11.3417088 15.0488155,11.6582912 14.8535534,11.8535534 L11.8535534,14.8535534 C11.6582912,15.0488155 11.3417088,15.0488155 11.1464466,14.8535534 L8.14644661,11.8535534 C7.95118446,11.6582912 7.95118446,11.3417088 8.14644661,11.1464466 C8.34170876,10.9511845 8.65829124,10.9511845 8.85355339,11.1464466 L11,13.2928932 L11,7.5 C11,7.22385763 11.2238576,7 11.5,7 C11.7761424,7 12,7.22385763 12,7.5 L12,13.2928932 Z M1.08535285,11 C1.29127106,11.5825962 1.84689059,12 2.5,12 L6.5,12 C6.77614237,12 7,12.2238576 7,12.5 C7,12.7761424 6.77614237,13 6.5,13 L2.5,13 C1.11928813,13 1.38777878e-16,11.8807119 0,10.5 C0,10.2238576 0.223857625,10 0.5,10 L6.5,10 C6.77614237,10 7,10.2238576 7,10.5 C7,10.7761424 6.77614237,11 6.5,11 L1.08535285,11 Z M2,8.5 C2,8.77614237 1.77614237,9 1.5,9 C1.22385763,9 1,8.77614237 1,8.5 L1,2.5 C1,1.67157288 1.67157288,1 2.5,1 L13.5,1 C14.3284271,1 15,1.67157288 15,2.5 L15,8.5 C15,8.77614237 14.7761424,9 14.5,9 C14.2238576,9 14,8.77614237 14,8.5 L14,2.5 C14,2.22385763 13.7761424,2 13.5,2 L2.5,2 C2.22385763,2 2,2.22385763 2,2.5 L2,8.5 Z" id="Combined-Shape" fill="#000000" fill-rule="nonzero"></path>
    </g>
</svg>