<?xml version="1.0" encoding="UTF-8"?>
<svg width="16px" height="16px" viewBox="0 0 16 16" version="1.1" xmlns="http://www.w3.org/2000/svg" xmlns:xlink="http://www.w3.org/1999/xlink">
    <!-- Generator: Sketch 52.5 (67469) - http://www.bohemiancoding.com/sketch -->
    <title>EyeHide</title>
    <desc>Created with Sketch.</desc>
    <g id="EyeHide" stroke="none" stroke-width="1" fill="none" fill-rule="evenodd">
        <g id="b-preview" transform="translate(2.000000, 2.000000)" fill="#000000" fill-rule="nonzero">
            <path d="M2.76785005,8.38776186 L8.48247865,2.94525843 C7.69137891,2.33778478 6.85956527,2 6,2 C4.68715779,2 3.43905306,2.78796591 2.30186883,4.12128022 C1.89509991,4.59820455 1.53272784,5.11097911 1.22054174,5.62341944 C1.13394101,5.7655709 1.06026218,5.89231548 1,6 C1.06026218,6.10768452 1.13394101,6.2344291 1.22054174,6.37658056 C1.53272784,6.88902089 1.89509991,7.40179545 2.30186883,7.87871978 C2.45521666,8.05851549 2.61058148,8.22839449 2.76785005,8.38776186 Z M3.51752135,9.05474157 C4.30862109,9.66221522 5.14043473,10 6,10 C7.31284221,10 8.56094694,9.21203409 9.69813117,7.87871978 C10.1049001,7.40179545 10.4672722,6.88902089 10.7794583,6.37658056 C10.866059,6.2344291 10.9397378,6.10768452 11,6 C10.9397378,5.89231548 10.866059,5.7655709 10.7794583,5.62341944 C10.4672722,5.11097911 10.1049001,4.59820455 9.69813117,4.12128022 C9.54478334,3.94148451 9.38941852,3.77160551 9.23214995,3.61223814 L3.51752135,9.05474157 Z M9.19804931,2.26376257 L10.9051724,0.637931034 C11.1051376,0.447488017 11.4216259,0.455207246 11.612069,0.655172414 C11.802512,0.855137582 11.7947928,1.17162595 11.5948276,1.36206897 L9.93587571,2.94202313 C10.0726224,3.08244653 10.2076199,3.2294339 10.3408426,3.38263205 C10.7832329,3.89135447 11.1747231,4.43468755 11.5124155,4.97834409 C11.716341,5.30664718 11.8585366,5.56510863 11.935228,5.71944212 C12.0215907,5.89323782 12.0215907,6.10676218 11.935228,6.28055788 C11.8585366,6.43489137 11.716341,6.69335282 11.5124155,7.02165591 C11.1747231,7.56531245 10.7832329,8.10864553 10.3408426,8.61736795 C9.05219026,10.0992412 7.59747315,11 6,11 C4.85821886,11 3.78936552,10.5398419 2.80195069,9.73623743 L1.09482759,11.362069 C0.894862418,11.552512 0.578374052,11.5447928 0.387931034,11.3448276 C0.197488017,11.1448624 0.205207246,10.8283741 0.405172414,10.637931 L2.06412429,9.05797687 C1.92737763,8.91755347 1.79238007,8.7705661 1.65915737,8.61736795 C1.21676707,8.10864553 0.825276928,7.56531245 0.487584521,7.02165591 C0.283658966,6.69335282 0.141463378,6.43489137 0.0647719504,6.28055788 C-0.0215906501,6.10676218 -0.0215906501,5.89323782 0.0647719504,5.71944212 C0.141463378,5.56510863 0.283658966,5.30664718 0.487584521,4.97834409 C0.825276928,4.43468755 1.21676707,3.89135447 1.65915737,3.38263205 C2.94780974,1.9007588 4.40252685,1 6,1 C7.14178114,1 8.21063448,1.46015814 9.19804931,2.26376257 Z M4.25,6 C4.25,6.27614237 4.02614237,6.5 3.75,6.5 C3.47385763,6.5 3.25,6.27614237 3.25,6 C3.25,4.53468254 4.48641667,3.35714286 6,3.35714286 C6.27614237,3.35714286 6.5,3.58100048 6.5,3.85714286 C6.5,4.13328523 6.27614237,4.35714286 6,4.35714286 C5.02808333,4.35714286 4.25,5.0981746 4.25,6 Z M7.75,6 C7.75,5.72385763 7.97385763,5.5 8.25,5.5 C8.52614237,5.5 8.75,5.72385763 8.75,6 C8.75,7.46531746 7.51358333,8.64285714 6,8.64285714 C5.72385763,8.64285714 5.5,8.41899952 5.5,8.14285714 C5.5,7.86671477 5.72385763,7.64285714 6,7.64285714 C6.97191667,7.64285714 7.75,6.9018254 7.75,6 Z" id="Combined-Shape"></path>
        </g>
    </g>
</svg>