<?xml version="1.0" encoding="UTF-8"?>
<svg width="16px" height="16px" viewBox="0 0 16 16" version="1.1" xmlns="http://www.w3.org/2000/svg" xmlns:xlink="http://www.w3.org/1999/xlink">
    <!-- Generator: Sketch 52.5 (67469) - http://www.bohemiancoding.com/sketch -->
    <title>EyeShow</title>
    <desc>Created with Sketch.</desc>
    <g id="EyeShow" stroke="none" stroke-width="1" fill="none" fill-rule="evenodd">
        <path d="M3.23500477,8.40040037 C3.54730479,8.91034182 3.9097395,9.42051791 4.31647971,9.89490993 C5.45141926,11.2186204 6.69561043,12 8,12 C9.30438957,12 10.5485807,11.2186204 11.6835203,9.89490993 C12.0902605,9.42051791 12.4526952,8.91034182 12.7649952,8.40040037 C12.8585747,8.24759844 12.9371164,8.11261064 13,8 C12.9371164,7.88738936 12.8585747,7.75240156 12.7649952,7.59959963 C12.4526952,7.08965818 12.0902605,6.57948209 11.6835203,6.10509007 C10.5485807,4.78137961 9.30438957,4 8,4 C6.69561043,4 5.45141926,4.78137961 4.31647971,6.10509007 C3.9097395,6.57948209 3.54730479,7.08965818 3.23500477,7.59959963 C3.14142531,7.75240156 3.06288358,7.88738936 3,8 C3.06288358,8.11261064 3.14142531,8.24759844 3.23500477,8.40040037 Z M2.05980625,7.74116101 C2.13604811,7.58690288 2.27775867,7.32793071 2.48115906,6.99870307 C2.81822488,6.45312205 3.20905648,5.90777092 3.65080545,5.39704014 C4.93980405,3.90675646 6.39633419,3 8,3 C9.60366581,3 11.0601959,3.90675646 12.3491946,5.39704014 C12.7909435,5.90777092 13.1817751,6.45312205 13.5188409,6.99870307 C13.7222413,7.32793071 13.8639519,7.58690288 13.9401937,7.74116101 C14.0199354,7.90250019 14.0199354,8.09749981 13.9401937,8.25883899 C13.8639519,8.41309712 13.7222413,8.67206929 13.5188409,9.00129693 C13.1817751,9.54687795 12.7909435,10.0922291 12.3491946,10.6029599 C11.0601959,12.0932435 9.60366581,13 8,13 C6.39633419,13 4.93980405,12.0932435 3.65080545,10.6029599 C3.20905648,10.0922291 2.81822488,9.54687795 2.48115906,9.00129693 C2.27775867,8.67206929 2.13604811,8.41309712 2.05980625,8.25883899 C1.98006458,8.09749981 1.98006458,7.90250019 2.05980625,7.74116101 Z M8.06421962,10.2872766 C6.72760362,10.2872766 5.64406226,9.26322796 5.64406226,8 C5.64406226,6.73677204 6.72760362,5.71272344 8.06421962,5.71272344 C9.40083563,5.71272344 10.484377,6.73677204 10.484377,8 C10.484377,9.26322796 9.40083563,10.2872766 8.06421962,10.2872766 Z M8.06421962,9.32421275 C8.83804994,9.32421275 9.46536336,8.73134251 9.46536336,8 C9.46536336,7.26865749 8.83804994,6.67578725 8.06421962,6.67578725 C7.29038931,6.67578725 6.66307589,7.26865749 6.66307589,8 C6.66307589,8.73134251 7.29038931,9.32421275 8.06421962,9.32421275 Z" id="Combined-Shape" fill="#000000" fill-rule="nonzero"></path>
    </g>
</svg>