<?xml version="1.0" encoding="UTF-8"?>
<svg width="16px" height="16px" viewBox="0 0 16 16" version="1.1" xmlns="http://www.w3.org/2000/svg" xmlns:xlink="http://www.w3.org/1999/xlink">
    <!-- Generator: Sketch 52.5 (67469) - http://www.bohemiancoding.com/sketch -->
    <title>Icons / UI / Feedback</title>
    <desc>Created with Sketch.</desc>
    <g id="Icons-/-UI-/-Feedback" stroke="none" stroke-width="1" fill="none" fill-rule="evenodd">
        <path d="M7.2182133,9 C7.22515197,8.99985515 7.23208321,8.99985564 7.2390026,9 L8.524,9 L8.71046667,9.03607093 L13,10.7601599 L13,3.23984011 L8.71046667,4.96392907 L8.524,5 L5,5 C3.8954305,5 3,5.8954305 3,7 C3,7.53043298 3.21071368,8.03914081 3.58578644,8.41421356 C3.96085919,8.78928632 4.46956702,9 5,9 L7.21821306,9 Z M8.04050379,10 L8.84505153,11.5981203 C9.04455933,11.9877613 9.08105654,12.4407125 8.9465094,12.8572705 C8.81196227,13.2738284 8.5173995,13.6198481 8.12749289,13.8192494 C7.31623103,14.2337504 6.32254462,13.9127922 5.90777198,13.1034809 L4.25617905,9.90633477 C3.73927959,9.77402886 3.26236531,9.505006 2.87867966,9.12132034 C2.31607052,8.55871121 2,7.79564947 2,7 C2,5.34314575 3.34314575,4 5,4 L8.42727781,4 L13.3135333,2.03607093 C13.6420762,1.90401994 14,2.14591262 14,2.5 L14,11.5 C14,11.8540874 13.6420762,12.0959801 13.3135333,11.9639291 L8.42727781,10 L8.04050379,10 Z M5.4301124,10 L6.79696584,12.6459531 C6.96080431,12.9656352 7.35262131,13.0921911 7.67233978,12.9288362 C7.82587343,12.8503179 7.94191331,12.7140071 7.99491673,12.5499085 C8.04792015,12.3858099 8.03354246,12.2073746 7.9534025,12.0508348 L6.92093151,10 L5.4301124,10 Z" id="Combined-Shape" fill="#000000" fill-rule="nonzero"></path>
    </g>
</svg>