<svg width="20" height="20" viewBox="0 0 20 20" fill="none" xmlns="http://www.w3.org/2000/svg">
<path d="M10.004 3.33331C6.32701 3.33331 3.33331 6.32701 3.33331 10.004C3.33331 13.6811 6.32701 16.6748 10.004 16.6748C13.6811 16.6748 16.6748 13.6811 16.6748 10.004C16.6748 6.32701 13.6811 3.33331 10.004 3.33331ZM11.265 4.24444C13.1279 4.65119 14.6898 5.9528 15.4301 7.70997L15.4789 7.82386H12.0541V7.75064C11.8832 6.28633 11.5822 5.11489 11.1755 4.35833L11.0941 4.20376L11.265 4.24444ZM11.4439 10.0366C11.4439 10.4921 11.4277 10.9477 11.4033 11.3951V11.4684H8.62109V11.3951C8.58855 10.9558 8.57228 10.5003 8.57228 10.0366C8.57228 9.57289 8.58855 9.10919 8.62109 8.63736V8.56414H11.3951V8.63736C11.4277 9.11733 11.4439 9.57289 11.4439 10.0366ZM10.0122 4.16309C10.4352 4.16309 11.0535 5.52977 11.3138 7.73437V7.82386H8.69431V7.73437C8.96276 5.52977 9.58916 4.16309 10.0122 4.16309ZM4.5617 7.70997C5.0254 6.6036 5.8145 5.68434 6.79884 5.04981C7.38456 4.66746 8.05164 4.39087 8.75125 4.2363L8.92209 4.19563L8.84074 4.35019C8.42585 5.10675 8.12485 6.2782 7.96215 7.74251V7.81572H4.52103L4.56984 7.70183L4.5617 7.70997ZM4.29325 11.4033C4.17122 10.8989 4.10614 10.4433 4.10614 9.99591C4.10614 9.54848 4.16309 9.10919 4.28511 8.61295L4.30138 8.54787H7.89707V8.63736C7.86453 9.10106 7.84826 9.57289 7.84826 10.0285C7.84826 10.484 7.86453 10.9152 7.88894 11.3789V11.4684H4.30952L4.29325 11.4033ZM8.71058 15.7555C6.86392 15.3406 5.31826 14.0553 4.56984 12.3144L4.52103 12.2005H7.94588V12.2737C8.10858 13.7136 8.40144 14.8769 8.80006 15.6416L8.88141 15.7962L8.71058 15.7555ZM10.0122 15.902C9.58102 15.902 8.96276 14.519 8.70244 12.29V12.2005H11.3301V12.29C11.0616 14.519 10.4433 15.902 10.0122 15.902ZM15.4301 12.3144C14.6898 14.0472 13.1523 15.3325 11.3138 15.7474L11.143 15.7881L11.2243 15.6335C11.6229 14.8688 11.9158 13.7055 12.0622 12.2737V12.2005H15.4789L15.4301 12.3144ZM15.7067 11.4684H12.1273V11.3789C12.1598 10.9152 12.1761 10.4596 12.1761 10.0285C12.1761 9.59729 12.1598 9.11733 12.1273 8.63736V8.54787H15.7067L15.723 8.61295C15.8369 9.07665 15.8938 9.54035 15.8938 9.99591C15.8938 10.4515 15.8369 10.9314 15.7148 11.4033L15.6986 11.4684H15.7067Z" fill="#16B378"/>
</svg>
