<svg width="16" height="16" viewBox="0 0 16 16" fill="none" xmlns="http://www.w3.org/2000/svg">
<path d="M3.35234 6.52344L3.57266 6.90781C3.76719 7.24766 4.08594 7.49844 4.46328 7.60625L5.82031 7.99297C6.22344 8.10781 6.5 8.47578 6.5 8.89531V9.83047C6.5 10.0883 6.64531 10.3227 6.875 10.4375C7.10469 10.5523 7.25 10.7867 7.25 11.0445V11.9586C7.25 12.3242 7.59922 12.5891 7.95078 12.4883C8.32812 12.3805 8.62109 12.0781 8.71719 11.6961L8.78281 11.4336C8.88125 11.0375 9.13906 10.6977 9.49297 10.4961L9.68281 10.3883C10.0344 10.1891 10.25 9.81406 10.25 9.41094V9.21641C10.25 8.91875 10.1305 8.63281 9.91953 8.42188L9.82812 8.33047C9.61719 8.11953 9.33125 8 9.03359 8H8.02344C7.76328 8 7.50547 7.93203 7.27812 7.80313L6.46953 7.34141C6.36875 7.28281 6.29141 7.18906 6.25391 7.07891C6.17891 6.85391 6.27969 6.61016 6.49297 6.50469L6.63125 6.43437C6.78594 6.35703 6.96641 6.34297 7.13047 6.39922L7.67422 6.57969C7.86641 6.64297 8.07734 6.57031 8.1875 6.40391C8.29766 6.23984 8.28594 6.02188 8.15937 5.86953L7.84062 5.4875C7.60625 5.20625 7.60859 4.79609 7.84766 4.51953L8.21563 4.09062C8.42188 3.84922 8.45469 3.50469 8.29766 3.23047L8.24141 3.13203C8.15937 3.12734 8.07969 3.125 7.99766 3.125C5.82266 3.125 3.97813 4.55234 3.35234 6.52344ZM12.875 8C12.875 7.1375 12.65 6.32656 12.2563 5.62109L11.6562 5.8625C11.2883 6.01016 11.0984 6.42031 11.2227 6.79531L11.6187 7.98359C11.7008 8.22734 11.9 8.4125 12.1484 8.47344L12.8305 8.64453C12.8586 8.43359 12.8727 8.21797 12.8727 8H12.875ZM2 8C2 6.4087 2.63214 4.88258 3.75736 3.75736C4.88258 2.63214 6.4087 2 8 2C9.5913 2 11.1174 2.63214 12.2426 3.75736C13.3679 4.88258 14 6.4087 14 8C14 9.5913 13.3679 11.1174 12.2426 12.2426C11.1174 13.3679 9.5913 14 8 14C6.4087 14 4.88258 13.3679 3.75736 12.2426C2.63214 11.1174 2 9.5913 2 8Z" fill="black"/>
</svg>
