<svg width="20" height="20" viewBox="0 0 20 20" fill="none" xmlns="http://www.w3.org/2000/svg">
<g clip-path="url(#clip0_668_37949)">
<path d="M14.2399 8.25059V6.8636C14.2399 4.68895 12.4277 2.91669 10.2039 2.91669C7.9802 2.91669 6.1767 4.68895 6.1767 6.8636V8.25059C5.2837 8.37045 4.58331 9.11532 4.58331 10.0229V14.8773C4.58331 15.8619 5.40627 16.6667 6.41308 16.6667H14.0035C15.0104 16.6667 15.8333 15.8619 15.8333 14.8773V10.0229C15.8333 9.11532 15.1329 8.37045 14.2399 8.25059ZM7.09596 6.8636C7.09596 5.18552 8.49674 3.81566 10.2127 3.81566C11.9286 3.81566 13.3294 5.18552 13.3294 6.8636V8.23347H7.09596V6.8636ZM14.9228 14.8773C14.9228 15.3739 14.5113 15.7677 14.0123 15.7677H6.41308C5.9053 15.7677 5.50257 15.3653 5.50257 14.8773V10.0229C5.50257 9.52628 5.91405 9.13244 6.41308 9.13244H14.0035C14.5113 9.13244 14.9141 9.53484 14.9141 10.0229V14.8773H14.9228Z" fill="#929299"/>
<path d="M10.2127 10.5109C9.58233 10.5109 9.0658 11.016 9.0658 11.6324C9.0658 12.052 9.31093 12.403 9.66113 12.5999V13.9526C9.66113 14.2523 9.90626 14.492 10.2127 14.492C10.5191 14.492 10.7642 14.2523 10.7642 13.9526V12.5999C11.1144 12.4115 11.3596 12.052 11.3596 11.6324C11.3596 11.016 10.843 10.5109 10.2127 10.5109Z" fill="#929299"/>
</g>
<defs>
<clipPath id="clip0_668_37949">
<rect width="11.25" height="13.75" fill="white" transform="translate(4.58331 2.91669)"/>
</clipPath>
</defs>
</svg>
