<svg width="20" height="20" viewBox="0 0 20 20" fill="none" xmlns="http://www.w3.org/2000/svg">
<path fill-rule="evenodd" clip-rule="evenodd" d="M6.86244 4.78056C7.2267 4.63935 7.61561 4.57277 8.00609 4.58475L8.01705 4.58508C8.78634 4.62897 9.50889 4.96861 10.0337 5.53278C10.5578 6.09614 10.8442 6.83999 10.8333 7.60927V8.75122C10.8328 9.30979 10.672 9.85684 10.3699 10.3267C10.1251 10.7073 9.79591 11.0245 9.4096 11.2547L9.54077 12.178L11.5931 12.7613C11.8541 12.8359 12.0844 12.9937 12.2479 13.2104C12.4114 13.4272 12.4999 13.6912 12.5 13.9627V15.8345C12.5 16.0647 12.3134 16.2512 12.0833 16.2512H3.74998C3.51986 16.2512 3.33331 16.0647 3.33331 15.8345V13.9595C3.33343 13.6881 3.42193 13.4238 3.58544 13.2071C3.74894 12.9904 3.97855 12.8328 4.23956 12.7581L6.29252 12.1747L6.42359 11.2546C6.03732 11.0245 5.7082 10.7073 5.46344 10.3267C5.16132 9.85684 5.00045 9.31015 4.99998 8.75157L4.99998 7.50141C4.99998 7.50135 4.99998 7.50148 4.99998 7.50141C4.99982 7.11081 5.07812 6.72396 5.23023 6.3642C5.38237 6.00437 5.60525 5.67878 5.88563 5.40674C6.16601 5.1347 6.49819 4.92176 6.86244 4.78056ZM7.97506 5.41753C7.69799 5.40975 7.42213 5.45735 7.16364 5.55755C6.90346 5.65841 6.66619 5.81051 6.46592 6.00483C6.26565 6.19914 6.10645 6.43171 5.99778 6.68873C5.88911 6.94574 5.83318 7.22197 5.83331 7.50102L5.83331 8.75086C5.83331 8.75094 5.83331 8.75079 5.83331 8.75086C5.83369 9.14977 5.94859 9.5404 6.16436 9.87593C6.38016 10.2115 6.68779 10.4781 7.05067 10.6439C7.21863 10.7207 7.31603 10.8988 7.28998 11.0816L7.11748 12.2925C7.09466 12.4518 7.02612 12.6015 6.92024 12.7228C6.81435 12.844 6.6756 12.932 6.52077 12.9761L4.46873 13.5593C4.46866 13.5593 4.4688 13.5593 4.46873 13.5593C4.38182 13.5842 4.30514 13.6368 4.25069 13.709C4.19622 13.7812 4.16673 13.8691 4.16665 13.9595M7.97506 5.41753C8.52765 5.45046 9.04642 5.69496 9.42356 6.10038C9.80195 6.50713 10.0085 7.04439 10 7.59987L9.99998 8.75086C9.99964 9.14985 9.88474 9.54034 9.66894 9.87593C9.45313 10.2115 9.1455 10.4781 8.78262 10.6439C8.61472 10.7207 8.51732 10.8987 8.54329 11.0815L8.71579 12.2957C8.73861 12.455 8.80717 12.6048 8.91306 12.7261C9.01894 12.8474 9.15769 12.9354 9.31252 12.9794L11.3646 13.5627C11.3645 13.5626 11.3646 13.5627 11.3646 13.5627C11.4515 13.5876 11.5282 13.6401 11.5826 13.7123C11.6371 13.7846 11.6666 13.8726 11.6666 13.9631V15.4179H4.16665V13.9595" fill="#929299"/>
<path fill-rule="evenodd" clip-rule="evenodd" d="M10.2084 4.14029C10.6781 3.86929 11.2141 3.73461 11.7562 3.7514L11.767 3.75173C12.5363 3.79562 13.2589 4.13526 13.7837 4.69943C14.3078 5.26279 14.5942 6.00664 14.5833 6.77592V7.91786C14.5828 8.47644 14.4219 9.02349 14.1198 9.49331C13.8751 9.87393 13.5459 10.1911 13.1596 10.4213L13.2891 11.3317L15.7201 11.9395C15.9904 12.0072 16.2306 12.1633 16.402 12.383C16.5735 12.6027 16.6666 12.8734 16.6666 13.152V15.8345C16.6666 16.0647 16.4801 16.2512 16.2499 16.2512H13.7499C13.5198 16.2512 13.3333 16.0647 13.3333 15.8345C13.3333 15.6044 13.5198 15.4179 13.7499 15.4179H15.8333V13.152C15.8333 13.0592 15.8022 12.9689 15.7451 12.8957C15.6879 12.8225 15.608 12.7704 15.5179 12.7479L13.0874 12.1405C12.9265 12.1003 12.7812 12.013 12.6701 11.8898C12.5591 11.7667 12.4874 11.6132 12.4641 11.449L12.2933 10.2482C12.2673 10.0654 12.3647 9.88731 12.5326 9.81057C12.8955 9.64472 13.2031 9.37816 13.4189 9.04258C13.6347 8.70699 13.7496 8.31649 13.7499 7.91751V6.76651C13.7584 6.21103 13.5519 5.67378 13.1735 5.26702C12.7964 4.8616 12.2776 4.61709 11.725 4.58417C11.3396 4.57324 10.9588 4.66944 10.6248 4.86211C10.4255 4.9771 10.1707 4.90874 10.0557 4.70941C9.94071 4.51009 10.0091 4.25528 10.2084 4.14029Z" fill="#929299"/>
</svg>
