<svg width="16" height="16" viewBox="0 0 16 16" fill="none" xmlns="http://www.w3.org/2000/svg">
<g clip-path="url(#clip0_6_151)">
<path d="M11.5 6.8L10.6875 5.9L11.5 5C11.5 3.32 9.75 2 8 2C6.25 2 4.5 3.32 4.5 5V6.8C3.75 6.8 3 7.52 3 8.24V12.44C3 13.28 3.75 14 4.5 14H7.9375H11.375C12.25 14 13 13.28 13 12.56V8.36C13 7.52 12.25 6.8 11.5 6.8ZM11.5 6.8H6.125V5C6.125 4.04 7 3.44 8 3.44C9 3.44 9.875 4.04 9.875 5H11.5L10.6875 5.9L11.5 6.8Z" fill="black"/>
</g>
<defs>
<clipPath id="clip0_6_151">
<rect width="10" height="12" fill="white" transform="translate(3 2)"/>
</clipPath>
</defs>
</svg>
