<?xml version="1.0" encoding="UTF-8"?>
<svg width="16px" height="16px" viewBox="0 0 16 16" version="1.1" xmlns="http://www.w3.org/2000/svg" xmlns:xlink="http://www.w3.org/1999/xlink">
    <!-- Generator: Sketch 52.5 (67469) - http://www.bohemiancoding.com/sketch -->
    <title>Icons / UI / Filter</title>
    <desc>Created with Sketch.</desc>
    <g id="Icons-/-UI-/-Filter" stroke="none" stroke-width="1" fill="none" fill-rule="evenodd">
        <path d="M2.5,4 L1.5,4 C1.224,4 1,3.776 1,3.5 C1,3.224 1.224,3 1.5,3 L2.5,3 C2.776,3 3,3.224 3,3.5 C3,3.776 2.776,4 2.5,4 Z M4.5,7 L1.5,7 C1.224,7 1,6.776 1,6.5 C1,6.224 1.224,6 1.5,6 L4.5,6 C4.776,6 5,6.224 5,6.5 C5,6.776 4.776,7 4.5,7 Z M6.5,10 L1.5,10 C1.224,10 1,9.776 1,9.5 C1,9.224 1.224,9 1.5,9 L6.5,9 C6.776,9 7,9.224 7,9.5 C7,9.776 6.776,10 6.5,10 Z M8.5,13 L1.5,13 C1.224,13 1,12.776 1,12.5 C1,12.224 1.224,12 1.5,12 L8.5,12 C8.776,12 9,12.224 9,12.5 C9,12.776 8.776,13 8.5,13 Z M14.972888,2.28490885 C15.0265382,2.45736178 14.9968864,2.65596725 14.8978932,2.78780683 L11.6813068,7.07666965 C11.6117347,7.16958809 11.538009,7.40680702 11.538009,7.53818508 L11.538009,13.5378856 C11.538009,13.7246455 11.453784,13.8929448 11.3243314,13.964172 C11.2815266,13.988017 11.2365297,13.999401 11.1919943,13.999401 C11.1018851,13.999401 11.0132758,13.9524803 10.947165,13.864177 L9.56264486,12.0181153 C9.49768779,11.9316581 9.46122876,11.8142793 9.46122876,11.6918239 L9.46122876,7.53818508 C9.46122876,7.40680702 9.38761844,7.16958809 9.31793092,7.07697733 L6.10134452,2.78796067 C6.00235133,2.65596725 5.9728149,2.45751562 6.02634968,2.28490885 C6.07988445,2.11230209 6.20610654,2 6.34605845,2 L14.6531793,2 C14.7932466,2 14.9194686,2.11230209 14.972888,2.28490885 Z" id="Combined-Shape" fill="#000000" fill-rule="nonzero"></path>
    </g>
</svg>