<svg width="16" height="16" viewBox="0 0 16 16" fill="none" xmlns="http://www.w3.org/2000/svg">
<path d="M8.66647 15.3333H7.33314C7.33314 9.84797 4.4478 8.63063 4.41847 8.6193L3.7998 8.3713L4.29514 7.1333L4.91447 7.38063C5.02514 7.42597 6.9518 8.2353 7.9998 11.114C9.0478 8.23597 10.9745 7.42663 11.0851 7.38063L11.7045 7.1333L12.1998 8.3713L11.5845 8.6173C11.4398 8.67997 8.66647 9.94197 8.66647 15.3333Z" fill="white"/>
<path d="M10.4531 1.79054L8.75772 1.54454L7.99972 0.00854492L7.24172 1.54454L5.54639 1.79054L6.77305 2.98654L6.48372 4.67521L7.99972 3.87788L9.51572 4.67521L9.22639 2.98654L10.4531 1.79054Z" fill="white"/>
<path d="M5.29917 12.358L3.6985 12.1253L2.98317 10.6753L2.26717 12.1253L0.666504 12.358L1.8245 13.4866L1.55117 15.0806L2.98317 14.3286L4.4145 15.0806L4.14117 13.4866L5.29917 12.358Z" fill="white"/>
<path d="M15.3333 12.358L13.7327 12.1253L13.0167 10.6753L12.3013 12.1253L10.7007 12.358L11.8587 13.4866L11.5853 15.0806L13.0167 14.3286L14.4487 15.0806L14.1753 13.4866L15.3333 12.358Z" fill="white"/>
<path d="M8.66634 7.53313V5.3418H7.33301V7.52046C7.57621 7.76811 7.8025 8.03181 8.01034 8.3098C8.2122 8.03717 8.43132 7.77775 8.66634 7.53313Z" fill="white"/>
<path d="M1.6665 7.33325C2.21879 7.33325 2.6665 6.88554 2.6665 6.33325C2.6665 5.78097 2.21879 5.33325 1.6665 5.33325C1.11422 5.33325 0.666504 5.78097 0.666504 6.33325C0.666504 6.88554 1.11422 7.33325 1.6665 7.33325Z" fill="white"/>
<path d="M14.333 7.33325C14.8853 7.33325 15.333 6.88554 15.333 6.33325C15.333 5.78097 14.8853 5.33325 14.333 5.33325C13.7807 5.33325 13.333 5.78097 13.333 6.33325C13.333 6.88554 13.7807 7.33325 14.333 7.33325Z" fill="white"/>
</svg>
