<svg width="16" height="16" viewBox="0 0 16 16" fill="none" xmlns="http://www.w3.org/2000/svg">
<path fill-rule="evenodd" clip-rule="evenodd" d="M1.6 0.999959H6.4L8 2.66663H14.4C14.8243 2.66663 15.2313 2.84222 15.5314 3.15478C15.8314 3.46734 16 3.89126 16 4.33329V10.752C15.747 10.0647 15.0952 9.55496 14.4435 9.55496H8.47187V7.47183C8.47187 6.36083 9.444 5.66646 10.555 5.66646C11.666 5.66646 12.6381 6.36083 12.6381 7.47183H14.4435C14.4435 5.52758 12.4992 3.99996 10.555 3.99996C8.61075 3.99996 6.6665 5.52758 6.6665 7.47183V9.55496C5.83325 9.55496 5 10.3882 5 11.2215V14.3333H1.6C1.17565 14.3333 0.768687 14.1577 0.468629 13.8451C0.16857 13.5326 0 13.1087 0 12.6666V2.66663C0 1.74163 0.712 0.999959 1.6 0.999959Z" fill="black"/>
</svg>
