<svg width="24" height="24" viewBox="0 0 24 24" fill="none" xmlns="http://www.w3.org/2000/svg">
<g clip-path="url(#clip0_500_38908)">
<path d="M11.93 19.03C11.93 19.03 11.98 19.11 12 19.15C11.96 19.08 11.92 19 11.9 18.93C11.91 18.96 11.92 19 11.93 19.03Z" fill="#929299"/>
<path d="M12.2 11.27C12.2 8.73 14.27 6.66 16.81 6.66C17.68 6.66 18.48 6.91 19.17 7.33V6.46C19.17 5.59 18.47 4.89 17.6 4.89H11.17L9.28 3H3.56C2.7 3 2 3.7 2 4.56V15.48C2 16.35 2.7 17.05 3.57 17.05H10.81V14.07C10.81 13.62 10.93 13.18 11.16 12.77C11.41 12.32 11.77 11.96 12.2 11.72V11.26V11.27Z" fill="#929299"/>
<path d="M21.75 13.67C21.75 13.67 21.75 13.64 21.74 13.62C21.7 13.49 21.65 13.37 21.59 13.26C21.35 12.83 20.93 12.51 20.42 12.41V11.26C20.42 10.17 19.93 9.21002 19.17 8.55002C18.54 8.00002 17.72 7.65002 16.81 7.65002C14.82 7.65002 13.2 9.27002 13.2 11.26V12.41C13.07 12.43 12.95 12.47 12.84 12.52C12.61 12.62 12.41 12.77 12.25 12.95C12.17 13.04 12.1 13.14 12.04 13.25C11.98 13.36 11.93 13.48 11.89 13.61C11.89 13.63 11.88 13.64 11.88 13.66C11.84 13.79 11.82 13.93 11.82 14.07V18.39C11.82 18.53 11.85 18.67 11.88 18.81C11.88 18.85 11.9 18.88 11.91 18.92C11.94 19 11.98 19.07 12.01 19.14C12.05 19.22 12.09 19.29 12.14 19.36C12.19 19.43 12.24 19.49 12.3 19.55C12.35 19.6 12.4 19.65 12.46 19.7C12.53 19.76 12.61 19.81 12.69 19.85C12.76 19.89 12.82 19.92 12.9 19.95C12.96 19.97 13.01 19.99 13.07 20.01C13.21 20.05 13.36 20.08 13.51 20.08H20.12C20.27 20.08 20.42 20.05 20.56 20.01C20.62 19.99 20.67 19.97 20.73 19.95C20.8 19.92 20.87 19.89 20.94 19.85C21.02 19.8 21.1 19.75 21.17 19.7C21.23 19.65 21.28 19.6 21.33 19.55C21.39 19.49 21.44 19.43 21.49 19.36C21.54 19.29 21.58 19.22 21.62 19.14C21.64 19.1 21.67 19.06 21.69 19.01C21.7 18.98 21.71 18.94 21.72 18.91C21.73 18.87 21.74 18.84 21.75 18.8C21.79 18.66 21.81 18.52 21.81 18.38V14.06C21.81 13.92 21.79 13.78 21.75 13.65V13.67ZM14.2 11.27C14.2 9.83002 15.37 8.66002 16.81 8.66002C17.86 8.66002 18.75 9.28002 19.17 10.17C19.33 10.51 19.42 10.88 19.42 11.27V12.39H14.2V11.27ZM20.81 18.4C20.81 18.68 20.64 18.91 20.41 19.03C20.32 19.07 20.22 19.1 20.11 19.1H13.5C13.39 19.1 13.3 19.07 13.2 19.03C12.96 18.92 12.8 18.68 12.8 18.4V14.08C12.8 13.7 13.11 13.38 13.5 13.38H20.11C20.49 13.38 20.81 13.69 20.81 14.08V18.4Z" fill="#929299"/>
<path d="M20.84 19.93C20.84 19.93 20.9 19.89 20.93 19.87C20.86 19.91 20.8 19.94 20.72 19.97C20.76 19.96 20.8 19.95 20.83 19.93H20.84Z" fill="white"/>
<path d="M12.78 19.93C12.78 19.93 12.86 19.95 12.89 19.97C12.82 19.94 12.75 19.91 12.68 19.87C12.71 19.89 12.74 19.92 12.77 19.93H12.78Z" fill="white"/>
<path d="M16.81 14.52C16.26 14.52 15.81 14.97 15.81 15.52C15.81 15.89 16.02 16.21 16.33 16.38V17.58C16.33 17.84 16.54 18.06 16.81 18.06C17.08 18.06 17.29 17.85 17.29 17.58V16.38C17.59 16.21 17.81 15.9 17.81 15.52C17.81 14.97 17.36 14.52 16.81 14.52Z" fill="#929299"/>
</g>
<defs>
<clipPath id="clip0_500_38908">
<rect width="19.81" height="17.1" fill="white" transform="translate(2 3)"/>
</clipPath>
</defs>
</svg>
