<svg width="16" height="16" viewBox="0 0 16 16" fill="none" xmlns="http://www.w3.org/2000/svg">
<path fill-rule="evenodd" clip-rule="evenodd" d="M1.6 1H6.4L8 2.66667H14.4C14.8243 2.66667 15.2313 2.84226 15.5314 3.15482C15.8314 3.46738 16 3.89131 16 4.33333V6.22873C15.8677 6.06499 15.7262 5.9076 15.576 5.75736C14.4508 4.63214 12.9246 4 11.3333 4C9.74203 4 8.21591 4.63214 7.09069 5.75736C5.96547 6.88258 5.33333 8.4087 5.33333 10C5.33333 11.5913 5.96547 13.1174 7.09069 14.2426C7.12129 14.2732 7.15218 14.3035 7.18336 14.3333H1.6C1.17565 14.3333 0.768687 14.1577 0.468629 13.8452C0.168571 13.5326 0 13.1087 0 12.6667V2.66667C0 1.74167 0.712 1 1.6 1ZM11.6103 14.3333H10.73C10.6397 14.2361 10.5833 14.1055 10.5833 13.9586V13.0445C10.5833 12.7867 10.438 12.5523 10.2083 12.4375C9.97865 12.3227 9.83333 12.0883 9.83333 11.8305V10.8953C9.83333 10.4758 9.55677 10.1078 9.15365 9.99297L7.79661 9.60625C7.41927 9.49844 7.10052 9.24766 6.90599 8.90781L6.68568 8.52344C7.31146 6.55234 9.15599 5.125 11.331 5.125C11.413 5.125 11.4927 5.12734 11.5747 5.13203L11.631 5.23047C11.788 5.50469 11.7552 5.84922 11.549 6.09062L11.181 6.51953C10.9419 6.79609 10.9396 7.20625 11.174 7.4875L11.4927 7.86953C11.6193 8.02188 11.631 8.23984 11.5208 8.40391C11.4107 8.57031 11.1997 8.64297 11.0076 8.57969L10.4638 8.39922C10.2997 8.34297 10.1193 8.35703 9.96458 8.43437L9.8263 8.50469C9.61302 8.61016 9.51224 8.85391 9.58724 9.07891C9.62474 9.18906 9.70208 9.28281 9.80287 9.34141L10.6115 9.80313C10.8388 9.93203 11.0966 10 11.3568 10H12.3669C12.6646 10 12.9505 10.1195 13.1615 10.3305L13.2529 10.4219C13.4638 10.6328 13.5833 10.9187 13.5833 11.2164V11.4109C13.5833 11.8141 13.3677 12.1891 13.0161 12.3883L12.8263 12.4961C12.4724 12.6977 12.2146 13.0375 12.1161 13.4336L12.0505 13.6961C11.9845 13.9585 11.8256 14.1833 11.6103 14.3333ZM16 8.5872V10.6034L15.4818 10.4734C15.2333 10.4125 15.0341 10.2273 14.9521 9.98359L14.556 8.79531C14.4318 8.42031 14.6216 8.01016 14.9896 7.8625L15.5896 7.62109C15.7592 7.92499 15.8975 8.24847 16 8.5872Z" fill="black"/>
</svg>
