<svg width="16" height="16" viewBox="0 0 16 16" fill="none" xmlns="http://www.w3.org/2000/svg">
<path fill-rule="evenodd" clip-rule="evenodd" d="M1.6 1H6.4L8 2.66667H14.4C14.8243 2.66667 15.2313 2.84226 15.5314 3.15482C15.8314 3.46738 16 3.89131 16 4.33333V10.7521C15.747 10.0648 15.0952 9.555 14.4435 9.555V7.47187C14.4435 5.52763 12.4992 4 10.555 4C8.61075 4 6.6665 5.52763 6.6665 7.47187V9.555C5.83325 9.555 5 10.3883 5 11.2215V14.3333H1.6C1.17565 14.3333 0.768687 14.1577 0.468629 13.8452C0.16857 13.5326 0 13.1087 0 12.6667V2.66667C0 1.74167 0.712 1 1.6 1ZM8.47187 7.47187V9.555H12.6381V7.47187C12.6381 6.36088 11.666 5.6665 10.555 5.6665C9.444 5.6665 8.47187 6.36088 8.47187 7.47187Z" fill="black"/>
</svg>
