<svg width="150" height="140" viewBox="0 0 150 140" fill="none" xmlns="http://www.w3.org/2000/svg">
<path d="M15.5883 140L15 139.989C15.2275 133.508 15.9255 127.052 17.0885 120.67C19.6326 107.007 23.863 98.034 29.6622 94L30 94.477C16.453 103.9 15.5952 139.64 15.5883 140Z" fill="#494949"/>
<path d="M22.6089 139L22 138.989C22.0131 138.346 22.3937 123.189 28.6503 119L29 119.475C22.9958 123.495 22.6119 138.845 22.6089 139Z" fill="#494949"/>
<path d="M33 94C34.6569 94 36 92.6568 36 91C36 89.3431 34.6569 88 33 88C31.3431 88 30 89.3431 30 91C30 92.6568 31.3431 94 33 94Z" fill="#16B378"/>
<path d="M31 119C32.6569 119 34 117.657 34 116C34 114.343 32.6569 113 31 113C29.3431 113 28 114.343 28 116C28 117.657 29.3431 119 31 119Z" fill="#16B378"/>
<path d="M20.8746 96.1993C21.4233 99.7892 19.9934 103 19.9934 103C19.9934 103 17.674 100.391 17.1254 96.8007C16.5767 93.2108 18.0066 90 18.0066 90C18.0066 90 20.326 92.6095 20.8746 96.1993Z" fill="#494949"/>
<path d="M30.6081 104.375C27.2943 105.576 24 104.676 24 104.676C24 104.676 26.0782 101.827 29.3919 100.625C32.7056 99.4235 36 100.324 36 100.324C36 100.324 33.9218 103.173 30.6081 104.375Z" fill="#494949"/>
<path d="M30.4054 126.629C28.9789 127.053 27.4598 127.115 26 126.809C26.9269 125.695 28.1752 124.857 29.5946 124.398C31.014 123.938 32.5439 123.875 34 124.218C33.0461 125.305 31.8065 126.137 30.4054 126.629Z" fill="#494949"/>
<path d="M107.999 136H103.934L102 121L108 121L107.999 136Z" fill="#FFF3DE"/>
<path d="M108 140L96 140V139.842C96.0001 138.558 96.4922 137.326 97.3681 136.418C98.244 135.51 99.432 135 100.671 135L108 135L108 140Z" fill="#494949"/>
<path d="M84.9994 136H80.9339L79 121L85 121L84.9994 136Z" fill="#FFF3DE"/>
<path d="M84.9998 140L73 140V139.842C73.0001 138.558 73.4922 137.326 74.3681 136.418C75.244 135.51 76.432 135 77.6707 135H77.671L85 135L84.9998 140Z" fill="#494949"/>
<path d="M74 53.8448L68.7607 53L67.068 55.8431L48.8528 60.6883L48.9021 60.9503C48.3869 60.389 47.7106 60.0182 46.9755 59.8938C46.2404 59.7694 45.4865 59.8983 44.8278 60.261C44.1691 60.6236 43.6416 61.2003 43.325 61.9037C43.0085 62.6072 42.9201 63.399 43.0733 64.1595C43.2265 64.9201 43.613 65.6078 44.1741 66.1187C44.7353 66.6295 45.4407 66.9357 46.1836 66.991C46.9264 67.0462 47.6663 66.8474 48.2912 66.4247C48.9161 66.0019 49.3921 65.3783 49.647 64.6481L71.7062 59.8473L74 53.8448Z" fill="#FFF3DE"/>
<path d="M127.561 50.0617C127.129 50.0621 126.7 50.1453 126.298 50.3069L126.403 50.1222L103.168 38L100 43.1689L124.157 53.9924C124.244 54.6529 124.519 55.274 124.947 55.7812C125.376 56.2885 125.94 56.6604 126.572 56.8526C127.204 57.0448 127.878 57.0491 128.513 56.865C129.147 56.6808 129.716 56.3161 130.15 55.8143C130.585 55.3126 130.867 54.6951 130.963 54.0357C131.06 53.3763 130.965 52.7029 130.692 52.096C130.419 51.4892 129.979 50.9746 129.423 50.6139C128.868 50.2531 128.222 50.0614 127.561 50.0617Z" fill="#FFF3DE"/>
<path d="M91.4035 18.0095C92.3294 12.2849 88.4401 6.88869 82.7165 5.95678C76.9929 5.02486 71.6024 8.91011 70.6765 14.6347C69.7506 20.3593 73.6399 25.7555 79.3635 26.6874C85.0872 27.6193 90.4776 23.734 91.4035 18.0095Z" fill="#494949"/>
<path d="M80.5 27C84.0899 27 87 24.0899 87 20.5C87 16.9101 84.0899 14 80.5 14C76.9102 14 74 16.9101 74 20.5C74 24.0899 76.9102 27 80.5 27Z" fill="#FFF3DE"/>
<path d="M80 19C83.866 19 87 16.9853 87 14.5C87 12.0147 83.866 10 80 10C76.134 10 73 12.0147 73 14.5C73 16.9853 76.134 19 80 19Z" fill="#494949"/>
<path d="M81.5 11C83.9853 11 86 8.98528 86 6.5C86 4.01472 83.9853 2 81.5 2C79.0147 2 77 4.01472 77 6.5C77 8.98528 79.0147 11 81.5 11Z" fill="#494949"/>
<path d="M75.9391 4.49998C75.9392 3.38767 76.3542 2.3148 77.1041 1.48831C77.854 0.66183 78.8856 0.140301 80 0.024332C79.8431 0.0081623 79.6855 4.01157e-05 79.5278 0C78.3265 0.00139078 77.1748 0.476108 76.3259 1.31987C75.4769 2.16363 75 3.30743 75 4.5C75 5.69257 75.4769 6.83636 76.3259 7.68013C77.1748 8.52389 78.3265 8.99861 79.5278 9C79.6855 8.99996 79.8431 8.99184 80 8.97567C78.8856 8.8597 77.854 8.33817 77.1041 7.51168C76.3542 6.68519 75.9392 5.6123 75.9391 4.49998Z" fill="#494949"/>
<path d="M76.6948 36.9326L77.2211 31.8285C77.2211 31.8285 84.3618 27.0813 86.7887 29.887L101.294 54.9226C101.294 54.9226 110.31 58.1564 109.992 70.5046L109.561 130.192L99.3364 131.323L93.1277 84.7871L87.5181 133L75.6148 132.624L76.6857 100.862L82.3616 70.0724L82.3073 59.8557L79.8075 55.7325C79.8075 55.7325 75.2283 53.8768 75.1003 48.6324L75 41.2606L76.6948 36.9326Z" fill="#494949"/>
<path d="M84 31.3536L84.14 29C84.14 29 105.607 34.648 103.904 38.6864C102.201 42.7247 99.0077 44 99.0077 44L86.6609 39.1115L84 31.3536Z" fill="#494949"/>
<path d="M78.1294 36.7761L76.5437 35C76.5437 35 63.8958 53.641 67.7205 55.7238C71.5452 57.8066 74.7569 56.7131 74.7569 56.7131L81 44.6897L78.1294 36.7761Z" fill="#494949"/>
<path d="M52.8642 97L135 80.5341L128.136 46L46 62.4659L52.8642 97Z" fill="white"/>
<path d="M135 81.4211L52.0609 98L45 62.5789L127.939 46L135 81.4211ZM52.9544 96.6589L133.661 80.5263L127.046 47.3411L46.3392 63.4737L52.9544 96.6589Z" fill="#D9D9D9"/>
<path d="M122.676 57.646L56 71L56.3903 72.9616L123.066 59.6076L122.676 57.646Z" fill="#D9D9D9"/>
<path d="M123.676 63.646L57 77L57.3903 78.9616L124.066 65.6076L123.676 63.646Z" fill="#D9D9D9"/>
<path d="M125.676 70.646L59 84L59.3903 85.9616L126.066 72.6076L125.676 70.646Z" fill="#D9D9D9"/>
<path d="M90.4449 67.5415L87.9873 67.988C87.8078 68.0204 87.6215 67.9867 87.4692 67.8942C87.3169 67.8018 87.2112 67.6581 87.1751 67.4948L86.0132 62.1976C85.9776 62.0342 86.0146 61.8646 86.1162 61.7261C86.2178 61.5875 86.3756 61.4913 86.5551 61.4585L89.0127 61.012C89.1922 60.9796 89.3786 61.0133 89.5308 61.1058C89.6831 61.1982 89.7888 61.3419 89.8249 61.5052L90.9868 66.8024C91.0224 66.9658 90.9854 67.1354 90.8838 67.2739C90.7822 67.4125 90.6244 67.5087 90.4449 67.5415Z" fill="#16B378"/>
<path d="M117.445 69.5415L114.987 69.988C114.808 70.0204 114.621 69.9867 114.469 69.8942C114.317 69.8018 114.211 69.6581 114.175 69.4948L113.013 64.1976C112.978 64.0342 113.015 63.8646 113.116 63.7261C113.218 63.5875 113.376 63.4913 113.555 63.4585L116.013 63.012C116.192 62.9796 116.379 63.0133 116.531 63.1058C116.683 63.1982 116.789 63.3419 116.825 63.5052L117.987 68.8024C118.022 68.9658 117.985 69.1354 117.884 69.2739C117.782 69.4125 117.624 69.5087 117.445 69.5415Z" fill="#16B378"/>
<path d="M102.445 79.5415L99.9873 79.988C99.8078 80.0204 99.6215 79.9867 99.4692 79.8942C99.3169 79.8018 99.2112 79.6581 99.1752 79.4948L98.0132 74.1976C97.9776 74.0342 98.0146 73.8646 98.1162 73.7261C98.2178 73.5875 98.3756 73.4913 98.5551 73.4585L101.013 73.012C101.192 72.9796 101.379 73.0133 101.531 73.1058C101.683 73.1982 101.789 73.3419 101.825 73.5052L102.987 78.8024C103.022 78.9658 102.985 79.1354 102.884 79.2739C102.782 79.4125 102.624 79.5087 102.445 79.5415Z" fill="#16B378"/>
<path d="M130.826 140H0.173971C0.127831 140 0.0835806 139.947 0.0509547 139.854C0.0183289 139.76 0 139.633 0 139.5C0 139.367 0.0183289 139.24 0.0509547 139.146C0.0835806 139.053 0.127831 139 0.173971 139H130.826C130.872 139 130.916 139.053 130.949 139.146C130.982 139.24 131 139.367 131 139.5C131 139.633 130.982 139.76 130.949 139.854C130.916 139.947 130.872 140 130.826 140Z" fill="#CACACA"/>
</svg>
