<svg width="17" height="17" viewBox="0 0 17 17" fill="none" xmlns="http://www.w3.org/2000/svg">
<g clip-path="url(#clip0_846_15419)">
<path d="M7.68564 15.999C6.88564 15.299 0.285645 9.79901 0.285645 5.59901C0.285645 2.89901 2.48564 0.799011 5.08564 0.799011C6.28564 0.799011 7.38564 1.29901 8.28564 1.99901C9.18564 1.19901 10.2856 0.799011 11.4856 0.799011C14.1856 0.799011 16.2856 2.99901 16.2856 5.59901C16.2856 9.79901 9.68565 15.299 8.88564 15.899C8.58564 16.299 7.98564 16.299 7.68564 15.999ZM5.08564 2.79901C3.58564 2.79901 2.28564 4.09901 2.28564 5.59901C2.28564 7.79901 5.78564 11.599 8.28564 13.799C10.3856 11.899 14.2856 7.99901 14.2856 5.59901C14.2856 3.99901 12.9856 2.79901 11.4856 2.79901C10.5856 2.79901 9.68564 3.29901 9.18564 4.09901C8.78564 4.69901 7.88564 4.69901 7.48564 4.09901C6.88564 3.29901 6.08564 2.79901 5.08564 2.79901Z" fill="#16B378"/>
</g>
<defs>
<clipPath id="clip0_846_15419">
<rect width="16" height="16" fill="white" transform="translate(0.285645 0.499023)"/>
</clipPath>
</defs>
</svg>
