<?xml version="1.0" encoding="UTF-8"?>
<svg width="16px" height="16px" viewBox="0 0 16 16" version="1.1" xmlns="http://www.w3.org/2000/svg" xmlns:xlink="http://www.w3.org/1999/xlink">
    <!-- Generator: Sketch 52.5 (67469) - http://www.bohemiancoding.com/sketch -->
    <title>Icons / UI / Help</title>
    <desc>Created with Sketch.</desc>
    <g id="Icons-/-UI-/-Help" stroke="none" stroke-width="1" fill="none" fill-rule="evenodd">
        <g id="support" fill="#000000" fill-rule="nonzero">
            <path d="M2.70926443,3.41637121 C1.64440769,4.64443222 1,6.24696137 1,8 C1,9.75303863 1.64440769,11.3555678 2.70926443,12.5836288 L4.84007129,10.4528219 C4.3135408,9.77548007 4,8.92435573 4,8 C4,7.07564427 4.3135408,6.22451993 4.84007129,5.54717807 L2.70926443,3.41637121 Z M3.41637121,2.70926443 L5.54717807,4.84007129 C6.22451993,4.3135408 7.07564427,4 8,4 C8.92435573,4 9.77548007,4.3135408 10.4528219,4.84007129 L12.5836288,2.70926443 C11.3555678,1.64440769 9.75303863,1 8,1 C6.24696137,1 4.64443222,1.64440769 3.41637121,2.70926443 Z M5.90198731,5.85562376 C5.89482001,5.86378307 5.88734204,5.87176474 5.87955339,5.87955339 C5.87176474,5.88734204 5.86378307,5.89482001 5.85562376,5.90198731 C5.3262955,6.44293932 5,7.18336446 5,8 C5,8.81663554 5.3262955,9.55706068 5.85562376,10.0980127 C5.86378307,10.10518 5.87176474,10.112658 5.87955339,10.1204466 C5.88734204,10.1282353 5.89482001,10.1362169 5.90198731,10.1443762 C6.44293932,10.6737045 7.18336446,11 8,11 C8.81663554,11 9.55706068,10.6737045 10.0980127,10.1443762 C10.10518,10.1362169 10.112658,10.1282353 10.1204466,10.1204466 C10.1282353,10.112658 10.1362169,10.10518 10.1443762,10.0980127 C10.6737045,9.55706068 11,8.81663554 11,8 C11,7.18336446 10.6737045,6.44293932 10.1443762,5.90198731 C10.1362169,5.89482001 10.1282353,5.88734204 10.1204466,5.87955339 C10.112658,5.87176474 10.10518,5.86378307 10.0980127,5.85562376 C9.55706068,5.3262955 8.81663554,5 8,5 C7.18336446,5 6.44293932,5.3262955 5.90198731,5.85562376 Z M3.41637121,13.2907356 C4.64443222,14.3555923 6.24696137,15 8,15 C9.75303863,15 11.3555678,14.3555923 12.5836288,13.2907356 L10.4528219,11.1599287 C9.77548007,11.6864592 8.92435573,12 8,12 C7.07564427,12 6.22451993,11.6864592 5.54717807,11.1599287 L3.41637121,13.2907356 Z M13.2907356,12.5836288 C14.3555923,11.3555678 15,9.75303863 15,8 C15,6.24696137 14.3555923,4.64443222 13.2907356,3.41637121 L11.1599287,5.54717807 C11.6864592,6.22451993 12,7.07564427 12,8 C12,8.92435573 11.6864592,9.77548007 11.1599287,10.4528219 L13.2907356,12.5836288 Z M8,16 C3.581722,16 0,12.418278 0,8 C0,3.581722 3.581722,0 8,0 C12.418278,0 16,3.581722 16,8 C16,12.418278 12.418278,16 8,16 Z" id="Combined-Shape"></path>
        </g>
    </g>
</svg>