<?xml version="1.0" encoding="UTF-8"?>
<svg width="16px" height="16px" viewBox="0 0 16 16" version="1.1" xmlns="http://www.w3.org/2000/svg" xmlns:xlink="http://www.w3.org/1999/xlink">
    <!-- Generator: Sketch 52.5 (67469) - http://www.bohemiancoding.com/sketch -->
    <title>Icons / UI / Home</title>
    <desc>Created with Sketch.</desc>
    <g id="Icons-/-UI-/-Home" stroke="none" stroke-width="1" fill="none" fill-rule="evenodd">
        <path d="M8,2.08309519 L1.47182532,6 L8,9.91690481 L14.5281747,6 L8,2.08309519 Z M8.25724788,1.07125354 L15.7572479,5.57125354 C16.0809174,5.76545523 16.0809174,6.23454477 15.7572479,6.42874646 L8.25724788,10.9287465 C8.09890668,11.0237512 7.90109332,11.0237512 7.74275212,10.9287465 L0.242752122,6.42874646 C-0.0809173741,6.23454477 -0.0809173741,5.76545523 0.242752122,5.57125354 L7.74275212,1.07125354 C7.90109332,0.976248821 8.09890668,0.976248821 8.25724788,1.07125354 Z M14.5281747,10 L13.7427521,9.52874646 C13.505962,9.38667238 13.4291795,9.07954226 13.5712535,8.84275212 C13.7133276,8.60596199 14.0204577,8.52917946 14.2572479,8.67125354 L15.7572479,9.57125354 C16.0809174,9.76545523 16.0809174,10.2345448 15.7572479,10.4287465 L8.25724788,14.9287465 C8.09890668,15.0237512 7.90109332,15.0237512 7.74275212,14.9287465 L0.242752122,10.4287465 C-0.0809173741,10.2345448 -0.0809173741,9.76545523 0.242752122,9.57125354 L1.74275212,8.67125354 C1.97954226,8.52917946 2.28667238,8.60596199 2.42874646,8.84275212 C2.57082054,9.07954226 2.49403801,9.38667238 2.25724788,9.52874646 L1.47182532,10 L8,13.9169048 L14.5281747,10 Z" id="Combined-Shape" fill="#000000" fill-rule="nonzero"></path>
    </g>
</svg>