<?xml version="1.0" encoding="UTF-8"?>
<svg width="16px" height="16px" viewBox="0 0 16 16" version="1.1" xmlns="http://www.w3.org/2000/svg" xmlns:xlink="http://www.w3.org/1999/xlink">
    <!-- Generator: Sketch 52.5 (67469) - http://www.bohemiancoding.com/sketch -->
    <title>Icons / UI / Idea</title>
    <desc>Created with Sketch.</desc>
    <g id="Icons-/-UI-/-Idea" stroke="none" stroke-width="1" fill="none" fill-rule="evenodd">
        <path d="M7,0.5 C7,0.223857625 7.22385763,0 7.5,0 C7.77614237,0 8,0.223857625 8,0.5 L8,2.5 C8,2.77614237 7.77614237,3 7.5,3 C7.22385763,3 7,2.77614237 7,2.5 L7,0.5 Z M1.48944661,3.19655339 C1.29418446,3.00129124 1.29418446,2.68470876 1.48944661,2.48944661 C1.68470876,2.29418446 2.00129124,2.29418446 2.19655339,2.48944661 L3.61055339,3.90344661 C3.80581554,4.09870876 3.80581554,4.41529124 3.61055339,4.61055339 C3.41529124,4.80581554 3.09870876,4.80581554 2.90344661,4.61055339 L1.48944661,3.19655339 Z M12.8034466,2.48944661 C12.9987088,2.29418446 13.3152912,2.29418446 13.5105534,2.48944661 C13.7058155,2.68470876 13.7058155,3.00129124 13.5105534,3.19655339 L12.0965534,4.61055339 C11.9012912,4.80581554 11.5847088,4.80581554 11.3894466,4.61055339 C11.1941845,4.41529124 11.1941845,4.09870876 11.3894466,3.90344661 L12.8034466,2.48944661 Z M10,12.2233666 L10,14.5 C10,14.7761424 9.77614237,15 9.5,15 L5.5,15 C5.22385763,15 5,14.7761424 5,14.5 L5,12.2226732 C3.28437146,11.0778404 2.55669756,8.89580158 3.27389413,6.93507707 C4.02500933,4.88162331 6.14349,3.66526232 8.29556692,4.05179994 C10.4474319,4.43829949 12.0101136,6.31552478 11.9999973,8.50173836 C11.9964986,10.0045569 11.2407919,11.3984727 10,12.2233666 Z M9,11.945 C9,11.7659008 9.09579356,11.6004805 9.25113128,11.5113361 C10.3305456,10.8918876 10.9972824,9.74343346 11.0000012,8.49890769 C11.0081157,6.7970124 9.79262198,5.33669024 8.11878438,5.03604988 C6.44494678,4.73540951 4.79723959,5.68146805 4.21303888,7.27859875 C3.62883816,8.87572945 4.27723455,10.66166 5.75000569,11.5119906 C5.90470302,11.6013078 6,11.7663696 6,11.945 L6,14 L9,14 L9,11.945 Z M13.5,9 C13.2238576,9 13,8.77614237 13,8.5 C13,8.22385763 13.2238576,8 13.5,8 L14.5,8 C14.7761424,8 15,8.22385763 15,8.5 C15,8.77614237 14.7761424,9 14.5,9 L13.5,9 Z M0.5,9 C0.223857625,9 0,8.77614237 0,8.5 C0,8.22385763 0.223857625,8 0.5,8 L1.5,8 C1.77614237,8 2,8.22385763 2,8.5 C2,8.77614237 1.77614237,9 1.5,9 L0.5,9 Z" id="Combined-Shape" fill="#000000" fill-rule="nonzero"></path>
    </g>
</svg>