<?xml version="1.0" encoding="UTF-8"?>
<svg width="16px" height="16px" viewBox="0 0 16 16" version="1.1" xmlns="http://www.w3.org/2000/svg" xmlns:xlink="http://www.w3.org/1999/xlink">
    <!-- Generator: Sketch 52.5 (67469) - http://www.bohemiancoding.com/sketch -->
    <title>Icons / UI / Import</title>
    <desc>Created with Sketch.</desc>
    <g id="Icons-/-UI-/-Import" stroke="none" stroke-width="1" fill="none" fill-rule="evenodd">
        <path d="M11.5,7 C11.9295794,7 12.1591684,7.50596086 11.8762883,7.8292523 L8.37628835,11.8292523 C8.1770827,12.0569159 7.8229173,12.0569159 7.62371165,11.8292523 L4.12371165,7.8292523 C3.84083164,7.50596086 4.0704206,7 4.5,7 L6,7 L6,1.5 C6,1.22385763 6.22385763,1 6.5,1 L9.5,1 C9.77614237,1 10,1.22385763 10,1.5 L10,7 L11.5,7 Z M8,10.7407039 L10.3981159,8 L9.5,8 C9.22385763,8 9,7.77614237 9,7.5 L9,2 L7,2 L7,7.5 C7,7.77614237 6.77614237,8 6.5,8 L5.60188411,8 L8,10.7407039 Z M12.5,2 C12.2238576,2 12,1.77614237 12,1.5 C12,1.22385763 12.2238576,1 12.5,1 L14.5,1 C15.3281424,1 16,1.67185763 16,2.5 L16,13.5 C16,14.3281424 15.3281424,15 14.5,15 L1.5,15 C0.671857625,15 0,14.3281424 0,13.5 L0,2.5 C0,1.67185763 0.671857625,1 1.5,1 L3.5,1 C3.77614237,1 4,1.22385763 4,1.5 C4,1.77614237 3.77614237,2 3.5,2 L1.5,2 C1.22414237,2 1,2.22414237 1,2.5 L1,13.5 C1,13.7758576 1.22414237,14 1.5,14 L14.5,14 C14.7758576,14 15,13.7758576 15,13.5 L15,2.5 C15,2.22414237 14.7758576,2 14.5,2 L12.5,2 Z" id="Combined-Shape" fill="#000000" fill-rule="nonzero"></path>
    </g>
</svg>