<svg width="20" height="20" viewBox="0 0 20 20" fill="none" xmlns="http://www.w3.org/2000/svg">
<path d="M9.59529 1.77088C9.84697 1.63106 10.153 1.63106 10.4047 1.77088L17.9047 5.93755C18.1692 6.08453 18.3333 6.36338 18.3333 6.66602C18.3333 6.96866 18.1692 7.24751 17.9047 7.39448L10.4047 11.5611C10.153 11.701 9.84697 11.701 9.59529 11.5611L2.09529 7.39448C1.83073 7.24751 1.66666 6.96866 1.66666 6.66602C1.66666 6.36338 1.83073 6.08453 2.09529 5.93755L9.59529 1.77088ZM4.21593 6.66602L9.99999 9.87938L15.784 6.66602L9.99999 3.45265L4.21593 6.66602Z" fill="#929299"/>
<path d="M1.77152 9.59465C1.99504 9.19233 2.50237 9.04737 2.90469 9.27088L9.99999 13.2127L17.0953 9.27088C17.4976 9.04737 18.0049 9.19233 18.2285 9.59465C18.452 9.99697 18.307 10.5043 17.9047 10.7278L10.4047 14.8945C10.153 15.0343 9.84697 15.0343 9.59529 14.8945L2.09529 10.7278C1.69297 10.5043 1.54801 9.99697 1.77152 9.59465Z" fill="#929299"/>
<path d="M1.77152 12.928C1.99504 12.5257 2.50237 12.3807 2.90469 12.6042L9.99999 16.5461L17.0953 12.6042C17.4976 12.3807 18.0049 12.5257 18.2285 12.928C18.452 13.3303 18.307 13.8376 17.9047 14.0611L10.4047 18.2278C10.153 18.3676 9.84697 18.3676 9.59529 18.2278L2.09529 14.0611C1.69297 13.8376 1.54801 13.3303 1.77152 12.928Z" fill="#929299"/>
</svg>
