<svg width="16" height="16" viewBox="0 0 16 16" fill="none" xmlns="http://www.w3.org/2000/svg">
<path d="M11.5 8.5V14.5C11.5 14.7652 11.3946 15.0196 11.2071 15.2071C11.0196 15.3946 10.7652 15.5 10.5 15.5H2.5C2.23478 15.5 1.98043 15.3946 1.79289 15.2071C1.60536 15.0196 1.5 14.7652 1.5 14.5V2.5C1.5 2.23478 1.60536 1.98043 1.79289 1.79289C1.98043 1.60536 2.23478 1.5 2.5 1.5H4.5" stroke="#262633" stroke-linecap="round" stroke-linejoin="round"/>
<path d="M14.5 6.5H9.5L6.5 8.5V1.5C6.5 1.23478 6.60536 0.98043 6.79289 0.792893C6.98043 0.605357 7.23478 0.5 7.5 0.5H14.5C14.7652 0.5 15.0196 0.605357 15.2071 0.792893C15.3946 0.98043 15.5 1.23478 15.5 1.5V5.5C15.5 5.76522 15.3946 6.01957 15.2071 6.20711C15.0196 6.39464 14.7652 6.5 14.5 6.5Z" stroke="#262633" stroke-linecap="round" stroke-linejoin="round"/>
</svg>
