<?xml version="1.0" encoding="UTF-8"?>
<svg width="16px" height="16px" viewBox="0 0 16 16" version="1.1" xmlns="http://www.w3.org/2000/svg" xmlns:xlink="http://www.w3.org/1999/xlink">
    <!-- Generator: Sketch 52.5 (67469) - http://www.bohemiancoding.com/sketch -->
    <title>Icons / UI / Notification</title>
    <desc>Created with Sketch.</desc>
    <g id="Icons-/-UI-/-Notification" stroke="none" stroke-width="1" fill="none" fill-rule="evenodd">
        <path d="M1.5,11 C2.32885763,11 3,10.3288576 3,9.5 L3,5 C3,2.23885763 5.23885763,0 8,0 C10.7611424,0 13,2.23885763 13,5 L13,9.5 C13,10.2203324 14.0489828,11 15,11 L15.5,11 C15.7761424,11 16,11.2238576 16,11.5 C16,11.7761424 15.7761424,12 15.5,12 L0.5,12 C0.223857625,12 0,11.7761424 0,11.5 C0,11.2238576 0.223857625,11 0.5,11 L1.50000026,11 Z M3.50044894,11 L12.6745689,11 C12.2633885,10.5779028 12,10.0555718 12,9.5 L12,5 C12,2.79114237 10.2088576,1 8,1 C5.79114237,1 4,2.79114237 4,5 L4,9.5 C4,10.0628955 3.81415391,10.5822245 3.50044894,11 Z M9.5,13.5 C9.5,13.2238576 9.72385763,13 10,13 C10.2761424,13 10.5,13.2238576 10.5,13.5 C10.5,14.8811424 9.38114237,16 8,16 C6.61885763,16 5.5,14.8811424 5.5,13.5 C5.5,13.2238576 5.72385763,13 6,13 C6.27614237,13 6.5,13.2238576 6.5,13.5 C6.5,14.3288576 7.17114237,15 8,15 C8.82885763,15 9.5,14.3288576 9.5,13.5 Z" id="Combined-Shape" fill="#000000" fill-rule="nonzero"></path>
    </g>
</svg>