<?xml version="1.0" encoding="UTF-8"?>
<svg width="16px" height="16px" viewBox="0 0 16 16" version="1.1" xmlns="http://www.w3.org/2000/svg" xmlns:xlink="http://www.w3.org/1999/xlink">
    <!-- Generator: Sketch 52.5 (67469) - http://www.bohemiancoding.com/sketch -->
    <title>Icons / UI / Offline</title>
    <desc>Created with Sketch.</desc>
    <g id="Icons-/-UI-/-Offline" stroke="none" stroke-width="1" fill="none" fill-rule="evenodd">
        <path d="M9.17532409,7.11756913 L11.5595147,4.7333785 C8.27441421,3.31968014 4.31882745,3.95408956 1.6355,6.63660677 C1.44020837,6.83183943 1.12362589,6.83179163 0.928393227,6.6365 C0.733160568,6.44120837 0.733208372,6.12462589 0.9285,5.92939323 C4.00859229,2.85023099 8.59736847,2.19977745 12.3148606,3.97803261 L14.1464466,2.14644661 C14.3417088,1.95118446 14.6582912,1.95118446 14.8535534,2.14644661 C15.0488155,2.34170876 15.0488155,2.65829124 14.8535534,2.85355339 L13.230408,4.47669875 C13.8842799,4.87874804 14.5019152,5.36297953 15.0685,5.92939323 C15.2637916,6.12462589 15.2638394,6.44120837 15.0686068,6.6365 C14.8733741,6.83179163 14.5567916,6.83183943 14.3615,6.63660677 C13.7923739,6.06765248 13.1660149,5.59083274 12.5009592,5.20614756 L10.2632622,7.44384455 C10.9822062,7.73644526 11.6558952,8.17426453 12.2394091,8.75730237 C12.4347509,8.95248482 12.4348801,9.26906728 12.2396976,9.46440909 C12.0445152,9.6597509 11.7279327,9.65988008 11.5325909,9.46469763 C10.9383464,8.87093787 10.2318751,8.4579086 9.48149696,8.22560982 L2.85355339,14.8535534 C2.65829124,15.0488155 2.34170876,15.0488155 2.14644661,14.8535534 C1.95118446,14.6582912 1.95118446,14.3417088 2.14644661,14.1464466 L8.28315963,8.00973359 C6.91105115,7.9319682 5.51300593,8.41695622 4.46440909,9.46469763 C4.26906728,9.65988008 3.95248482,9.6597509 3.75730237,9.46440909 C3.56211992,9.26906728 3.5622491,8.95248482 3.75759091,8.75730237 C5.2299278,7.28616659 7.27637993,6.73958884 9.17532409,7.11756913 Z M8.66666656,12.2536779 C8.46084224,12.0695829 8.44322712,11.7534909 8.6273221,11.5476666 C8.81141707,11.3418422 9.12750911,11.3242271 9.33333344,11.5083221 C10.0182183,12.1209021 10.1975807,13.1213416 9.76816347,13.9336977 C9.33874622,14.7460538 8.41104632,15.1612923 7.51913122,14.9403646 C6.62721613,14.7194368 6.00059203,13.9191917 6.0000001,13.0003221 C5.99982221,12.7241798 6.22353559,12.500178 6.4996779,12.5000001 C6.77582022,12.4998222 6.99982201,12.7235356 6.9999999,12.9996779 C7.00029586,13.4591127 7.31360791,13.8592353 7.75956546,13.9696991 C8.205523,14.080163 8.66937295,13.8725438 8.88408158,13.4663657 C9.0987902,13.0601877 9.00910901,12.5599679 8.66666656,12.2536779 Z" id="Combined-Shape" fill="#000000" fill-rule="nonzero"></path>
    </g>
</svg>