<?xml version="1.0" encoding="UTF-8"?>
<svg width="16px" height="16px" viewBox="0 0 16 16" version="1.1" xmlns="http://www.w3.org/2000/svg" xmlns:xlink="http://www.w3.org/1999/xlink">
    <!-- Generator: Sketch 52.5 (67469) - http://www.bohemiancoding.com/sketch -->
    <title>Icons / UI / Page</title>
    <desc>Created with Sketch.</desc>
    <g id="Icons-/-UI-/-Page" stroke="none" stroke-width="1" fill="none" fill-rule="evenodd">
        <path d="M2,1 L2,15 L14,15 L14,1 L2,1 Z M1.5,0 L14.5,0 C14.7761424,0 15,0.223857625 15,0.5 L15,15.5 C15,15.7761424 14.7761424,16 14.5,16 L1.5,16 C1.22385763,16 1,15.7761424 1,15.5 L1,0.5 C1,0.223857625 1.22385763,0 1.5,0 Z M9.5,4 C9.22385763,4 9,3.77614237 9,3.5 C9,3.22385763 9.22385763,3 9.5,3 L11.5,3 C11.7761424,3 12,3.22385763 12,3.5 C12,3.77614237 11.7761424,4 11.5,4 L9.5,4 Z M9.5,7 C9.22385763,7 9,6.77614237 9,6.5 C9,6.22385763 9.22385763,6 9.5,6 L11.5,6 C11.7761424,6 12,6.22385763 12,6.5 C12,6.77614237 11.7761424,7 11.5,7 L9.5,7 Z M4.5,10 C4.22385763,10 4,9.77614237 4,9.5 C4,9.22385763 4.22385763,9 4.5,9 L11.5,9 C11.7761424,9 12,9.22385763 12,9.5 C12,9.77614237 11.7761424,10 11.5,10 L4.5,10 Z M4.5,13 C4.22385763,13 4,12.7761424 4,12.5 C4,12.2238576 4.22385763,12 4.5,12 L11.5,12 C11.7761424,12 12,12.2238576 12,12.5 C12,12.7761424 11.7761424,13 11.5,13 L4.5,13 Z M5,4 L5,6 L7,6 L7,4 L5,4 Z M4.5,3 L7.5,3 C7.77614237,3 8,3.22385763 8,3.5 L8,6.5 C8,6.77614237 7.77614237,7 7.5,7 L4.5,7 C4.22385763,7 4,6.77614237 4,6.5 L4,3.5 C4,3.22385763 4.22385763,3 4.5,3 Z" id="Combined-Shape" fill="#000000" fill-rule="nonzero"></path>
    </g>
</svg>