<?xml version="1.0" encoding="UTF-8"?>
<svg width="16px" height="16px" viewBox="0 0 16 16" version="1.1" xmlns="http://www.w3.org/2000/svg" xmlns:xlink="http://www.w3.org/1999/xlink">
    <!-- Generator: Sketch 52.5 (67469) - http://www.bohemiancoding.com/sketch -->
    <title>Icons / UI / PanelLeft</title>
    <desc>Created with Sketch.</desc>
    <g id="Icons-/-UI-/-PanelLeft" stroke="none" stroke-width="1" fill="none" fill-rule="evenodd">
        <path d="M3.70710678,8.5 L5.85355339,10.6464466 C6.04881554,10.8417088 6.04881554,11.1582912 5.85355339,11.3535534 C5.65829124,11.5488155 5.34170876,11.5488155 5.14644661,11.3535534 L2.14644661,8.35355339 C1.95118446,8.15829124 1.95118446,7.84170876 2.14644661,7.64644661 L5.14644661,4.64644661 C5.34170876,4.45118446 5.65829124,4.45118446 5.85355339,4.64644661 C6.04881554,4.84170876 6.04881554,5.15829124 5.85355339,5.35355339 L3.70710678,7.5 L8.5,7.5 C8.77614237,7.5 9,7.72385763 9,8 C9,8.27614237 8.77614237,8.5 8.5,8.5 L3.70710678,8.5 Z M10,13.5 L10,2.5 C10,2.22385763 10.2238576,2 10.5,2 L13.5,2 C13.7761424,2 14,2.22385763 14,2.5 L14,13.5 C14,13.7761424 13.7761424,14 13.5,14 L10.5,14 C10.2238576,14 10,13.7761424 10,13.5 Z" id="Combined-Shape" fill="#000000" fill-rule="nonzero"></path>
    </g>
</svg>