<svg width="20" height="20" viewBox="0 0 20 20" fill="none" xmlns="http://www.w3.org/2000/svg">
<path d="M4.99992 8.83214V3.33268C4.53968 3.33268 4.16659 2.95959 4.16659 2.49935C4.16659 2.03911 4.53968 1.66602 4.99992 1.66602H14.9999C15.4602 1.66602 15.8333 2.03911 15.8333 2.49935C15.8333 2.95959 15.4602 3.33268 14.9999 3.33268V8.83214C15.7764 9.6828 16.1934 10.5278 16.4155 11.1942C16.5372 11.5593 16.5999 11.869 16.6322 12.095C16.6483 12.2081 16.6569 12.3006 16.6615 12.369C16.6638 12.4033 16.665 12.4315 16.6657 12.4534L16.6663 12.4728L16.6664 12.4813L16.6666 12.4916L16.6666 12.4958L16.6666 12.4976L16.6666 12.4985C16.6666 12.4985 16.6628 12.3891 16.6666 12.4993C16.6666 12.9596 16.2935 13.3327 15.8333 13.3327H10.8333V17.4993C10.8333 17.9596 10.4602 18.3327 9.99992 18.3327C9.53968 18.3327 9.16658 17.9596 9.16658 17.4993V13.3327H4.16659C3.70635 13.3327 3.33325 12.9596 3.33325 12.4993C3.33325 12.0827 3.33325 12.4985 3.33325 12.4985L3.33325 12.4976L3.33326 12.4958L3.33328 12.4916L3.33341 12.4813C3.33353 12.4736 3.33374 12.4643 3.33409 12.4534C3.3348 12.4315 3.33607 12.4033 3.33835 12.369C3.34291 12.3006 3.35151 12.2081 3.36767 12.095C3.39997 11.869 3.46265 11.5593 3.58435 11.1942C3.80648 10.5278 4.22345 9.6828 4.99992 8.83214ZM13.3333 3.33268H6.66659V9.16602C6.66659 9.38703 6.57879 9.59899 6.42251 9.75527C5.71666 10.4611 5.36306 11.1539 5.18432 11.666H14.8155C14.6368 11.1539 14.2832 10.4611 13.5773 9.75527C13.421 9.59899 13.3333 9.38703 13.3333 9.16602V3.33268Z" fill="#929299"/>
</svg>
