<?xml version="1.0" encoding="UTF-8"?>
<svg width="16px" height="16px" viewBox="0 0 16 16" version="1.1" xmlns="http://www.w3.org/2000/svg" xmlns:xlink="http://www.w3.org/1999/xlink">
    <!-- Generator: Sketch 52.5 (67469) - http://www.bohemiancoding.com/sketch -->
    <title>Icons / UI / PinBig</title>
    <desc>Created with Sketch.</desc>
    <g id="Icons-/-UI-/-PinBig" stroke="none" stroke-width="1" fill="none" fill-rule="evenodd">
        <path d="M11.8297281,-7.60280727e-13 L4.19297491,-7.57616192e-13 C3.62728948,-7.531753e-13 3.20302541,0.41025641 3.20302541,0.957264957 C3.20302541,1.5042735 3.62728948,1.91452991 4.19297491,1.91452991 L5.04150304,1.91452991 L2.84947202,9.09401709 L1.43525846,9.09401709 C0.869573036,9.09401709 0.445308967,9.5042735 0.445308967,10.0512821 C0.445308967,10.5982906 0.869573036,11.008547 1.43525846,11.008547 L3.5565788,11.008547 L6.95069135,11.008547 L7.02140203,16 L9.00130102,16 L9.00130102,10.9401709 L14.6581553,10.9401709 C15.3652621,10.9401709 15.6481048,10.2564103 15.6481048,9.98290598 C15.6481048,9.43589744 15.2238407,9.02564103 14.6581553,9.02564103 L13.2439417,9.02564103 L11.1226214,1.91452991 L11.9711495,1.91452991 C12.8196776,1.91452991 12.961099,1.23076923 12.961099,0.957264957 C12.8903883,0.478632479 12.3954136,-7.66497976e-13 11.8297281,-7.60280727e-13 Z M11.0519107,9.09401709 L4.97079237,9.09401709 L7.09211271,1.98290598 L8.93059034,1.98290598 L11.0519107,9.09401709 Z" id="Shape" fill="#000000" fill-rule="nonzero"></path>
    </g>
</svg>