<svg width="16" height="16" viewBox="0 0 16 16" fill="none" xmlns="http://www.w3.org/2000/svg">
<path d="M3.5 7.5V3.5H7.5" stroke="#929299" stroke-linecap="round" stroke-linejoin="round"/>
<path d="M3.5 3.5L7.5 7.5" stroke="#929299" stroke-linecap="round" stroke-linejoin="round"/>
<path d="M2 0.5H14C14.3978 0.5 14.7794 0.658035 15.0607 0.93934C15.342 1.22064 15.5 1.60218 15.5 2V14C15.5 14.3978 15.342 14.7794 15.0607 15.0607C14.7794 15.342 14.3978 15.5 14 15.5H2C1.60218 15.5 1.22064 15.342 0.93934 15.0607C0.658035 14.7794 0.5 14.3978 0.5 14V2C0.5 1.60218 0.658035 1.22064 0.93934 0.93934C1.22064 0.658035 1.60218 0.5 2 0.5V0.5Z" stroke="#929299" stroke-linecap="round" stroke-linejoin="round"/>
<path d="M12.5 9H9.5C9.22386 9 9 9.22386 9 9.5V12.5C9 12.7761 9.22386 13 9.5 13H12.5C12.7761 13 13 12.7761 13 12.5V9.5C13 9.22386 12.7761 9 12.5 9Z" fill="#929299"/>
</svg>
