<?xml version="1.0" encoding="UTF-8"?>
<svg width="16px" height="14px" viewBox="0 0 16 14" version="1.1" xmlns="http://www.w3.org/2000/svg" xmlns:xlink="http://www.w3.org/1999/xlink">
    <!-- Generator: Sketch 55 (78076) - https://sketchapp.com -->
    <title>1</title>
    <desc>Created with Sketch.</desc>
    <g id="Onboarding-&amp;-Panel" stroke="none" stroke-width="1" fill="none" fill-rule="evenodd">
        <g id="Main-List-Copy" transform="translate(-482.000000, -145.000000)">
            <g id="1" transform="translate(482.000000, 144.000000)">
                <rect id="Rectangle" x="0" y="0" width="16" height="16"></rect>
                <g id="Group" fill="#16B378" fill-rule="nonzero">
                    <path d="M15.275,10.293 L13.087,9.668 C12.7264781,9.5649178 12.4539204,9.2688105 12.381,8.901 L12.247,8.226 C13.3141203,7.73830615 13.9990021,6.6732817 14,5.5 L14,4.126 C14.0251976,2.47300325 12.7425055,1.09415337 11.092,1 C9.8793709,0.963410822 8.7640655,1.66077269 8.266,2.767 C8.7430478,3.4612785 8.99891984,4.28362474 9,5.126 L9,6.5 C8.99820774,6.86377057 8.94604558,7.22554038 8.845,7.575 C9.10423253,7.84694226 9.41223953,8.06777106 9.753,8.226 L9.619,8.9 C9.54607957,9.2678105 9.27352187,9.5639178 8.913,9.667 L8.07,9.908 L9.55,10.331 C10.4069643,10.5785536 10.9977059,11.3619993 11,12.254 L11,14.5 C10.9983428,14.6707198 10.9672189,14.8398715 10.908,15 L15.5,15 C15.7761424,15 16,14.7761424 16,14.5 L16,11.254 C15.9998018,10.8077918 15.7040043,10.4157072 15.275,10.293 Z" id="Path"></path>
                    <path d="M9.275,11.293 L7.087,10.668 C6.72620232,10.5647539 6.453583,10.2681935 6.381,9.9 L6.247,9.225 C7.31379141,8.73745693 7.99861125,7.67291954 8,6.5 L8,5.126 C8.02519756,3.47300325 6.74250547,2.09415337 5.092,2 C4.2805327,1.9751032 3.4936202,2.28014827 2.91095323,2.84547846 C2.32828625,3.41080864 1.99961816,4.18815095 2,5 L2,6.5 C2.00099791,7.6732817 2.68587974,8.73830615 3.753,9.226 L3.619,9.9 C3.54607957,10.2678105 3.27352187,10.5639178 2.913,10.667 L0.725,11.292 C0.295639262,11.4148091 -0.000248177157,11.8074212 0,12.254 L0,14.5 C3.38176581e-17,14.7761424 0.223857625,15 0.5,15 L9.5,15 C9.77614237,15 10,14.7761424 10,14.5 L10,12.254 C9.99980177,11.8077918 9.70400431,11.4157072 9.275,11.293 Z" id="Path"></path>
                </g>
            </g>
        </g>
    </g>
</svg>