<?xml version="1.0" encoding="UTF-8"?>
<svg width="16px" height="16px" viewBox="0 0 16 16" version="1.1" xmlns="http://www.w3.org/2000/svg" xmlns:xlink="http://www.w3.org/1999/xlink">
    <!-- Generator: Sketch 52.5 (67469) - http://www.bohemiancoding.com/sketch -->
    <title>Icons / UI / Repl</title>
    <desc>Created with Sketch.</desc>
    <g id="Icons-/-UI-/-Repl" stroke="none" stroke-width="1" fill="none" fill-rule="evenodd">
        <g id="shuffle-98" fill="#000000" fill-rule="nonzero">
            <path d="M14.2928932,12 L12.1464466,9.85355339 C11.9511845,9.65829124 11.9511845,9.34170876 12.1464466,9.14644661 C12.3417088,8.95118446 12.6582912,8.95118446 12.8535534,9.14644661 L15.8535534,12.1464466 C16.0488155,12.3417088 16.0488155,12.6582912 15.8535534,12.8535534 L12.8535534,15.8535534 C12.6582912,16.0488155 12.3417088,16.0488155 12.1464466,15.8535534 C11.9511845,15.6582912 11.9511845,15.3417088 12.1464466,15.1464466 L14.2928932,13 L12.297,13 C11.0114014,13 9.78731046,12.4500896 8.93338443,11.4892821 L7.90438443,10.3322821 C7.72087009,10.1259399 7.7393757,9.80989878 7.94571788,9.62638443 C8.15206006,9.44287009 8.46810122,9.4613757 8.65161557,9.66771788 L9.6807288,10.8248452 C10.3450255,11.5722884 11.297104,12 12.297,12 L14.2928932,12 Z M0.5,4 C0.223857625,4 -5.19584376e-14,3.77614237 -5.19584376e-14,3.5 C-5.19584376e-14,3.22385763 0.223857625,3 0.5,3 L0.704,3 C1.98959855,3 3.21368954,3.54991042 4.06777595,4.5108983 L5.09577595,5.6678983 C5.27919065,5.87432905 5.26053246,6.19036124 5.0541017,6.37377595 C4.84767095,6.55719065 4.53163876,6.53853246 4.34822405,6.3321017 L3.3202712,5.17515476 C2.65597452,4.42771159 1.70389599,4 0.704,4 L0.5,4 Z M14.2918932,2.999 L12.1464466,0.853553391 C11.9511845,0.658291245 11.9511845,0.341708755 12.1464466,0.146446609 C12.3417088,-0.0488155365 12.6582912,-0.0488155365 12.8535534,0.146446609 L15.8341986,3.12709183 C15.931189,3.21430517 15.9938804,3.33891278 15.9995759,3.47821774 C15.9998371,3.48537783 15.9999928,3.49243981 15.9999998,3.49950192 C15.9999884,3.51106113 15.9995848,3.52252849 15.9988015,3.53389143 C15.9909944,3.65033256 15.9425598,3.76454702 15.8535534,3.85355339 L12.8535534,6.85355339 C12.6582912,7.04881554 12.3417088,7.04881554 12.1464466,6.85355339 C11.9511845,6.65829124 11.9511845,6.34170876 12.1464466,6.14644661 L14.2938932,3.999 L12.297,3.999 C11.297104,3.999 10.3450255,4.42671159 9.68071445,5.1741709 L4.0677288,11.4891548 C3.21368954,12.4500896 1.98959855,13 0.704,13 L0.5,13 C0.223857625,13 -2.26485497e-13,12.7761424 -2.26485497e-13,12.5 C-2.26485497e-13,12.2238576 0.223857625,12 0.5,12 L0.704,12 C1.70389599,12 2.65597452,11.5722884 3.32028555,10.8248291 L8.9332712,4.50984524 C9.78731046,3.54891042 11.0114014,2.999 12.297,2.999 L14.2918932,2.999 Z" id="Combined-Shape"></path>
        </g>
    </g>
</svg>