<svg width="16" height="16" viewBox="0 0 16 16" fill="none" xmlns="http://www.w3.org/2000/svg">
<path d="M3.12317 3.0033L3.08728 6.91103L6.81336 5.66436" stroke="#16B378" stroke-linecap="round" stroke-linejoin="round"/>
<path d="M13.6158 10.0799C14.0364 8.68478 13.8855 7.17974 13.1965 5.89586C12.5074 4.61198 11.3365 3.65443 9.94137 3.23385C8.54627 2.81327 7.04123 2.96411 5.75735 3.6532C4.47347 4.3423 3.51592 5.51318 3.09534 6.90828" stroke="#16B378" stroke-linecap="round" stroke-linejoin="round"/>
<path d="M6.42943 13.5876C5.8488 13.3683 5.30962 13.052 4.83484 12.6522" stroke="#16B378" stroke-linecap="round" stroke-linejoin="round"/>
<path d="M10.0398 13.6816C9.49953 13.8534 8.93595 13.9407 8.36903 13.9402H8.24304" stroke="#16B378" stroke-linecap="round" stroke-linejoin="round"/>
<path d="M12.8868 11.5728C12.5482 12.0608 12.1332 12.4912 11.6577 12.8473" stroke="#16B378" stroke-linecap="round" stroke-linejoin="round"/>
<path d="M3.66215 11.2804C3.35148 10.7666 3.12776 10.2051 3 9.61841" stroke="#16B378" stroke-linecap="round" stroke-linejoin="round"/>
</svg>
