<svg width="16" height="16" viewBox="0 0 16 16" fill="none" xmlns="http://www.w3.org/2000/svg">
<g clip-path="url(#clip0_1061_7593)">
<path fill-rule="evenodd" clip-rule="evenodd" d="M2.10526 4.21094H13.8947C15.0574 4.21094 16 5.1535 16 6.3162V9.68462C16 10.8473 15.0574 11.7899 13.8947 11.7899H2.10526C0.942558 11.7899 0 10.8473 0 9.68462V6.3162C0 5.1535 0.942558 4.21094 2.10526 4.21094ZM2.10526 5.4741C1.64018 5.4741 1.26316 5.85112 1.26316 6.3162V9.68462C1.26316 10.1497 1.64018 10.5267 2.10526 10.5267H13.8947C14.3598 10.5267 14.7368 10.1497 14.7368 9.68462V6.3162C14.7368 5.85112 14.3598 5.4741 13.8947 5.4741H2.10526Z" fill="black"/>
<path fill-rule="evenodd" clip-rule="evenodd" d="M1.26316 16.0001H0V15.158L4.30659e-05 15.1444C0.00736708 13.9879 0.9471 13.0527 2.10526 13.0527H3.57895V14.3159H2.10526C1.64018 14.3159 1.26316 14.6929 1.26316 15.158V16.0001ZM9.47368 14.3159H6.52632V13.0527H9.47368V14.3159ZM14.7368 16.0001V15.158C14.7368 14.6929 14.3598 14.3159 13.8947 14.3159H12.4211V13.0527H13.8947C15.0574 13.0527 16 13.9953 16 15.158V16.0001H14.7368Z" fill="black"/>
<path fill-rule="evenodd" clip-rule="evenodd" d="M14.7368 -0.000102818H16V0.842002L16 0.855618C15.9926 2.01206 15.0529 2.94727 13.8947 2.94727H12.4211V1.68411L13.8947 1.68411C14.3598 1.68411 14.7368 1.30708 14.7368 0.842002V-0.000102818ZM6.52632 1.68411L9.47368 1.68411V2.94727L6.52632 2.94727V1.68411ZM1.26316 -0.000102818V0.842002C1.26316 1.30708 1.64018 1.68411 2.10526 1.68411L3.57895 1.68411V2.94727L2.10526 2.94727C0.942558 2.94727 -1.19209e-07 2.00471 -1.19209e-07 0.842002V-0.000102818H1.26316Z" fill="black"/>
</g>
<defs>
<clipPath id="clip0_1061_7593">
<rect width="16" height="16" fill="white"/>
</clipPath>
</defs>
</svg>
