<?xml version="1.0" encoding="UTF-8"?>
<svg width="16px" height="16px" viewBox="0 0 16 16" version="1.1" xmlns="http://www.w3.org/2000/svg" xmlns:xlink="http://www.w3.org/1999/xlink">
    <!-- Generator: Sketch 52.5 (67469) - http://www.bohemiancoding.com/sketch -->
    <title>Icons / UI / Settings</title>
    <desc>Created with Sketch.</desc>
    <g id="Icons-/-UI-/-Settings" stroke="none" stroke-width="1" fill="none" fill-rule="evenodd">
        <path d="M3.9804719,3.27336512 C4.81414465,2.57840684 5.85662291,2.12545674 7,2.02242151 L7,0.5 C7,0.223857625 7.22385763,0 7.5,0 C7.77614237,0 8,0.223857625 8,0.5 L8,2.02242151 C9.14337709,2.12545674 10.1858554,2.57840684 11.0195281,3.27336512 L12.0964466,2.19644661 C12.2917088,2.00118446 12.6082912,2.00118446 12.8035534,2.19644661 C12.9988155,2.39170876 12.9988155,2.70829124 12.8035534,2.90355339 L11.7266349,3.9804719 C12.4215932,4.81414465 12.8745433,5.85662291 12.9775785,7 L14.5,7 C14.7761424,7 15,7.22385763 15,7.5 C15,7.77614237 14.7761424,8 14.5,8 L12.9775785,8 C12.8745433,9.14337709 12.4215932,10.1858554 11.7266349,11.0195281 L12.8035534,12.0964466 C12.9988155,12.2917088 12.9988155,12.6082912 12.8035534,12.8035534 C12.6082912,12.9988155 12.2917088,12.9988155 12.0964466,12.8035534 L11.0195281,11.7266349 C10.1858554,12.4215932 9.14337709,12.8745433 8,12.9775785 L8,14.5 C8,14.7761424 7.77614237,15 7.5,15 C7.22385763,15 7,14.7761424 7,14.5 L7,12.9775785 C5.85662291,12.8745433 4.81414465,12.4215932 3.9804719,11.7266349 L2.90355339,12.8035534 C2.70829124,12.9988155 2.39170876,12.9988155 2.19644661,12.8035534 C2.00118446,12.6082912 2.00118446,12.2917088 2.19644661,12.0964466 L3.27336512,11.0195281 C2.57840684,10.1858554 2.12545674,9.14337709 2.02242151,8 L0.5,8 C0.223857625,8 0,7.77614237 0,7.5 C0,7.22385763 0.223857625,7 0.5,7 L2.02242151,7 C2.12545674,5.85662291 2.57840684,4.81414465 3.27336512,3.9804719 L2.19644661,2.90355339 C2.00118446,2.70829124 2.00118446,2.39170876 2.19644661,2.19644661 C2.39170876,2.00118446 2.70829124,2.00118446 2.90355339,2.19644661 L3.9804719,3.27336512 Z M7.5,10 C6.11928813,10 5,8.88071187 5,7.5 C5,6.11928813 6.11928813,5 7.5,5 C8.88071187,5 10,6.11928813 10,7.5 C10,8.88071187 8.88071187,10 7.5,10 Z M7.5,9 C8.32842712,9 9,8.32842712 9,7.5 C9,6.67157288 8.32842712,6 7.5,6 C6.67157288,6 6,6.67157288 6,7.5 C6,8.32842712 6.67157288,9 7.5,9 Z M7.5,12 C9.98528137,12 12,9.98528137 12,7.5 C12,5.01471863 9.98528137,3 7.5,3 C5.01471863,3 3,5.01471863 3,7.5 C3,9.98528137 5.01471863,12 7.5,12 Z" id="Combined-Shape" fill="#000000" fill-rule="nonzero"></path>
    </g>
</svg>