<?xml version="1.0" encoding="UTF-8"?>
<svg width="16px" height="16px" viewBox="0 0 16 16" version="1.1" xmlns="http://www.w3.org/2000/svg" xmlns:xlink="http://www.w3.org/1999/xlink">
    <!-- Generator: Sketch 52.5 (67469) - http://www.bohemiancoding.com/sketch -->
    <title>Icons / UI / Share</title>
    <desc>Created with Sketch.</desc>
    <g id="Icons-/-UI-/-Share" stroke="none" stroke-width="1" fill="none" fill-rule="evenodd">
        <path d="M6.77411005,9.14413029 L9.75687876,11.0078651 C10.3064065,10.3895523 11.1077109,10 12,10 C13.6568542,10 15,11.3431458 15,13 C15,14.6568542 13.6568542,16 12,16 C10.3431458,16 9,14.6568542 9,13 C9,12.5946572 9.08038953,12.2080904 9.22609507,11.855373 L6.24347824,9.99173317 C5.69394055,10.610279 4.89248239,11 4,11 C2.34314575,11 1,9.65685425 1,8 C1,6.34314575 2.34314575,5 4,5 C4.89248239,5 5.69394055,5.38972103 6.24347824,6.00826683 L9.22609507,4.14462696 C9.08038953,3.79190963 9,3.4053428 9,3 C9,1.34314575 10.3431458,0 12,0 C13.6568542,0 15,1.34314575 15,3 C15,4.65685425 13.6568542,6 12,6 C11.1077109,6 10.3064065,5.61044773 9.75687876,4.99213493 L6.77411005,6.85586971 C6.91968592,7.20845325 7,7.59484744 7,8 C7,8.40515256 6.91968592,8.79154675 6.77411005,9.14413029 Z M5.70412485,9.04741716 C5.89176066,8.74278734 6,8.384034 6,8 C6,7.615966 5.89176066,7.25721266 5.70412485,6.95258284 C5.70135346,6.94842577 5.69863442,6.94421432 5.69596918,6.9399488 C5.69346247,6.93593699 5.69101959,6.93190338 5.68864029,6.92784915 C5.33374991,6.37006165 4.71009122,6 4,6 C2.8954305,6 2,6.8954305 2,8 C2,9.1045695 2.8954305,10 4,10 C4.71009122,10 5.33374991,9.62993835 5.68864029,9.07215085 C5.69101959,9.06809662 5.69346247,9.06406301 5.69596918,9.0600512 C5.69863442,9.05578568 5.70135346,9.05157423 5.70412485,9.04741716 Z M10.3199092,11.9145283 C10.3152268,11.9230897 10.3102681,11.9315669 10.3050308,11.9399488 C10.299596,11.9486468 10.2939376,11.9571199 10.2880676,11.9653655 C10.10524,12.2672286 10,12.6213243 10,13 C10,14.1045695 10.8954305,15 12,15 C13.1045695,15 14,14.1045695 14,13 C14,11.8954305 13.1045695,11 12,11 C11.2955767,11 10.6762117,11.3641775 10.3199092,11.9145283 Z M10.2880676,4.03463454 C10.2939376,4.04288009 10.299596,4.05135325 10.3050308,4.0600512 C10.3102681,4.06843315 10.3152268,4.07691025 10.3199092,4.08547168 C10.6762117,4.63582245 11.2955767,5 12,5 C13.1045695,5 14,4.1045695 14,3 C14,1.8954305 13.1045695,1 12,1 C10.8954305,1 10,1.8954305 10,3 C10,3.37867574 10.10524,3.73277137 10.2880676,4.03463454 Z" id="Combined-Shape" fill="#000000" fill-rule="nonzero"></path>
    </g>
</svg>