<svg width="20" height="20" viewBox="0 0 20 20" fill="none" xmlns="http://www.w3.org/2000/svg">
<g clip-path="url(#clip0_3672_15289)">
<path d="M9.67228 2.08303C16.1817 1.98329 20.1876 9.38339 16.5223 14.7856C13.3406 19.4755 6.32737 19.5058 3.10034 14.8461C-0.573012 9.54157 3.2424 2.18277 9.67228 2.08303ZM9.16651 3.40084C3.81667 3.86329 1.01179 10.2982 4.45442 14.5005C7.23412 17.8938 12.2706 17.926 15.0816 14.5549C18.9635 9.90024 15.1511 2.88198 9.16651 3.40084Z" fill="#0F7B51"/>
<path d="M13.8212 10.9277C13.5623 16.2484 6.02016 16.2494 5.76123 10.9277H13.8212ZM12.0077 12.2375H7.37323C8.40592 14.1054 11.0033 14.1517 12.0077 12.2375Z" fill="#0F7B51"/>
<path d="M6.0978 7.23486C7.15064 6.18202 9.12534 7.55927 8.07955 8.96474C6.92798 10.5123 4.81726 8.51539 6.0978 7.23486Z" fill="#0F7B51"/>
<path d="M11.5382 7.23486C12.5911 6.18202 14.5658 7.55927 13.52 8.96474C12.3684 10.5123 10.2577 8.51539 11.5382 7.23486Z" fill="#0F7B51"/>
</g>
<defs>
<clipPath id="clip0_3672_15289">
<rect width="16.25" height="16.2399" fill="white" transform="translate(1.66675 2.08398)"/>
</clipPath>
</defs>
</svg>
