<?xml version="1.0" encoding="UTF-8"?>
<svg width="16px" height="16px" viewBox="0 0 16 16" version="1.1" xmlns="http://www.w3.org/2000/svg" xmlns:xlink="http://www.w3.org/1999/xlink">
    <!-- Generator: Sketch 52.5 (67469) - http://www.bohemiancoding.com/sketch -->
    <title>Icons / UI / Sort</title>
    <desc>Created with Sketch.</desc>
    <g id="Icons-/-UI-/-Sort" stroke="none" stroke-width="1" fill="none" fill-rule="evenodd">
        <path d="M3.99925,3.70655377 L3.99925,13.49925 C3.99925,13.77525 3.77525,13.99925 3.49925,13.99925 C3.22325,13.99925 2.99925,13.77525 2.99925,13.49925 L2.99925,3.70655377 L1.85325,4.85325 C1.65825,5.04825 1.34125,5.04825 1.14625,4.85325 C0.95125,4.65825 0.95125,4.34125 1.14625,4.14625 L3.14625,2.14625 C3.34125,1.95125 3.65825,1.95125 3.85325,2.14625 L5.85325,4.14625 C6.04825,4.34125 6.04825,4.65825 5.85325,4.85325 C5.75525,4.95025 5.62725,4.99925 5.49925,4.99925 C5.37125,4.99925 5.24325,4.95025 5.14525,4.85325 L3.99925,3.70655377 Z M8.49925,3.99925 L7.49925,3.99925 C7.22325,3.99925 6.99925,3.77525 6.99925,3.49925 C6.99925,3.22325 7.22325,2.99925 7.49925,2.99925 L8.49925,2.99925 C8.77525,2.99925 8.99925,3.22325 8.99925,3.49925 C8.99925,3.77525 8.77525,3.99925 8.49925,3.99925 Z M10.49925,6.99925 L7.49925,6.99925 C7.22325,6.99925 6.99925,6.77525 6.99925,6.49925 C6.99925,6.22325 7.22325,5.99925 7.49925,5.99925 L10.49925,5.99925 C10.77525,5.99925 10.99925,6.22325 10.99925,6.49925 C10.99925,6.77525 10.77525,6.99925 10.49925,6.99925 Z M12.49925,9.99925 L7.49925,9.99925 C7.22325,9.99925 6.99925,9.77525 6.99925,9.49925 C6.99925,9.22325 7.22325,8.99925 7.49925,8.99925 L12.49925,8.99925 C12.77525,8.99925 12.99925,9.22325 12.99925,9.49925 C12.99925,9.77525 12.77525,9.99925 12.49925,9.99925 Z M14.49925,12.99925 L7.49925,12.99925 C7.22325,12.99925 6.99925,12.77525 6.99925,12.49925 C6.99925,12.22325 7.22325,11.99925 7.49925,11.99925 L14.49925,11.99925 C14.77525,11.99925 14.99925,12.22325 14.99925,12.49925 C14.99925,12.77525 14.77525,12.99925 14.49925,12.99925 Z" id="Combined-Shape" fill="#000000" fill-rule="nonzero" transform="translate(7.999625, 7.999625) scale(1, -1) translate(-7.999625, -7.999625) "></path>
    </g>
</svg>