<svg width="46" height="44" viewBox="0 0 46 44" fill="none" xmlns="http://www.w3.org/2000/svg">
<path d="M34.6248 30.219C33.5575 29.4612 32.2893 29.0369 30.9808 29C29.0418 29.036 26.0748 29.992 23.9998 34.747V13.987C23.9998 13.7218 23.8944 13.4674 23.7069 13.2799C23.5194 13.0924 23.265 12.987 22.9998 12.987C22.7346 12.987 22.4802 13.0924 22.2927 13.2799C22.1052 13.4674 21.9998 13.7218 21.9998 13.987V34.747C19.9248 29.992 16.9578 29.036 15.0188 29H14.9248C13.6437 29.0292 12.4032 29.4555 11.3748 30.22C11.2722 30.3021 11.1868 30.4035 11.1235 30.5186C11.0602 30.6337 11.0201 30.7601 11.0056 30.8907C10.9911 31.0212 11.0025 31.1534 11.0391 31.2795C11.0757 31.4057 11.1367 31.5234 11.2188 31.626C11.3009 31.7286 11.4024 31.814 11.5174 31.8773C11.6325 31.9406 11.7589 31.9807 11.8895 31.9952C12.0201 32.0097 12.1522 31.9983 12.2784 31.9617C12.4045 31.9251 12.5222 31.8641 12.6248 31.782C13.2961 31.2973 14.0972 31.0249 14.9248 31H14.9818C18.5488 31.065 21.1088 35.482 22.0078 43.117C22.0367 43.3601 22.1538 43.5841 22.3368 43.7466C22.5198 43.9091 22.756 43.9989 23.0008 43.9989C23.2456 43.9989 23.4818 43.9091 23.6648 43.7466C23.8478 43.5841 23.9649 43.3601 23.9938 43.117C24.8938 35.482 27.4528 31.065 31.0198 31H31.0768C31.9043 31.0282 32.7047 31.3014 33.3768 31.785C33.5847 31.9458 33.8476 32.0183 34.1085 31.9868C34.3695 31.9552 34.6075 31.8222 34.7712 31.6165C34.9348 31.4108 35.0109 31.149 34.9829 30.8876C34.955 30.6263 34.8252 30.3864 34.6218 30.22L34.6248 30.219Z" fill="#262633"/>
<path d="M10.2531 42C10.091 41.9999 9.93145 41.9604 9.78806 41.885L7.00006 40.42L4.21206 41.885C4.04694 41.9715 3.86091 42.0102 3.67498 41.9966C3.48905 41.9831 3.31061 41.9178 3.15982 41.8082C3.00902 41.6986 2.89187 41.549 2.82158 41.3763C2.7513 41.2036 2.73068 41.0147 2.76206 40.831L3.29406 37.731L1.03806 35.531C0.906082 35.4005 0.813035 35.2358 0.76933 35.0554C0.725625 34.875 0.732986 34.686 0.790589 34.5096C0.848192 34.3332 0.953764 34.1762 1.09549 34.0564C1.23721 33.9365 1.4095 33.8585 1.59306 33.831L4.70906 33.377L6.10906 30.553C6.20074 30.3968 6.33166 30.2673 6.48883 30.1773C6.646 30.0873 6.82395 30.04 7.00506 30.04C7.18616 30.04 7.36411 30.0873 7.52128 30.1773C7.67845 30.2673 7.80937 30.3968 7.90106 30.553L9.29605 33.377L12.4121 33.831C12.5956 33.8585 12.7679 33.9365 12.9096 34.0564C13.0513 34.1762 13.1569 34.3332 13.2145 34.5096C13.2721 34.686 13.2795 34.875 13.2358 35.0554C13.1921 35.2358 13.099 35.4005 12.9671 35.531L10.7111 37.731L11.2431 40.831C11.2677 40.9749 11.2606 41.1224 11.2222 41.2633C11.1837 41.4041 11.1149 41.5348 11.0206 41.6463C10.9262 41.7577 10.8086 41.8471 10.676 41.9082C10.5434 41.9693 10.3991 42.0006 10.2531 42Z" fill="#16B378"/>
<path d="M26.2531 12C26.091 11.9999 25.9315 11.9604 25.7881 11.885L23.0001 10.42L20.2121 11.885C20.0469 11.9715 19.8609 12.0102 19.675 11.9966C19.4891 11.9831 19.3106 11.9178 19.1598 11.8082C19.009 11.6986 18.8919 11.549 18.8216 11.3763C18.7513 11.2036 18.7307 11.0148 18.7621 10.831L19.2941 7.73099L17.0381 5.53099C16.9061 5.40048 16.813 5.23581 16.7693 5.05542C16.7256 4.87503 16.733 4.68604 16.7906 4.5096C16.8482 4.33316 16.9538 4.17623 17.0955 4.05638C17.2372 3.93653 17.4095 3.85848 17.5931 3.83099L20.7091 3.37699L22.1001 0.544986C22.1917 0.388809 22.3227 0.259311 22.4798 0.16933C22.637 0.07935 22.815 0.0320129 22.9961 0.0320129C23.1772 0.0320129 23.3551 0.07935 23.5123 0.16933C23.6694 0.259311 23.8004 0.388809 23.8921 0.544986L25.2871 3.36899L28.4031 3.82299C28.5866 3.85048 28.7589 3.92853 28.9006 4.04838C29.0423 4.16823 29.1479 4.32516 29.2055 4.5016C29.2631 4.67804 29.2705 4.86703 29.2268 5.04742C29.1831 5.22781 29.09 5.39247 28.9581 5.52299L26.7021 7.72299L27.2341 10.823C27.2599 10.9667 27.254 11.1144 27.2166 11.2556C27.1793 11.3968 27.1115 11.5281 27.018 11.6402C26.9245 11.7524 26.8076 11.8428 26.6754 11.9049C26.5433 11.9671 26.3991 11.9995 26.2531 12Z" fill="#16B378"/>
<path d="M42.2531 42C42.091 41.9999 41.9314 41.9604 41.7881 41.885L39.0001 40.42L36.2121 41.885C36.0469 41.9715 35.8609 42.0102 35.675 41.9966C35.489 41.9831 35.3106 41.9178 35.1598 41.8082C35.009 41.6986 34.8919 41.549 34.8216 41.3763C34.7513 41.2036 34.7307 41.0148 34.7621 40.831L35.2941 37.731L33.0381 35.531C32.9061 35.4005 32.813 35.2358 32.7693 35.0554C32.7256 34.875 32.733 34.686 32.7906 34.5096C32.8482 34.3332 32.9538 34.1762 33.0955 34.0564C33.2372 33.9365 33.4095 33.8585 33.5931 33.831L36.7091 33.377L38.1001 30.545C38.1917 30.3888 38.3227 30.2593 38.4798 30.1693C38.637 30.0794 38.8149 30.032 38.9961 30.032C39.1772 30.032 39.3551 30.0794 39.5123 30.1693C39.6694 30.2593 39.8004 30.3888 39.8921 30.545L41.2871 33.369L44.4031 33.823C44.5866 33.8505 44.7589 33.9285 44.9006 34.0484C45.0423 34.1682 45.1479 34.3252 45.2055 34.5016C45.2631 34.678 45.2705 34.867 45.2268 35.0474C45.1831 35.2278 45.09 35.3925 44.9581 35.523L42.7021 37.723L43.2341 40.823C43.2599 40.9667 43.254 41.1144 43.2166 41.2556C43.1793 41.3968 43.1115 41.5281 43.018 41.6402C42.9245 41.7524 42.8076 41.8428 42.6754 41.9049C42.5433 41.9671 42.3991 41.9995 42.2531 42Z" fill="#16B378"/>
<path d="M9 14C8.20435 14 7.44129 13.6839 6.87868 13.1213C6.31607 12.5587 6 11.7956 6 11C6 10.7348 5.89464 10.4804 5.70711 10.2929C5.51957 10.1054 5.26522 10 5 10C4.73478 10 4.48043 10.1054 4.29289 10.2929C4.10536 10.4804 4 10.7348 4 11C4 11.7956 3.68393 12.5587 3.12132 13.1213C2.55871 13.6839 1.79565 14 1 14C0.734784 14 0.48043 14.1054 0.292893 14.2929C0.105357 14.4804 0 14.7348 0 15C0 15.2652 0.105357 15.5196 0.292893 15.7071C0.48043 15.8946 0.734784 16 1 16C1.79565 16 2.55871 16.3161 3.12132 16.8787C3.68393 17.4413 4 18.2044 4 19C4 19.2652 4.10536 19.5196 4.29289 19.7071C4.48043 19.8946 4.73478 20 5 20C5.26522 20 5.51957 19.8946 5.70711 19.7071C5.89464 19.5196 6 19.2652 6 19C6 18.2044 6.31607 17.4413 6.87868 16.8787C7.44129 16.3161 8.20435 16 9 16C9.26522 16 9.51957 15.8946 9.70711 15.7071C9.89464 15.5196 10 15.2652 10 15C10 14.7348 9.89464 14.4804 9.70711 14.2929C9.51957 14.1054 9.26522 14 9 14Z" fill="#E6A117"/>
<path d="M45 13.987C44.2044 13.987 43.4413 13.6709 42.8787 13.1083C42.3161 12.5457 42 11.7826 42 10.987C42 10.7218 41.8946 10.4674 41.7071 10.2799C41.5196 10.0924 41.2652 9.987 41 9.987C40.7348 9.987 40.4804 10.0924 40.2929 10.2799C40.1054 10.4674 40 10.7218 40 10.987C40 11.7826 39.6839 12.5457 39.1213 13.1083C38.5587 13.6709 37.7956 13.987 37 13.987C36.7348 13.987 36.4804 14.0924 36.2929 14.2799C36.1054 14.4674 36 14.7218 36 14.987C36 15.2522 36.1054 15.5066 36.2929 15.6941C36.4804 15.8816 36.7348 15.987 37 15.987C37.7956 15.987 38.5587 16.3031 39.1213 16.8657C39.6839 17.4283 40 18.1913 40 18.987C40 19.2522 40.1054 19.5066 40.2929 19.6941C40.4804 19.8816 40.7348 19.987 41 19.987C41.2652 19.987 41.5196 19.8816 41.7071 19.6941C41.8946 19.5066 42 19.2522 42 18.987C42 18.1913 42.3161 17.4283 42.8787 16.8657C43.4413 16.3031 44.2044 15.987 45 15.987C45.2652 15.987 45.5196 15.8816 45.7071 15.6941C45.8946 15.5066 46 15.2522 46 14.987C46 14.7218 45.8946 14.4674 45.7071 14.2799C45.5196 14.0924 45.2652 13.987 45 13.987Z" fill="#E6A117"/>
<path d="M19.0002 28C18.8136 28.001 18.6303 27.9497 18.4713 27.852C18.3122 27.7543 18.1837 27.614 18.1002 27.447C14.4532 20.153 9.20823 19.99 8.98623 19.987C8.85491 19.9864 8.72499 19.9599 8.60389 19.9091C8.48279 19.8583 8.37288 19.7842 8.28044 19.6909C8.09375 19.5025 7.98954 19.2477 7.99073 18.9825C7.99193 18.7173 8.09843 18.4634 8.28681 18.2767C8.47519 18.09 8.73002 17.9858 8.99523 17.987C9.26523 17.987 15.6602 18.099 19.8882 26.553C19.9642 26.7049 20.0001 26.8738 19.9928 27.0435C19.9854 27.2132 19.9349 27.3783 19.846 27.523C19.7572 27.6678 19.6329 27.7876 19.4849 27.8711C19.3369 27.9545 19.1701 27.9989 19.0002 28Z" fill="#262633"/>
<path d="M27 28C26.8296 27.9999 26.662 27.9563 26.5132 27.8733C26.3644 27.7902 26.2393 27.6706 26.1498 27.5256C26.0602 27.3806 26.0092 27.2152 26.0015 27.045C25.9938 26.8748 26.0298 26.7054 26.106 26.553C30.333 18.1 36.728 17.988 37 17.987C37.2652 17.987 37.5195 18.0924 37.7071 18.2799C37.8946 18.4674 38 18.7218 38 18.987C38 19.2522 37.8946 19.5066 37.7071 19.6941C37.5195 19.8816 37.2652 19.987 37 19.987C36.785 19.987 31.54 20.153 27.893 27.447C27.81 27.6129 27.6826 27.7525 27.5249 27.8502C27.3672 27.9478 27.1854 27.9997 27 28Z" fill="#262633"/>
</svg>

