<svg width="24" height="25" viewBox="0 0 24 25" fill="none" xmlns="http://www.w3.org/2000/svg">
<path fill-rule="evenodd" clip-rule="evenodd" d="M2.24081 4.84923C2.60023 4.4299 3.23153 4.38134 3.65086 4.74076L7.15086 7.74076C7.57018 8.10018 7.61875 8.73148 7.25932 9.15081C6.8999 9.57014 6.2686 9.6187 5.84928 9.25927L2.34928 6.25927C1.92995 5.89985 1.88139 5.26855 2.24081 4.84923ZM11.5 7.02081C11.137 7.02081 10.8052 7.2259 10.6429 7.55057L8.87455 11.0872L4.98709 11.6527C4.62616 11.7052 4.32631 11.958 4.2136 12.3049C4.1009 12.6518 4.19487 13.0326 4.45602 13.2872L7.28619 16.0466L6.64959 19.9369C6.59079 20.2962 6.74071 20.6578 7.03651 20.8702C7.33231 21.0825 7.72289 21.1089 8.04453 20.9382L11.5 19.1047L14.9555 20.9382C15.2772 21.1089 15.6678 21.0825 15.9636 20.8702C16.2594 20.6578 16.4093 20.2962 16.3505 19.9369L15.7139 16.0466L18.544 13.2872C18.8052 13.0326 18.8992 12.6518 18.7865 12.3049C18.6738 11.958 18.3739 11.7052 18.013 11.6527L14.1255 11.0872L12.3572 7.55057C12.1949 7.2259 11.863 7.02081 11.5 7.02081ZM10.365 12.3921L11.5 10.122L12.6351 12.3921C12.7753 12.6726 13.0439 12.8667 13.3543 12.9119L15.8162 13.27L14.0185 15.0227C13.7946 15.241 13.6913 15.5549 13.7418 15.8636L14.1469 18.3393L11.9492 17.1732C11.6683 17.0242 11.3318 17.0242 11.0508 17.1732L8.85317 18.3393L9.25829 15.8636C9.3088 15.5549 9.2055 15.241 8.98155 15.0227L7.18391 13.27L9.64579 12.9119C9.95613 12.8667 10.2248 12.6726 10.365 12.3921ZM19.3492 4.74076C19.7686 4.38134 20.3999 4.4299 20.7593 4.84923C21.1187 5.26855 21.0701 5.89985 20.6508 6.25927L17.1508 9.25927C16.7315 9.6187 16.1002 9.57014 15.7408 9.15081C15.3814 8.73148 15.4299 8.10018 15.8492 7.74076L19.3492 4.74076ZM22.2753 19.6316C21.9265 20.0598 21.2966 20.1241 20.8684 19.7753L18.3684 17.7386C17.9403 17.3897 17.876 16.7598 18.2248 16.3317C18.5736 15.9035 19.2035 15.8392 19.6317 16.188L22.1317 18.2247C22.5599 18.5736 22.6242 19.2035 22.2753 19.6316ZM2.13165 19.7753C1.70347 20.1241 1.07358 20.0598 0.724752 19.6316C0.375919 19.2035 0.440238 18.5736 0.868413 18.2247L3.36841 16.188C3.79659 15.8392 4.42648 15.9035 4.77531 16.3317C5.12414 16.7598 5.05982 17.3897 4.63165 17.7386L2.13165 19.7753Z" fill="#16B378"/>
</svg>
