<?xml version="1.0" encoding="UTF-8" standalone="no"?>
<svg
   xmlns:svg="http://www.w3.org/2000/svg"
   xmlns="http://www.w3.org/2000/svg"
   width="16px"
   height="16px"
   viewBox="0 0 16 16"
   version="1.1"
   id="svg8">
  <title
     id="title895">Icons / UI / TickSolid</title>
  <g
     transform="matrix(0.13020727,0,0,0.13020727,2.27565e-7,1.3043306e-4)"
     id="g4">
    <path
       id="path2"
       d="m 61.44,0 c 33.933,0 61.441,27.507 61.441,61.439 0,33.933 -27.508,61.44 -61.441,61.44 C 27.508,122.88 0,95.372 0,61.439 0,27.507 27.508,0 61.44,0 Z M 34.106,67.678 34.091,67.664 c -0.785,-0.718 -1.207,-1.685 -1.256,-2.669 -0.049,-0.982 0.275,-1.985 0.984,-2.777 0.01,-0.011 0.019,-0.021 0.029,-0.031 0.717,-0.784 1.684,-1.207 2.668,-1.256 0.989,-0.049 1.998,0.28 2.792,0.998 L 52.264,73.677 83.353,41.118 v 0 c 0.74,-0.776 1.723,-1.18 2.719,-1.204 0.992,-0.025 1.994,0.329 2.771,1.067 v 10e-4 c 0.777,0.739 1.18,1.724 1.205,2.718 0.025,0.993 -0.33,1.997 -1.068,2.773 L 55.279,81.769 c -0.023,0.024 -0.048,0.047 -0.073,0.067 -0.715,0.715 -1.649,1.095 -2.598,1.13 -0.974,0.037 -1.963,-0.293 -2.744,-1 L 34.118,67.688 Z"
       style="clip-rule:evenodd;fill-rule:evenodd" />
  </g>
</svg>
