<svg width="39" height="35" viewBox="0 0 39 35" fill="none" xmlns="http://www.w3.org/2000/svg">
<g id="Group">
<path id="Vector (Stroke)" fill-rule="evenodd" clip-rule="evenodd" d="M4.0625 3.25C3.40666 3.25 2.875 3.78166 2.875 4.4375V30.5625C2.875 31.2183 3.40666 31.75 4.0625 31.75H34.9375C35.5933 31.75 36.125 31.2183 36.125 30.5625V4.4375C36.125 3.78166 35.5933 3.25 34.9375 3.25H4.0625ZM0.5 4.4375C0.5 2.46999 2.09499 0.875 4.0625 0.875H34.9375C36.905 0.875 38.5 2.46999 38.5 4.4375V30.5625C38.5 32.53 36.905 34.125 34.9375 34.125H4.0625C2.09499 34.125 0.5 32.53 0.5 30.5625V4.4375Z" fill="white"/>
<path id="Vector (Stroke)_2" fill-rule="evenodd" clip-rule="evenodd" d="M12.9911 8.14653C13.371 7.93797 13.8344 7.95296 14.2 8.18565L27.2625 16.4982C27.6051 16.7161 27.8125 17.094 27.8125 17.5C27.8125 17.906 27.6051 18.2839 27.2625 18.5019L14.2 26.8144C13.8344 27.047 13.371 27.062 12.9911 26.8535C12.6111 26.6449 12.375 26.2459 12.375 25.8125V9.1875C12.375 8.75409 12.6111 8.35509 12.9911 8.14653ZM14.75 11.3507V23.6493L24.4131 17.5L14.75 11.3507Z" fill="white"/>
</g>
</svg>
