<svg width="20" height="20" viewBox="0 0 20 20" fill="none" xmlns="http://www.w3.org/2000/svg">
<path d="M9.99998 3.33331C6.33331 3.33331 3.33331 6.33331 3.33331 9.99998C3.33331 13.6666 6.33331 16.6666 9.99998 16.6666C13.6666 16.6666 16.6666 13.6666 16.6666 9.99998C16.6666 6.33331 13.6666 3.33331 9.99998 3.33331ZM9.99998 13.3333C9.49998 13.3333 9.16665 13 9.16665 12.5C9.16665 12 9.49998 11.6666 9.99998 11.6666C10.5 11.6666 10.8333 12 10.8333 12.5C10.8333 13 10.5 13.3333 9.99998 13.3333ZM10.8333 10.8333H9.16665V6.66665H10.8333V10.8333Z" fill="#FF0004"/>
</svg>
