<svg width="24" height="24" viewBox="0 0 24 24" fill="none" xmlns="http://www.w3.org/2000/svg">
<path d="M12.0049 4C7.59243 4 4 7.59243 4 12.0049C4 16.4173 7.59243 20.0098 12.0049 20.0098C16.4173 20.0098 20.0098 16.4173 20.0098 12.0049C20.0098 7.59243 16.4173 4 12.0049 4ZM13.518 5.09335C15.7535 5.58145 17.6278 7.14338 18.5162 9.25198L18.5747 9.38865H14.4649V9.30079C14.2599 7.54362 13.8987 6.13789 13.4106 5.23002L13.313 5.04454L13.518 5.09335ZM13.7328 12.0439C13.7328 12.5906 13.7132 13.1373 13.684 13.6742V13.762H10.3453V13.6742C10.3063 13.147 10.2868 12.6004 10.2868 12.0439C10.2868 11.4875 10.3063 10.9311 10.3453 10.3649V10.277H13.6742V10.3649C13.7132 10.9408 13.7328 11.4875 13.7328 12.0439ZM12.0146 4.99573C12.5223 4.99573 13.2642 6.63575 13.5766 9.28127V9.38865H10.4332V9.28127C10.7553 6.63575 11.507 4.99573 12.0146 4.99573ZM5.47407 9.25198C6.03051 7.92434 6.97743 6.82123 8.15863 6.05979C8.8615 5.60098 9.66199 5.26907 10.5015 5.08359L10.7065 5.03478L10.6089 5.22026C10.111 6.12813 9.74985 7.53386 9.55461 9.29103V9.37889H5.42526L5.48383 9.24222L5.47407 9.25198ZM5.15192 13.684C5.00549 13.0787 4.92739 12.532 4.92739 11.9951C4.92739 11.4582 4.99573 10.9311 5.14216 10.3356L5.16168 10.2575H9.47651V10.3649C9.43746 10.9213 9.41794 11.4875 9.41794 12.0342C9.41794 12.5808 9.43746 13.0982 9.46675 13.6547V13.762H5.17145L5.15192 13.684ZM10.4527 18.9067C8.23673 18.4088 6.38194 16.8664 5.48383 14.7773L5.42526 14.6406H9.53508V14.7285C9.73032 16.4564 10.0818 17.8523 10.5601 18.77L10.6577 18.9555L10.4527 18.9067ZM12.0146 19.0824C11.4973 19.0824 10.7553 17.4228 10.443 14.748V14.6406H13.5961V14.748C13.2739 17.4228 12.532 19.0824 12.0146 19.0824ZM18.5162 14.7773C17.6278 16.8566 15.7828 18.399 13.5766 18.8969L13.3716 18.9457L13.4692 18.7602C13.9475 17.8426 14.299 16.4466 14.4747 14.7285V14.6406H18.5747L18.5162 14.7773ZM18.8481 13.762H14.5528V13.6547C14.5918 13.0982 14.6113 12.5516 14.6113 12.0342C14.6113 11.5168 14.5918 10.9408 14.5528 10.3649V10.2575H18.8481L18.8676 10.3356C19.0043 10.892 19.0726 11.4484 19.0726 11.9951C19.0726 12.5418 19.0043 13.1178 18.8578 13.684L18.8383 13.762H18.8481Z" fill="#16B378"/>
</svg>
