<?xml version="1.0" encoding="UTF-8"?>
<svg width="17px" height="16px" viewBox="0 0 17 16" version="1.1" xmlns="http://www.w3.org/2000/svg" xmlns:xlink="http://www.w3.org/1999/xlink">
    <!-- Generator: Sketch 52.5 (67469) - http://www.bohemiancoding.com/sketch -->
    <title>Icons / Charts / ChartKaplan</title>
    <desc>Created with Sketch.</desc>
    <g id="Icons-/-Charts-/-ChartKaplan" stroke="none" stroke-width="1" fill="none" fill-rule="evenodd">
        <path d="M6.17128028,1.40831801 L0.91349481,1.40831801 C0.668884263,1.40831801 0.470588235,1.19762849 0.470588235,0.937729779 C0.470588235,0.677831074 0.668884263,0.467141544 0.91349481,0.467141544 L7.05709343,0.467141544 C7.3332358,0.467141544 7.55709343,0.690999169 7.55709343,0.967141544 L7.55709343,2.79067096 C7.55709343,3.06681333 7.78095105,3.29067096 8.05709343,3.29067096 L11.4861592,3.29067096 C11.7623015,3.29067096 11.9861592,3.51452858 11.9861592,3.79067096 L11.9861592,5.61420037 C11.9861592,5.89034274 12.2100168,6.11420037 12.4861592,6.11420037 L15.0865052,6.11420037 C15.3311157,6.11420037 15.5294118,6.3248899 15.5294118,6.5847886 C15.5294118,6.84468731 15.3311157,7.05537684 15.0865052,7.05537684 L11.600346,7.05537684 C11.3242036,7.05537684 11.100346,6.83151921 11.100346,6.55537684 L11.100346,4.73184743 C11.100346,4.45570505 10.8764884,4.23184743 10.600346,4.23184743 L7.17128028,4.23184743 C6.8951379,4.23184743 6.67128028,4.0079898 6.67128028,3.73184743 L6.67128028,1.90831801 C6.67128028,1.63217564 6.44742265,1.40831801 6.17128028,1.40831801 Z M2.79411765,3.29067096 L0.941176471,3.29067096 C0.681277765,3.29067096 0.470588235,3.07998143 0.470588235,2.82008272 C0.470588235,2.56018401 0.681277765,2.34949449 0.941176471,2.34949449 L3.73529412,2.34949449 C4.01143649,2.34949449 4.23529412,2.57335211 4.23529412,2.84949449 L4.23529412,7.49655331 C4.23529412,7.77269568 4.45915174,7.99655331 4.73529412,7.99655331 L10.3235294,7.99655331 C10.5996718,7.99655331 10.8235294,8.22041093 10.8235294,8.49655331 L10.8235294,11.2612592 C10.8235294,11.5374016 11.047387,11.7612592 11.3235294,11.7612592 L13.1470588,11.7612592 C13.4232012,11.7612592 13.6470588,11.9851168 13.6470588,12.2612592 L13.6470588,15.0553768 C13.6470588,15.3152755 13.4363693,15.5259651 13.1764706,15.5259651 C12.9165719,15.5259651 12.7058824,15.3152755 12.7058824,15.0553768 L12.7058824,13.2024357 C12.7058824,12.9262933 12.4820247,12.7024357 12.2058824,12.7024357 L10.3823529,12.7024357 C10.1062106,12.7024357 9.88235294,12.478578 9.88235294,12.2024357 L9.88235294,9.43772978 C9.88235294,9.1615874 9.65849532,8.93772978 9.38235294,8.93772978 L3.79411765,8.93772978 C3.51797527,8.93772978 3.29411765,8.71387215 3.29411765,8.43772978 L3.29411765,3.79067096 C3.29411765,3.51452858 3.07026002,3.29067096 2.79411765,3.29067096 Z" id="Combined-Shape" fill="#000000" fill-rule="nonzero"></path>
    </g>
</svg>