<?xml version="1.0" encoding="UTF-8"?>
<svg width="16px" height="16px" viewBox="0 0 16 16" version="1.1" xmlns="http://www.w3.org/2000/svg" xmlns:xlink="http://www.w3.org/1999/xlink">
    <!-- Generator: Sketch 52.5 (67469) - http://www.bohemiancoding.com/sketch -->
    <title>Icons / Charts / ChartPie</title>
    <desc>Created with Sketch.</desc>
    <g id="Icons-/-Charts-/-ChartPie" stroke="none" stroke-width="1" fill="none" fill-rule="evenodd">
        <path d="M14.5281273,13.2816484 C14.372688,13.5096497 14.0619259,13.5686204 13.8337681,13.4134109 L7.21876807,8.91341094 C7.08191297,8.82031223 7,8.66551945 7,8.5 L7,0.5 C7,0.223857625 7.22385763,1.95399252e-14 7.5,1.95399252e-14 C12.1941424,1.95399252e-14 16,3.80585763 16,8.5 C16,10.2289938 15.4816549,11.8829958 14.5281273,13.2816484 Z M15,8.5 C15,4.52615593 11.9087764,1.27373423 8,1.01640564 L8,8.23541088 L13.96951,12.2963021 C14.6395342,11.1575815 15,9.85577916 15,8.5 Z M10.6921156,13.7300366 C10.9096956,13.5599967 11.2239236,13.5985356 11.3939634,13.8161156 C11.5640033,14.0336956 11.5254644,14.3479236 11.3078844,14.5179634 C10.0862596,15.4726693 8.58294863,16 7,16 C3.13385763,16 8.43769499e-14,12.8661424 8.43769499e-14,9 C8.43769499e-14,5.94081039 1.98048669,3.26348005 4.84637615,2.33818521 C5.1091614,2.2533411 5.39097068,2.3975909 5.47581479,2.66037615 C5.5606589,2.9231614 5.4164091,3.20497068 5.15362385,3.28981479 C2.69775177,4.08272944 1,6.37784324 1,9 C1,12.3138576 3.68614237,15 7,15 C8.35774343,15 9.6447814,14.5485335 10.6921156,13.7300366 Z" id="Combined-Shape" fill="#000000" fill-rule="nonzero"></path>
    </g>
</svg>