<?xml version="1.0" encoding="UTF-8"?>
<svg width="16px" height="16px" viewBox="0 0 16 16" version="1.1" xmlns="http://www.w3.org/2000/svg" xmlns:xlink="http://www.w3.org/1999/xlink">
    <!-- Generator: Sketch 52.5 (67469) - http://www.bohemiancoding.com/sketch -->
    <title>Icons / Charts / ChartBar</title>
    <desc>Created with Sketch.</desc>
    <g id="Icons-/-Charts-/-ChartBar" stroke="none" stroke-width="1" fill="none" fill-rule="evenodd">
        <path d="M5,14.5 C5,14.7761424 4.77614237,15 4.5,15 C4.22385763,15 4,14.7761424 4,14.5 L4,5.5 C4,5.22385763 4.22385763,5 4.5,5 C4.77614237,5 5,5.22385763 5,5.5 L5,14.5 Z M8,14.5 C8,14.7761424 7.77614237,15 7.5,15 C7.22385763,15 7,14.7761424 7,14.5 L7,8.5 C7,8.22385763 7.22385763,8 7.5,8 C7.77614237,8 8,8.22385763 8,8.5 L8,14.5 Z M14,14.5 C14,14.7761424 13.7761424,15 13.5,15 C13.2238576,15 13,14.7761424 13,14.5 L13,8.5 C13,8.22385763 13.2238576,8 13.5,8 C13.7761424,8 14,8.22385763 14,8.5 L14,14.5 Z M11,14.5 C11,14.7761424 10.7761424,15 10.5,15 C10.2238576,15 10,14.7761424 10,14.5 L10,5.5 C10,5.22385763 10.2238576,5 10.5,5 C10.7761424,5 11,5.22385763 11,5.5 L11,14.5 Z M2,14.5 C2,14.7761424 1.77614237,15 1.5,15 C1.22385763,15 1,14.7761424 1,14.5 L1,2.5 C1,2.22385763 1.22385763,2 1.5,2 C1.77614237,2 2,2.22385763 2,2.5 L2,14.5 Z" id="Combined-Shape" fill="#000000" fill-rule="nonzero"></path>
    </g>
</svg>