<?xml version="1.0" encoding="UTF-8" standalone="no"?>
<svg
   xmlns:dc="http://purl.org/dc/elements/1.1/"
   xmlns:cc="http://creativecommons.org/ns#"
   xmlns:rdf="http://www.w3.org/1999/02/22-rdf-syntax-ns#"
   xmlns:svg="http://www.w3.org/2000/svg"
   xmlns="http://www.w3.org/2000/svg"
   xmlns:sodipodi="http://sodipodi.sourceforge.net/DTD/sodipodi-0.dtd"
   xmlns:inkscape="http://www.inkscape.org/namespaces/inkscape"
   width="100%"
   height="100%"
   viewBox="0 0 1024 1024"
   version="1.1"
   xml:space="preserve"
   style="fill-rule:evenodd;clip-rule:evenodd;stroke-linejoin:round;stroke-miterlimit:1.41421;"
   id="svg2"
   inkscape:version="0.91 r13725"
   sodipodi:docname="grist_icon.svg"><metadata
     id="metadata48"><rdf:RDF><cc:Work
         rdf:about=""><dc:format>image/svg+xml</dc:format><dc:type
           rdf:resource="http://purl.org/dc/dcmitype/StillImage" /><dc:title></dc:title></cc:Work></rdf:RDF></metadata><defs
     id="defs46" /><sodipodi:namedview
     pagecolor="#ffffff"
     bordercolor="#666666"
     borderopacity="1"
     objecttolerance="10"
     gridtolerance="10"
     guidetolerance="10"
     inkscape:pageopacity="0"
     inkscape:pageshadow="2"
     inkscape:window-width="1063"
     inkscape:window-height="711"
     id="namedview44"
     showgrid="false"
     inkscape:zoom="0.41984465"
     inkscape:cx="622.31506"
     inkscape:cy="672.72667"
     inkscape:window-x="65"
     inkscape:window-y="0"
     inkscape:window-maximized="0"
     inkscape:current-layer="svg2" /><rect
     x="340.54282"
     y="173.05345"
     width="344.44629"
     height="344.44629"
     style="fill:#42494b;stroke:#42494b;stroke-width:100;stroke-linejoin:round;stroke-miterlimit:1.41420996;stroke-dasharray:none;stroke-opacity:1"
     id="rect4"
     inkscape:export-filename="/Users/dmitry/Desktop/Grist/Logo/grist.iconset/icon_16x16.png"
     inkscape:export-xdpi="3.24"
     inkscape:export-ydpi="3.24" /><g
     transform="matrix(2.2207784,0,0,2.2207784,176.539,6.0918981)"
     id="g10"><g
       id="g4348"><g
         id="g12"
         transform="matrix(1.22035,0,0,1.18387,65.308,-105.803)"><path
           inkscape:connector-curvature="0"
           id="path14"
           style="fill:#2cb0af"
           d="m 142.043,150.384 -22.092,0 c -10.194,0 -18.47,8.531 -18.47,19.039 l 0,18.972 22.266,0 c 10.098,0 18.296,-8.451 18.296,-18.86 l 0,-19.151 z" /></g><g
         id="g16"
         transform="matrix(-1.22035,0,0,1.18387,299.993,-105.803)"><path
           inkscape:connector-curvature="0"
           id="path18"
           style="fill:#2cb0af"
           d="m 142.043,150.384 -22.092,0 c -10.194,0 -18.47,8.531 -18.47,19.039 l 0,18.972 22.266,0 c 10.098,0 18.296,-8.451 18.296,-18.86 l 0,-19.151 z" /></g><g
         id="g20"
         transform="matrix(-1.22035,0,0,1.18387,237.493,-47.8026)"><path
           inkscape:connector-curvature="0"
           id="path22"
           style="fill:#f9ae41"
           d="m 142.043,150.384 -22.092,0 c -10.194,0 -18.47,8.531 -18.47,19.039 l 0,18.972 22.266,0 c 10.098,0 18.296,-8.451 18.296,-18.86 l 0,-19.151 z" /></g><g
         id="g24"
         transform="matrix(-1.22035,0,0,1.18387,237.493,10.1974)"><path
           inkscape:connector-curvature="0"
           id="path26"
           style="fill:#f9ae41"
           d="m 142.043,150.384 -22.092,0 c -10.194,0 -18.47,8.531 -18.47,19.039 l 0,18.972 22.266,0 c 10.098,0 18.296,-8.451 18.296,-18.86 l 0,-19.151 z" /></g><g
         id="g28"
         transform="matrix(-1.22035,0,0,1.18387,299.993,-47.8026)"><path
           inkscape:connector-curvature="0"
           id="path30"
           style="fill:#d2d2d2"
           d="m 142.043,150.384 -22.092,0 c -10.194,0 -18.47,8.531 -18.47,19.039 l 0,18.972 22.266,0 c 10.098,0 18.296,-8.451 18.296,-18.86 l 0,-19.151 z" /></g><g
         id="g32"
         transform="matrix(1.22035,0,0,1.18387,65.308,-47.8026)"><path
           inkscape:connector-curvature="0"
           id="path34"
           style="fill:#d2d2d2"
           d="m 142.043,150.384 -22.092,0 c -10.194,0 -18.47,8.531 -18.47,19.039 l 0,18.972 22.266,0 c 10.098,0 18.296,-8.451 18.296,-18.86 l 0,-19.151 z" /></g><g
         id="g36"
         transform="matrix(-1.22035,0,0,1.18387,299.993,10.1974)"><path
           inkscape:connector-curvature="0"
           id="path38"
           style="fill:#d2d2d2"
           d="m 142.043,150.384 -22.092,0 c -10.194,0 -18.47,8.531 -18.47,19.039 l 0,18.972 22.266,0 c 10.098,0 18.296,-8.451 18.296,-18.86 l 0,-19.151 z" /></g><g
         id="g40"
         transform="matrix(1.22035,0,0,1.18387,65.308,10.1974)"><path
           inkscape:connector-curvature="0"
           id="path42"
           style="fill:#d2d2d2"
           d="m 142.043,150.384 -22.092,0 c -10.194,0 -18.47,8.531 -18.47,19.039 l 0,18.972 22.266,0 c 10.098,0 18.296,-8.451 18.296,-18.86 l 0,-19.151 z" /></g></g></g></svg>