<svg width="76" height="16" viewBox="0 0 76 16" fill="none" xmlns="http://www.w3.org/2000/svg">
<path d="M30.5455 9.18182C30.5455 10.4356 30.3106 11.5095 29.8409 12.4034C29.375 13.2936 28.7386 13.9754 27.9318 14.4489C27.1288 14.9223 26.2178 15.1591 25.1989 15.1591C24.1799 15.1591 23.267 14.9223 22.4602 14.4489C21.6572 13.9716 21.0208 13.2879 20.5511 12.3977C20.0852 11.5038 19.8523 10.4318 19.8523 9.18182C19.8523 7.92803 20.0852 6.85606 20.5511 5.96591C21.0208 5.07197 21.6572 4.38826 22.4602 3.91477C23.267 3.44129 24.1799 3.20455 25.1989 3.20455C26.2178 3.20455 27.1288 3.44129 27.9318 3.91477C28.7386 4.38826 29.375 5.07197 29.8409 5.96591C30.3106 6.85606 30.5455 7.92803 30.5455 9.18182ZM28.4261 9.18182C28.4261 8.29924 28.2879 7.55492 28.0114 6.94886C27.7386 6.33902 27.3598 5.87879 26.875 5.56818C26.3902 5.25379 25.8314 5.09659 25.1989 5.09659C24.5663 5.09659 24.0076 5.25379 23.5227 5.56818C23.0379 5.87879 22.6572 6.33902 22.3807 6.94886C22.108 7.55492 21.9716 8.29924 21.9716 9.18182C21.9716 10.0644 22.108 10.8106 22.3807 11.4205C22.6572 12.0265 23.0379 12.4867 23.5227 12.8011C24.0076 13.1117 24.5663 13.267 25.1989 13.267C25.8314 13.267 26.3902 13.1117 26.875 12.8011C27.3598 12.4867 27.7386 12.0265 28.0114 11.4205C28.2879 10.8106 28.4261 10.0644 28.4261 9.18182ZM36.8054 6.27273V7.86364H31.7884V6.27273H36.8054ZM33.027 4.18182H35.0838V12.375C35.0838 12.6515 35.1255 12.8636 35.2088 13.0114C35.2959 13.1553 35.4096 13.2538 35.5497 13.3068C35.6899 13.3598 35.8452 13.3864 36.0156 13.3864C36.1444 13.3864 36.2618 13.3769 36.3679 13.358C36.4777 13.339 36.5611 13.322 36.6179 13.3068L36.9645 14.9148C36.8546 14.9527 36.6974 14.9943 36.4929 15.0398C36.2921 15.0852 36.0459 15.1117 35.7543 15.1193C35.2391 15.1345 34.7751 15.0568 34.3622 14.8864C33.9493 14.7121 33.6217 14.4432 33.3793 14.0795C33.1406 13.7159 33.0232 13.2614 33.027 12.7159V4.18182ZM40.7699 9.88636V15H38.7131V3.36364H40.7244V7.75568H40.8267C41.0313 7.26326 41.3475 6.875 41.7756 6.59091C42.2074 6.30303 42.7566 6.15909 43.4233 6.15909C44.0294 6.15909 44.5578 6.28598 45.0085 6.53977C45.4593 6.79356 45.8078 7.16477 46.054 7.65341C46.304 8.14205 46.429 8.73864 46.429 9.44318V15H44.3722V9.76136C44.3722 9.17424 44.2206 8.7178 43.9176 8.39205C43.6184 8.0625 43.1979 7.89773 42.6562 7.89773C42.2926 7.89773 41.9669 7.97727 41.679 8.13636C41.3949 8.29167 41.1714 8.51705 41.0085 8.8125C40.8494 9.10795 40.7699 9.46591 40.7699 9.88636ZM52.3892 15.1705C51.5142 15.1705 50.7585 14.9886 50.1222 14.625C49.4896 14.2576 49.0028 13.7386 48.6619 13.0682C48.321 12.3939 48.1506 11.6004 48.1506 10.6875C48.1506 9.78977 48.321 9.00189 48.6619 8.32386C49.0066 7.64205 49.4877 7.11174 50.1051 6.73295C50.7225 6.35038 51.4479 6.15909 52.2812 6.15909C52.8191 6.15909 53.3267 6.24621 53.804 6.42045C54.285 6.59091 54.7093 6.85606 55.0767 7.21591C55.4479 7.57576 55.7396 8.03409 55.9517 8.59091C56.1638 9.14394 56.2699 9.80303 56.2699 10.5682V11.1989H49.1165V9.8125H54.2983C54.2945 9.41856 54.2093 9.06818 54.0426 8.76136C53.8759 8.45076 53.643 8.20644 53.3438 8.02841C53.0483 7.85038 52.7036 7.76136 52.3097 7.76136C51.8892 7.76136 51.5199 7.86364 51.2017 8.06818C50.8835 8.26894 50.6354 8.53409 50.4574 8.86364C50.2831 9.18939 50.1941 9.54735 50.1903 9.9375V11.1477C50.1903 11.6553 50.2831 12.0909 50.4688 12.4545C50.6544 12.8144 50.9138 13.0909 51.2472 13.2841C51.5805 13.4735 51.9706 13.5682 52.4176 13.5682C52.7169 13.5682 52.9877 13.5265 53.2301 13.4432C53.4725 13.3561 53.6828 13.2292 53.8608 13.0625C54.0388 12.8958 54.1733 12.6894 54.2642 12.4432L56.1847 12.6591C56.0634 13.1667 55.8324 13.6098 55.4915 13.9886C55.1544 14.3636 54.7225 14.6553 54.196 14.8636C53.6695 15.0682 53.0672 15.1705 52.3892 15.1705ZM58.0099 15V6.27273H60.0043V7.72727H60.0952C60.2543 7.22348 60.527 6.83523 60.9134 6.5625C61.3035 6.28598 61.7486 6.14773 62.2486 6.14773C62.3622 6.14773 62.4891 6.15341 62.6293 6.16477C62.7732 6.17235 62.8925 6.18561 62.9872 6.20455V8.09659C62.9001 8.06629 62.7618 8.03977 62.5724 8.01705C62.3868 7.99053 62.2069 7.97727 62.0327 7.97727C61.6577 7.97727 61.3205 8.05871 61.0213 8.22159C60.7259 8.38068 60.4929 8.60227 60.3224 8.88636C60.152 9.17045 60.0668 9.49811 60.0668 9.86932V15H58.0099ZM64.6207 15.125C64.276 15.125 63.9806 15.0038 63.7344 14.7614C63.4882 14.5189 63.367 14.2235 63.3707 13.875C63.367 13.5341 63.4882 13.2424 63.7344 13C63.9806 12.7576 64.276 12.6364 64.6207 12.6364C64.9541 12.6364 65.2438 12.7576 65.4901 13C65.7401 13.2424 65.867 13.5341 65.8707 13.875C65.867 14.1061 65.8063 14.3163 65.6889 14.5057C65.5753 14.6951 65.4238 14.8466 65.2344 14.9602C65.0488 15.0701 64.8442 15.125 64.6207 15.125ZM69.2614 15.125C68.9167 15.125 68.6212 15.0038 68.375 14.7614C68.1288 14.5189 68.0076 14.2235 68.0114 13.875C68.0076 13.5341 68.1288 13.2424 68.375 13C68.6212 12.7576 68.9167 12.6364 69.2614 12.6364C69.5947 12.6364 69.8845 12.7576 70.1307 13C70.3807 13.2424 70.5076 13.5341 70.5114 13.875C70.5076 14.1061 70.447 14.3163 70.3295 14.5057C70.2159 14.6951 70.0644 14.8466 69.875 14.9602C69.6894 15.0701 69.4848 15.125 69.2614 15.125ZM73.902 15.125C73.5573 15.125 73.2618 15.0038 73.0156 14.7614C72.7694 14.5189 72.6482 14.2235 72.652 13.875C72.6482 13.5341 72.7694 13.2424 73.0156 13C73.2618 12.7576 73.5573 12.6364 73.902 12.6364C74.2353 12.6364 74.5251 12.7576 74.7713 13C75.0213 13.2424 75.1482 13.5341 75.152 13.875C75.1482 14.1061 75.0876 14.3163 74.9702 14.5057C74.8565 14.6951 74.705 14.8466 74.5156 14.9602C74.33 15.0701 74.1255 15.125 73.902 15.125Z" fill="black"/>
<path d="M13 7.1V7C13 4.2 10.8 2 8 2C5.5 2 3.4 3.8 3.1 6.3C1.3 6.9 0 8.5 0 10.5C0 13 2 15 4.5 15C6.2 15 10.4 15 12 15C14.2 15 16 13.2 16 11C16 9.1 14.7 7.6 13 7.1ZM9 10V13H7V10H4L8 6L12 10H9Z" fill="#212121"/>
</svg>
