<?xml version="1.0" encoding="UTF-8"?>
<svg fill="none" version="1.1" viewBox="0 0 122 36" xmlns="http://www.w3.org/2000/svg" xmlns:cc="http://creativecommons.org/ns#" xmlns:dc="http://purl.org/dc/elements/1.1/" xmlns:rdf="http://www.w3.org/1999/02/22-rdf-syntax-ns#">
<title>Splunk logo</title>
 <metadata>
  <rdf:RDF>
   <cc:Work rdf:about="">
    <dc:format>image/svg+xml</dc:format>
    <dc:type rdf:resource="http://purl.org/dc/dcmitype/StillImage"/>
    <dc:title/>
   </cc:Work>
  </rdf:RDF>
 </metadata>
 <desc>An information technology company based in California, United States</desc>
 <path d="m12.93 21.8c0 0.8019-0.1696 1.547-0.5088 2.236-0.3392 0.6793-0.8198 1.264-1.423 1.736-0.6125 0.4811-1.338 0.849-2.177 1.113-0.8386 0.2641-1.762 0.3962-2.761 0.3962-1.197 0-2.271-0.1604-3.213-0.4905-0.9423-0.3208-1.894-0.868-2.846-1.623l1.574-2.557c0.7538 0.6321 1.432 1.094 2.045 1.387 0.6031 0.2925 1.225 0.434 1.866 0.434 0.7821 0 1.404-0.1982 1.885-0.6038 0.4806-0.4057 0.7067-0.9434 0.7067-1.632 0-0.2924-0.04712-0.566-0.1319-0.8207-0.08481-0.2548-0.245-0.5189-0.4711-0.7925-0.2262-0.2641-0.5465-0.566-0.9517-0.8773-0.3958-0.3114-0.914-0.7076-1.555-1.17-0.4806-0.3396-0.9611-0.6981-1.423-1.057-0.4617-0.3679-0.8763-0.7547-1.263-1.17-0.3769-0.4151-0.6784-0.8773-0.914-1.396-0.2262-0.5094-0.3486-1.104-0.3486-1.755 0-0.7547 0.1602-1.453 0.4711-2.076s0.7444-1.151 1.291-1.594c0.5465-0.4434 1.197-0.783 1.969-1.028 0.7632-0.2453 1.592-0.3679 2.497-0.3679 0.9517 0 1.866 0.1226 2.751 0.3774 0.8857 0.2547 1.706 0.6226 2.469 1.113l-1.423 2.302c-0.9705-0.6793-1.998-1.028-3.072-1.028-0.6502 0-1.197 0.1698-1.621 0.5094s-0.6408 0.7642-0.6408 1.283c0 0.4906 0.1885 0.934 0.5654 1.321 0.3769 0.3962 1.027 0.934 1.951 1.651 0.9329 0.6793 1.706 1.283 2.309 1.792 0.6125 0.5094 1.093 1 1.451 1.453 0.3581 0.4529 0.5937 0.9057 0.735 1.377 0.1413 0.4811 0.2073 0.9905 0.2073 1.557zm16.16-4.311c0 0.7075-0.0754 1.472-0.2261 2.292-0.1414 0.8208-0.3958 1.576-0.7538 2.274-0.3581 0.6981-0.8198 1.274-1.395 1.717-0.5748 0.4528-1.31 0.6792-2.186 0.6792-1.47 0-2.629-0.5849-3.477-1.764-0.8481-1.17-1.272-2.783-1.272-4.83 0-2.104 0.424-3.764 1.291-5 0.8575-1.236 2.026-1.849 3.496-1.849 1.395 0 2.497 0.5849 3.307 1.736 0.8104 1.16 1.216 2.745 1.216 4.745zm5.107-0.1793c0-1.368-0.1979-2.613-0.5842-3.726-0.3958-1.123-0.9423-2.085-1.668-2.896-0.7255-0.8113-1.574-1.434-2.563-1.887s-2.082-0.6792-3.279-0.6792c-1.319 0-2.478 0.2547-3.477 0.7453-0.9988 0.5-1.932 1.283-2.78 2.358l-0.0282-2.67h-4.702v27.44h4.693v-11.59c0.4617 0.5377 0.9045 0.9905 1.338 1.358 0.424 0.3679 0.8575 0.6698 1.3 0.8962 0.4428 0.2264 0.9045 0.3962 1.394 0.4906 0.49 0.0943 1.018 0.1415 1.574 0.1415 1.244 0 2.412-0.2548 3.486-0.7453 1.074-0.5 2.007-1.198 2.789-2.104s1.395-1.962 1.838-3.16c0.4523-1.208 0.669-2.538 0.669-3.972zm2.092 9.538h4.824v-26.85h-4.824v26.85zm25.4 0.0094v-18.32h-4.824v9.858c0 0.8774-0.0377 1.557-0.1131 2.038-0.0754 0.4811-0.1979 0.9056-0.3675 1.302-0.6784 1.509-1.932 2.274-3.75 2.274-1.423 0-2.412-0.5094-2.978-1.538-0.2261-0.3868-0.3769-0.8302-0.4617-1.321-0.0848-0.4905-0.1319-1.198-0.1319-2.132v-10.48h-4.824v10.41c0 0.7075 0.0094 1.311 0.0189 1.792 0.0094 0.4811 0.0471 0.9245 0.0942 1.302 0.0471 0.3774 0.1036 0.717 0.1696 1.01 0.0565 0.2924 0.1508 0.5754 0.2733 0.8396 0.4428 1.123 1.15 1.972 2.139 2.547 0.9894 0.5754 2.205 0.8585 3.637 0.8585 1.291 0 2.431-0.2265 3.411-0.6793s1.932-1.189 2.855-2.217l0.0094 2.453 4.843 0.0094zm20.79-0.0094v-10.39c0-0.7076-0.0094-1.311-0.0189-1.811-0.0094-0.5-0.0376-0.9339-0.0942-1.302-0.0471-0.368-0.113-0.6887-0.179-0.9623-0.0754-0.283-0.1602-0.5566-0.2544-0.8208-0.4429-1.094-1.15-1.943-2.139-2.538s-2.205-0.8962-3.647-0.8962c-1.291 0-2.431 0.2264-3.411 0.6792s-1.932 1.198-2.855 2.217l-0.0094-2.453h-4.853v18.28h4.862v-9.868c0-0.8491 0.0283-1.519 0.0942-1.991 0.0565-0.4717 0.1791-0.9151 0.3487-1.34 0.3109-0.7359 0.8009-1.283 1.451-1.66s1.423-0.566 2.327-0.566c1.423 0 2.412 0.5094 2.978 1.538 0.2168 0.3868 0.3675 0.8302 0.4523 1.311 0.0848 0.4812 0.1319 1.198 0.1319 2.123v10.43l4.815 0.0095zm19.96-1.208-7.349-9.142 6.209-6.66-3.656-1.575-6.464 7.5h-0.5088v-15.76h-4.862v26.85h4.862v-9.726l7.274 10.09 4.494-1.576zm18.79-6.566v-2.991l-14.62-7.34v3.292l11.33 5.519-11.33 5.594v3.217l14.62-7.292zm-13.2-15.08c-0.895 0-1.621 0.7358-1.621 1.642 0 0.9245 0.726 1.651 1.621 1.651 0.905 0 1.621-0.7264 1.621-1.651 0-0.9151-0.716-1.642-1.621-1.642zm0.01 0.2547c0.725 0 1.309 0.6226 1.309 1.396 0 0.7736-0.584 1.396-1.309 1.387-0.735 0-1.32-0.6132-1.32-1.396 0-0.7642 0.585-1.387 1.32-1.387zm-0.311 1.557h0.197c0.236 0 0.349 0.08491 0.396 0.3208 0.038 0.2453 0.085 0.4057 0.123 0.4623h0.311c-0.029-0.0566-0.076-0.1698-0.113-0.4528-0.038-0.2736-0.142-0.4151-0.311-0.4434v-0.01888c0.198-0.0566 0.358-0.2075 0.358-0.4434 0-0.1698-0.057-0.3019-0.17-0.3774-0.113-0.0849-0.292-0.1415-0.565-0.1415-0.217 0-0.368 0.01887-0.518 0.04717v1.83h0.292v-0.783zm0-0.8491c0.047-0.00943 0.113-0.01886 0.207-0.01886 0.33 0 0.443 0.1604 0.443 0.3208 0 0.2264-0.208 0.3113-0.443 0.3113h-0.207v-0.6132z" fill="#0C1724"/>
</svg>
