<svg width="250" height="281" viewBox="0 0 250 281" fill="none" xmlns="http://www.w3.org/2000/svg">
<g clip-path="url(#clip0_848_6612)">
<path d="M141.5 217C201.423 217 250 168.423 250 108.5C250 48.5771 201.423 0 141.5 0C81.5771 0 33 48.5771 33 108.5C33 168.423 81.5771 217 141.5 217Z" fill="#F7F7F7"/>
<path d="M212.246 49H13.7544C13.3288 48.9882 12.9911 48.5309 13.0002 47.9786C13.009 47.443 13.3416 47.0115 13.7544 47H212.246C212.671 47.0118 213.009 47.4691 213 48.0214C212.991 48.557 212.658 48.9885 212.246 49Z" fill="#D9D9D9"/>
<path d="M145.516 74H90.4843C86.3508 74 83 77.3579 83 81.5V81.5C83 85.6421 86.3508 89 90.4843 89H145.516C149.649 89 153 85.6421 153 81.5C153 77.3579 149.649 74 145.516 74Z" fill="white"/>
<path d="M54.479 104H180.521C184.652 104 188 107.358 188 111.5C188 115.642 184.652 119 180.521 119H54.479C50.3484 119 47 115.642 47 111.5C47 107.358 50.3484 104 54.479 104Z" fill="white"/>
<path d="M54.479 134H180.521C184.652 134 188 137.358 188 141.5C188 145.642 184.652 149 180.521 149H54.479C50.3484 149 47 145.642 47 141.5C47 137.358 50.3484 134 54.479 134Z" fill="white"/>
<path d="M73.0013 276L77.7435 276L80 258L73 258L73.0013 276Z" fill="#FFF3DE"/>
<path d="M73.0002 281L87 280.999V280.812C86.9998 277.631 84.5602 275.051 81.5509 275.051L78.9933 273L74.2221 275.051L73 275.052L73.0002 281Z" fill="#262633"/>
<path d="M36 263.232L39.6614 266L52 253.085L46.5955 249L36 263.232Z" fill="#FFF3DE"/>
<path d="M33 266.535L44.7449 275L44.8563 274.857C46.7502 272.432 46.2391 268.99 43.7146 267.17L42.7901 264.06L37.5662 262.739L36.5409 262L33 266.535Z" fill="#262633"/>
<path d="M51.3552 192.296C51.3552 192.296 51.6075 199.243 51.9257 204.814C51.9779 205.728 49.8574 206.721 49.9123 207.715C49.9487 208.374 50.3473 209.015 50.3843 209.703C50.4234 210.429 49.8731 211.071 49.9123 211.822C49.9506 212.555 50.5784 213.396 50.6162 214.146C51.0238 222.223 52.5011 231.893 51.0218 234.596C50.2927 235.928 41 254.383 41 254.383C41 254.383 46.1776 262.223 47.6569 259.61C49.6108 256.158 64.669 240.009 64.669 236.925C64.669 233.845 68.1527 210.761 68.1527 210.761L70.5819 224.422L71.6957 227.129L71.3457 228.718L72.0655 230.862L72.1044 232.984L72.8052 236.925C72.8052 236.925 70.6972 267.629 71.8843 268.484C73.0752 269.343 78.8408 270.885 79.5213 269.343C80.1981 267.801 84.6033 237.299 84.6033 237.299C84.6033 237.299 85.3133 223.321 86.0826 210.328C86.127 209.574 86.6522 208.663 86.6928 207.92C86.7409 207.058 86.4081 205.938 86.4524 205.101C86.5005 204.142 86.9221 203.466 86.9628 202.548C87.2771 195.45 85.5125 186.808 84.9504 185.957C83.2528 183.388 81.7254 181.335 81.7254 181.335C81.7254 181.335 58.8618 173.751 52.7523 181.457L51.3552 192.296Z" fill="#262633"/>
<path d="M74.962 120.819L65.7068 119L61.3877 124.76C53.3285 132.546 53.2071 139.418 54.6458 150.433V165.893L53.6045 176.257C53.6045 176.257 49.9184 183.833 53.7203 185.597C57.5222 187.361 82.4953 187.211 84.8796 186.507C87.2639 185.803 85.1972 184.938 84.5711 181.656C83.395 175.492 84.1817 178.466 84.2626 176.503C85.4231 148.35 82.7201 136.792 82.4456 133.754L77.7387 125.366L74.962 120.819Z" fill="#929299"/>
<path d="M122.554 143.416C121.591 145.202 119.331 145.886 117.507 144.943C117.312 144.843 117.127 144.726 116.954 144.593L97 157L97.0575 150.245L116.441 139.23C117.822 137.714 120.196 137.581 121.744 138.933C123.039 140.064 123.374 141.918 122.554 143.416Z" fill="#FFF3DE"/>
<path d="M66.7149 129.273L64.4887 129.032C62.4317 128.814 60.4135 129.714 59.1714 131.402C58.6956 132.043 58.3539 132.776 58.1675 133.557L58.1662 133.563C57.6078 135.913 58.4836 138.377 60.3887 139.814L68.0777 145.602C73.4736 153.048 83.6146 157.987 95.5101 162L114 150.274L107.46 142.186L94.7777 149.126L75.9262 134.225L75.9153 134.216L68.7403 129.495L66.7149 129.273Z" fill="#929299"/>
<path d="M71.5 116C77.299 116 82 111.299 82 105.5C82 99.701 77.299 95 71.5 95C65.701 95 61 99.701 61 105.5C61 111.299 65.701 116 71.5 116Z" fill="#FFF3DE"/>
<path d="M71.3801 117C71.2942 117.003 71.2082 117.005 71.1223 117.007C71.0855 117.102 71.0458 117.197 71 117.29L71.3801 117Z" fill="#2F2E41"/>
<path d="M74.4839 106.254C74.5006 106.359 74.5261 106.462 74.5602 106.563C74.5462 106.457 74.5206 106.354 74.4839 106.254Z" fill="#2F2E41"/>
<path d="M82.0995 95.767C81.6612 97.1278 81.27 95.4017 79.8282 95.7122C78.0938 96.0856 76.0754 95.9574 74.655 94.8944C72.5387 93.3418 69.796 92.9238 67.3132 93.7755C64.8828 94.6352 60.811 95.2414 60.1778 97.74C59.9576 98.6086 59.8702 99.5512 59.3366 100.271C58.8701 100.9 58.1338 101.259 57.5181 101.744C55.4391 103.379 57.0281 108.026 58.0121 110.481C58.9961 112.936 61.2533 114.725 63.7349 115.641C66.136 116.528 68.7421 116.684 71.3035 116.614C71.7491 115.459 71.5566 114.125 71.189 112.927C70.791 111.63 70.2018 110.379 70.0355 109.033C69.8693 107.687 70.2343 106.158 71.3631 105.406C72.4006 104.715 74.089 105.136 74.4837 106.254C74.2534 104.856 75.669 103.504 77.1287 103.266C78.6959 103.011 80.2631 103.577 81.8258 103.858C83.3885 104.14 82.8338 97.5619 82.0995 95.767Z" fill="#262633"/>
<path d="M141.652 123.57C142.645 111.578 133.727 101.052 121.733 100.059C109.739 99.0666 99.2114 107.984 98.2187 119.976C97.2261 131.968 106.144 142.494 118.138 143.487C130.132 144.479 140.66 135.562 141.652 123.57Z" fill="#F9AE41"/>
<path d="M125.66 112.695L119.936 118.418L114.212 112.695C113.285 111.768 111.783 111.768 110.856 112.695C109.929 113.621 109.929 115.123 110.856 116.05L116.58 121.773L110.856 127.496C109.93 128.424 109.932 129.926 110.859 130.851C111.785 131.776 113.285 131.776 114.212 130.851L119.936 125.128L125.66 130.851C126.587 131.777 128.09 131.776 129.015 130.848C129.94 129.922 129.94 128.423 129.015 127.496L123.291 121.773L129.015 116.05C129.942 115.123 129.942 113.621 129.015 112.695C128.089 111.768 126.586 111.768 125.66 112.695Z" fill="white"/>
<path d="M111.349 103.46C111.991 105.395 110.943 107.484 109.008 108.126C108.802 108.194 108.59 108.245 108.375 108.276L103.758 131.171L98.8779 126.411L104.118 104.895C103.959 102.851 105.486 101.066 107.53 100.906C109.24 100.773 110.819 101.829 111.349 103.46Z" fill="#FFF3DE"/>
<path d="M62.2893 133.074L60.5634 134.529C58.9721 135.876 58.2041 137.96 58.5401 140.018C58.6643 140.802 58.9484 141.552 59.3747 142.221L59.3782 142.226C60.6633 144.239 63.0302 145.286 65.3843 144.882L74.8777 143.245C83.9508 144.408 94.5509 140.406 105.716 134.494L110.268 113.025L99.9382 112.254L96.0301 126.227L72.2491 129.756L72.2351 129.758L63.8618 131.752L62.2893 133.074Z" fill="#929299"/>
<path d="M116.346 280.87L0.505916 281.001C0.225604 281 -0.000905241 280.772 2.72016e-06 280.491C0.000902156 280.212 0.226878 279.986 0.505916 279.985L116.346 279.854C116.626 279.855 116.852 280.083 116.852 280.364C116.851 280.643 116.625 280.869 116.346 280.87Z" fill="#D9D9D9"/>
<path d="M24.2025 38.6588C26.1934 38.6588 27.8073 37.0091 27.8073 34.9742C27.8073 32.9392 26.1934 31.2896 24.2025 31.2896C22.2116 31.2896 20.5977 32.9392 20.5977 34.9742C20.5977 37.0091 22.2116 38.6588 24.2025 38.6588Z" fill="#494949"/>
<path d="M36.6556 38.6588C38.6465 38.6588 40.2604 37.0091 40.2604 34.9742C40.2604 32.9392 38.6465 31.2896 36.6556 31.2896C34.6647 31.2896 33.0508 32.9392 33.0508 34.9742C33.0508 37.0091 34.6647 38.6588 36.6556 38.6588Z" fill="#494949"/>
<path d="M49.1087 38.6588C51.0996 38.6588 52.7136 37.0091 52.7136 34.9742C52.7136 32.9392 51.0996 31.2896 49.1087 31.2896C47.1178 31.2896 45.5039 32.9392 45.5039 34.9742C45.5039 37.0091 47.1178 38.6588 49.1087 38.6588Z" fill="#494949"/>
<path d="M63.3084 37.8875C63.1976 37.8875 63.0871 37.8447 63.0037 37.7593L60.5713 35.2729C60.4092 35.1072 60.4092 34.8424 60.5713 34.6768L63.0037 32.1905C63.1687 32.0223 63.4389 32.0196 63.6064 32.1838C63.7748 32.3485 63.7777 32.6184 63.6131 32.7866L61.4723 34.9748L63.6131 37.1632C63.7777 37.3314 63.7748 37.6013 63.6064 37.766C63.5236 37.8472 63.416 37.8875 63.3084 37.8875Z" fill="#494949"/>
<path d="M67.3955 37.8874C67.2879 37.8874 67.1803 37.847 67.0975 37.7658C66.9291 37.6012 66.9262 37.3314 67.0908 37.163L69.2313 34.9746L67.0908 32.7864C66.9262 32.6183 66.9291 32.3483 67.0975 32.1837C67.2654 32.0188 67.5356 32.0219 67.7003 32.1903L70.1324 34.6766C70.2945 34.8423 70.2945 35.107 70.1324 35.2727L67.7003 37.7591C67.6168 37.8445 67.5063 37.8874 67.3955 37.8874Z" fill="#494949"/>
<path d="M194.642 31.7163H190.12C189.604 31.7163 189.186 32.134 189.186 32.6498V37.1769C189.186 37.6927 189.604 38.1104 190.12 38.1104H194.642C195.158 38.1104 195.58 37.6927 195.58 37.1769V32.6498C195.58 32.134 195.158 31.7163 194.642 31.7163Z" fill="#494949"/>
<path d="M183.559 31.7163H179.037C178.521 31.7163 178.103 32.134 178.103 32.6498V37.1769C178.103 37.6927 178.521 38.1104 179.037 38.1104H183.559C184.075 38.1104 184.497 37.6927 184.497 37.1769V32.6498C184.497 32.134 184.075 31.7163 183.559 31.7163Z" fill="#494949"/>
<path d="M205.086 31.9292H200.563C200.048 31.9292 199.63 32.3469 199.63 32.8627V37.3898C199.63 37.9056 200.048 38.3233 200.563 38.3233H205.086C205.602 38.3233 206.024 37.9056 206.024 37.3898V32.8627C206.024 32.3469 205.602 31.9292 205.086 31.9292Z" fill="#494949"/>
<path d="M136.916 33.6514H100.764C100.133 33.6514 99.6255 34.1629 99.6255 34.7895C99.6255 35.4162 100.133 35.9277 100.764 35.9277H136.916C137.542 35.9277 138.054 35.4161 138.054 34.7895C138.054 34.1629 137.542 33.6514 136.916 33.6514Z" fill="#494949"/>
</g>
<defs>
<clipPath id="clip0_848_6612">
<rect width="250" height="281" fill="white"/>
</clipPath>
</defs>
</svg>
