<svg width="68" height="40" viewBox="0 0 68 40" fill="none" xmlns="http://www.w3.org/2000/svg">
<path d="M34.6532 0.5H64.3471C66.2978 0.5 67.8872 2.11518 67.8872 4.09745V24.2321C67.8872 26.2144 66.2978 27.8296 64.3471 27.8296H61.8364V34.8226L54.9548 27.8296H34.6532C32.7025 27.8296 31.113 26.2144 31.113 24.2321V4.09745C31.113 2.11518 32.7025 0.5 34.6532 0.5Z" fill="white"/>
<path fill-rule="evenodd" clip-rule="evenodd" d="M60.6106 26.6038V31.8293L55.4683 26.6038H34.6532C33.3979 26.6038 32.3388 25.556 32.3388 24.2321V4.09745C32.3388 2.77355 33.3979 1.72581 34.6532 1.72581H64.3471C65.6023 1.72581 66.6614 2.77355 66.6614 4.09745V24.2321C66.6614 25.556 65.6023 26.6038 64.3471 26.6038H60.6106ZM61.8364 34.8226V27.8296H64.3471C66.2978 27.8296 67.8872 26.2144 67.8872 24.2321V4.09745C67.8872 2.11518 66.2978 0.5 64.3471 0.5H34.6532C32.7025 0.5 31.113 2.11518 31.113 4.09745V24.2321C31.113 26.2144 32.7025 27.8296 34.6532 27.8296H54.9548L61.8364 34.8226Z" fill="#D9D9D9"/>
<path d="M34.79 6.62935C34.79 5.27536 35.8877 4.17773 37.2417 4.17773H61.7578C63.1118 4.17773 64.2094 5.27536 64.2094 6.62935V21.339C64.2094 22.693 63.1118 23.7906 61.7578 23.7906H37.2417C35.8877 23.7906 34.79 22.693 34.79 21.339V6.62935Z" fill="#16B378" fill-opacity="0.15"/>
<path d="M50.2033 7.07422L49.9734 17.1453H47.7307L47.5079 7.07422H50.2033ZM48.8521 21.4914C48.4296 21.4914 48.0674 21.3428 47.7656 21.0456C47.4684 20.7485 47.3198 20.3863 47.3198 19.9591C47.3198 19.5412 47.4684 19.1837 47.7656 18.8865C48.0674 18.5894 48.4296 18.4408 48.8521 18.4408C49.2653 18.4408 49.6229 18.5894 49.9247 18.8865C50.2311 19.1837 50.3843 19.5412 50.3843 19.9591C50.3843 20.2424 50.3124 20.5001 50.1684 20.7322C50.0291 20.9644 49.8434 21.1501 49.6112 21.2894C49.3837 21.424 49.1307 21.4914 48.8521 21.4914Z" fill="#16B378"/>
<path d="M33.3468 5.17773H3.65294C1.70225 5.17773 0.112793 6.79291 0.112793 8.77518V28.9099C0.112793 30.8921 1.70225 32.5073 3.65294 32.5073H6.16356V39.5003L13.0452 32.5073H33.3468C35.2975 32.5073 36.887 30.8921 36.887 28.9099V8.77518C36.887 6.79291 35.2975 5.17773 33.3468 5.17773Z" fill="white"/>
<path fill-rule="evenodd" clip-rule="evenodd" d="M7.38936 31.2815V36.507L12.5317 31.2815H33.3468C34.6021 31.2815 35.6612 30.2338 35.6612 28.9099V8.77518C35.6612 7.45128 34.6021 6.40354 33.3468 6.40354H3.65294C2.39772 6.40354 1.3386 7.45128 1.3386 8.77518V28.9099C1.3386 30.2338 2.39772 31.2815 3.65294 31.2815H7.38936ZM6.16356 39.5003V32.5073H3.65294C1.70225 32.5073 0.112793 30.8921 0.112793 28.9099V8.77518C0.112793 6.79291 1.70225 5.17773 3.65294 5.17773H33.3468C35.2975 5.17773 36.887 6.79291 36.887 8.77518V28.9099C36.887 30.8921 35.2975 32.5073 33.3468 32.5073H13.0452L6.16356 39.5003Z" fill="#D9D9D9"/>
<path d="M3.79004 11.3071C3.79004 9.95309 4.88766 8.85547 6.24165 8.85547H30.7578C32.1118 8.85547 33.2094 9.95309 33.2094 11.3071V26.0168C33.2094 27.3707 32.1118 28.4684 30.7578 28.4684H6.24165C4.88766 28.4684 3.79004 27.3707 3.79004 26.0168V11.3071Z" fill="#16B378" fill-opacity="0.15"/>
<path d="M17.3021 21.8228V21.6417C17.3067 20.8013 17.3856 20.1326 17.5389 19.6358C17.6967 19.139 17.9196 18.7397 18.2075 18.4379C18.4954 18.1314 18.8459 17.8505 19.2592 17.5951C19.5424 17.4187 19.7955 17.226 20.0183 17.0171C20.2459 16.8035 20.4246 16.5667 20.5546 16.3066C20.6846 16.042 20.7497 15.7471 20.7497 15.4221C20.7497 15.0553 20.6638 14.7372 20.492 14.4679C20.3202 14.1986 20.088 13.9897 19.7955 13.8411C19.5076 13.6925 19.1849 13.6182 18.8274 13.6182C18.4977 13.6182 18.1843 13.6902 17.8871 13.8341C17.5946 13.9734 17.3508 14.187 17.1558 14.4749C16.9654 14.7581 16.8586 15.118 16.8354 15.5544H14.356C14.3792 14.6722 14.5928 13.934 14.9967 13.3396C15.4053 12.7453 15.9439 12.2996 16.6126 12.0024C17.2858 11.7052 18.0287 11.5566 18.8413 11.5566C19.7281 11.5566 20.5082 11.7122 21.1815 12.0233C21.8594 12.3344 22.3864 12.7778 22.7625 13.3536C23.1432 13.9247 23.3336 14.6026 23.3336 15.3873C23.3336 15.9166 23.2477 16.3902 23.0759 16.8081C22.9087 17.226 22.6696 17.5975 22.3585 17.9225C22.0474 18.2475 21.6783 18.5377 21.2511 18.7931C20.875 19.0252 20.5662 19.2667 20.3248 19.5174C20.088 19.7682 19.9116 20.063 19.7955 20.4019C19.684 20.7363 19.626 21.1495 19.6214 21.6417V21.8228H17.3021ZM18.5139 26.1688C18.0961 26.1688 17.7362 26.0202 17.4344 25.7231C17.1326 25.4259 16.9817 25.0637 16.9817 24.6366C16.9817 24.2187 17.1326 23.8611 17.4344 23.564C17.7362 23.2668 18.0961 23.1182 18.5139 23.1182C18.9272 23.1182 19.2847 23.2668 19.5865 23.564C19.893 23.8611 20.0462 24.2187 20.0462 24.6366C20.0462 24.9198 19.9742 25.1775 19.8303 25.4096C19.691 25.6418 19.5053 25.8275 19.2731 25.9668C19.0456 26.1015 18.7925 26.1688 18.5139 26.1688Z" fill="#16B378"/>
</svg>
