<svg xmlns="http://www.w3.org/2000/svg" width="655.23041" height="504.54282" viewBox="0 0 655.23041 504.54282" xmlns:xlink="http://www.w3.org/1999/xlink" role="img" artist="Katerina Limpitsouni" source="https://undraw.co/"><g><polygon points="431.995 495.42429 445.38431 495.42304 451.75366 443.77802 431.99234 443.77942 431.995 495.42429" fill="#a0616a"/><path d="M477.86841,495.12058h0c.41687,.70212,.63684,2.96829,.63684,3.78482h0c0,2.50977-2.03455,4.54437-4.54437,4.54437h-41.46506c-1.71216,0-3.10019-1.38797-3.10019-3.10019v-1.72632s-2.05124-5.18851,2.17191-11.58362c0,0,5.24878,5.00748,13.09183-2.83557l2.31284-4.18988,16.74179,12.24411,9.27972,1.14224c2.03021,.24988,3.8302-.03879,4.87451,1.72006h.00018v-.00003Z" fill="#2f2e41"/></g><g><polygon points="472.83075 481.80054 485.474 486.20753 508.49149 439.53885 489.83148 433.03403 472.83075 481.80054" fill="#a0616a"/><path d="M516.24658,496.61683h0c.16248,.80023-.37592,3.01248-.64471,3.78348h0c-.82629,2.36984-3.4173,3.62119-5.78717,2.79486l-39.15332-13.65173c-1.6167-.56369-2.4704-2.33127-1.90665-3.94803l.56839-1.63007s-.22864-5.57458,5.8645-10.22275c0,0,3.30756,6.45636,13.29547,1.63281l3.56335-3.19482,11.77722,17.07346,8.38629,4.13376c1.83478,.90436,3.62939,1.2244,4.03644,3.229l.00012,.00006,.00006-.00003Z" fill="#2f2e41"/></g><path d="M56.08086,177.00002H4.08086c-2.20557,0-4-1.79443-4-4s1.79443-4,4-4H56.08086c2.20557,0,4,1.79443,4,4s-1.79443,4-4,4Z" fill="#e6e6e6"/><rect y="138.5709" width="195.08105" height="1" fill="#e6e6e6"/><path d="M135.08086,247.00002h-52c-2.20557,0-4-1.79443-4-4s1.79443-4,4-4h52c2.20557,0,4,1.79443,4,4s-1.79443,4-4,4Z" fill="#e6e6e6"/><rect x="79" y="208.5709" width="195.08105" height="1" fill="#e6e6e6"/><path d="M62.08086,339.00001H10.08086c-2.20557,0-4-1.79443-4-4s1.79443-4,4-4H62.08086c2.20557,0,4,1.79443,4,4s-1.79443,4-4,4Z" fill="#e6e6e6"/><rect x="6" y="300.57093" width="195.08105" height="1" fill="#e6e6e6"/><g><path d="M178.83574,305.04697l-8.22992-3.89856c3.37555,4.71082,6.28418,12.06805,7.84137,17.92249,2.63654-5.45343,6.88672-12.1261,11.09375-16.11194l-8.69812,2.23767c5.35974-26.26794,25.5191-45.12573,48.60437-45.12573v-2c-24.11316,0-45.13898,19.64758-50.61145,46.97607Z" fill="#3f3d56"/><path d="M216.71492,345.07093h-52c-2.20557,0-4-1.79443-4-4s1.79443-4,4-4h52c2.20557,0,4,1.79443,4,4s-1.79443,4-4,4Z" fill="#16b378"/></g><g><path d="M554.02051,269.14426l-8.22992-3.89856c3.37555,4.71082,6.28418,12.06805,7.84137,17.92249,2.63654-5.45343,6.88672-12.1261,11.09375-16.11194l-8.69812,2.23767c5.35974-26.26794,25.5191-45.12573,48.60437-45.12573v-2c-24.11316,0-45.13898,19.64758-50.61145,46.97607Z" fill="#3f3d56"/><path d="M591.89972,309.16822h-52c-2.20557,0-4-1.79443-4-4s1.79443-4,4-4h52c2.20557,0,4,1.79443,4,4s-1.79443,4-4,4Z" fill="#16b378"/></g><polygon points="496.89758 193.00002 407.89758 206.00002 429.89758 473.00001 454.89758 472.00001 462.89758 290.00001 495.89758 371.00001 475.89758 471.00001 500.89758 470.02363 530.89758 370.00001 510.89758 256.00001 496.89758 193.00002" fill="#2f2e41"/><path d="M470.89758,62.00002h-32.39371l-26.28304,145.95483s15.648,21.46273,46.66237,1.25395,45.33763-3.25395,45.33763-3.25395l-33.32325-143.95484h0Z" fill="#16b378"/><path d="M420.22084,314.95484l30.67675-55.95484,2-163.99999-14.39374-33-8.60626,14-26,16.10237,5.0395,70.90985-1.78871,46.05866-.92754,23.88395c-3.24083,14.31367,2.52127,72.85544,14,82Z" fill="#2f2e41"/><path d="M471.78009,65.65272l31.61749,26.84729,18.5,158.50001,.32325-.04518c1.69728,6.65636,1.81754,47.26144-2.00277,52.97048l-45.82049-46.42532-13.5-163.49999,10.88251-28.34729Z" fill="#2f2e41"/><g><path d="M577.36719,227.41327c3.01202,5.8307,2.4458,12.11119-1.26459,14.02792-3.71045,1.91673-9.16003-1.25613-12.17206-7.08684-1.31848-2.55231-1.95111-5.19075-1.93475-7.51169l-12.45282-24.86644,11.79358-5.59526,11.02429,25.10732c1.90228,1.3298,3.68787,3.37268,5.00635,5.92497v.00002Z" fill="#a0616a"/><path d="M477.35535,69.86135s23.43933,18.92402,30.6712,25.52211c3.84296,3.50616,29.61536,57.60751,29.61536,57.60751l35.79688,62.34163-18.60724,7.06787-38.06311-57.48177-32.87085-37.91867-6.54224-57.13867v-.00002Z" fill="#2f2e41"/></g><g><path d="M331.42795,233.41327c-3.01202,5.8307-2.44583,12.11119,1.26462,14.02792s9.16003-1.25613,12.17206-7.08684c1.31845-2.55231,1.95114-5.19075,1.93475-7.51169l12.45282-24.86644-11.79361-5.59526-11.02429,25.10732c-1.90228,1.3298-3.68787,3.37268-5.00635,5.92497v.00002Z" fill="#a0616a"/><path d="M430.79184,74.50296s-22.79132,12.28241-30.02322,18.8805c-3.84296,3.50616-29.61536,65.60751-29.61536,65.60751l-35.79684,62.34163,18.60724,7.06787,38.06314-57.48177,25.87082-31.91867,12.89426-64.49706-.00003-.00002Z" fill="#2f2e41"/></g><circle cx="455.41855" cy="30.49127" r="26.11532" fill="#a0616a"/><path d="M466.13388,.00002s1.86801,7.47205-6.53806,.93401c-3.06522-2.38406-6.98517,1.45402-10.27408,1.86801-5.73056,.72134-10.27408,.17546-10.27408,3.73602,0,2.27624-3.02295-1.18764-4.67004-.93401-2.40796,.3708-3.73602,3.73602-3.73602,3.73602-3.64743,2.32111-6.53802,7.47205-.93402,9.34006-5.60403,6.53804-.40942,9.86954-.40942,9.86954l5.07947-6.13352c2.63086,1.43502,6.20319,5.14305,7.51337,3.06317,3.6947-5.86519,14.56665,.24976,19.07159-2.21354,4.53641-2.4805,7.03925,7.55642,7.03925,7.55642l2.07837,1.08108s-1.14435-2.01509,4.45966-3.8831c2.802-.93401,3.5025,1.86801,3.5025,4.90353,0,3.43348-.97791,6.79637-2.66479,9.78689l-5.29736,9.39119,2.32599-1.48312c4.89557-3.12153,8.09424-8.08768,9.82263-13.63052,.08337-.26745,.19415-.50902,.3374-.71566l-.55432-4.51628,1.82831,2.14621c.28198-.80369,.35431-1.55436,.03973-2.14621-3.36713-6.33555,1.86798-10.27407-3.73602-18.68012-8.30566-12.4585-14.0101-13.07608-14.0101-13.07608h.00006V.00002Z" fill="#2f2e41"/><path d="M289.56036,503.35282c0,.66003,.53003,1.19,1.19006,1.19h363.28998c.65997,0,1.19-.52997,1.19-1.19,0-.65997-.53003-1.19-1.19-1.19H290.75043c-.66003,0-1.19006,.53003-1.19006,1.19Z" fill="#ccc"/><g><path d="M247.07872,249.50002h-31.3623c-4.03564,0-7.31885-3.2832-7.31885-7.31885v-35.3623c0-4.03564,3.2832-7.31885,7.31885-7.31885h31.3623c4.03564,0,7.31885,3.2832,7.31885,7.31885v35.3623c0,4.03564-3.2832,7.31885-7.31885,7.31885Z" fill="#fff"/><path d="M247.07872,249.50002h-31.3623c-4.03564,0-7.31885-3.2832-7.31885-7.31885v-35.3623c0-4.03564,3.2832-7.31885,7.31885-7.31885h31.3623c4.03564,0,7.31882,3.2832,7.31882,7.31885,3.51466,11.12619,3.15779,22.98074,0,35.3623,0,4.03564-3.28317,7.31885-7.31882,7.31885Zm-31.3623-49c-3.48438,0-6.31885,2.83447-6.31885,6.31885v35.3623c0,3.48438,2.83447,6.31885,6.31885,6.31885h31.3623c3.48438,0,6.31885-2.83447,6.31885-6.31885v-35.3623c0-3.48438-2.83447-6.31885-6.31885-6.31885h-31.3623Z" fill="#3f3d56"/><path d="M243.90977,221.00002h-25.84116c-1.09604,0-1.98779-.89174-1.98779-1.98778s.89175-1.98778,1.98779-1.98778h25.84116c1.09604,0,1.98779,.89174,1.98779,1.98778s-.89175,1.98778-1.98779,1.98778Z" fill="#16b378"/><path d="M243.90977,232.00002h-25.84116c-1.09604,0-1.98779-.89174-1.98779-1.98778s.89175-1.98778,1.98779-1.98778h25.84116c1.09604,0,1.98779,.89174,1.98779,1.98778s-.89175,1.98778-1.98779,1.98778Z" fill="#16b378"/></g><g><path d="M49.29526,154.69294H17.93296c-4.03564,0-7.31885-3.2832-7.31885-7.31885v-35.3623c0-4.03564,3.2832-7.31885,7.31885-7.31885h31.3623c4.03564,0,7.31885,3.2832,7.31885,7.31885v35.3623c0,4.03564-3.2832,7.31885-7.31885,7.31885Z" fill="#fff"/><path d="M49.29526,154.69294H17.93296c-4.03564,0-7.31886-3.2832-7.31886-7.31885-1.57703-13.02136-2.01147-25.14868,0-35.3623,0-4.03564,3.28322-7.31884,7.31886-7.31884h31.3623c4.03564,0,7.31885,3.2832,7.31885,7.31885v35.3623c0,4.03564-3.2832,7.31885-7.31885,7.31885Zm-31.3623-49c-3.48438,0-6.31885,2.83447-6.31885,6.31885v35.3623c0,3.48438,2.83447,6.31885,6.31885,6.31885h31.3623c3.48438,0,6.31885-2.83447,6.31885-6.31885v-35.3623c0-3.48438-2.83447-6.31885-6.31885-6.31885H17.93296Z" fill="#3f3d56"/><path d="M46.12632,126.19292H20.28518c-1.09605,0-1.98778-.89174-1.98778-1.98778s.89174-1.98778,1.98778-1.98778h25.84115c1.09605,0,1.98778,.89174,1.98778,1.98778s-.89174,1.98778-1.98779,1.98778Z" fill="#16b378"/><path d="M46.12632,137.19294H20.28518c-1.09605,0-1.98778-.89174-1.98778-1.98778s.89174-1.98778,1.98778-1.98778h25.84115c1.09605,0,1.98778,.89174,1.98778,1.98778s-.89174,1.98778-1.98779,1.98778Z" fill="#16b378"/><path d="M46.12632,115.19292H20.28518c-1.09605,0-1.98778-.89174-1.98778-1.98778s.89174-1.98778,1.98778-1.98778h25.84115c1.09605,0,1.98778,.89174,1.98778,1.98778s-.89174,1.98778-1.98779,1.98778Z" fill="#16b378"/></g><g><path d="M383.94492,226.95511l-23.43674,20.84016c-3.01581,2.68169-7.651,2.40988-10.33264-.60593-9.74176-7.73694-17.73267-16.45679-23.49817-26.42596-2.6817-3.01575-2.40985-7.65096,.60593-10.33263l23.43674-20.84016c3.01581-2.68169,7.651-2.40985,10.33267,.60596l23.49817,26.42592c2.68167,3.01579,2.40985,7.65099-.60596,10.33266v-.00002Z" fill="#fff"/><path d="M383.94492,226.95511l-23.43674,20.84016c-3.01581,2.68169-7.651,2.40988-10.33264-.60593-11.11359-6.80438-19.44055-15.3111-23.49817-26.42596-2.6817-3.01575-2.40985-7.65096,.60593-10.33263l23.43674-20.84016c3.01581-2.68169,7.651-2.40985,10.33267,.60596l23.49817,26.42592c2.68167,3.01579,2.40985,7.65099-.60596,10.33266v-.00002Zm-55.99713-15.77705c-2.60385,2.31535-2.8385,6.31703-.52319,8.92085,5.19757,10.54388,13.21167,19.23315,23.49817,26.42596,2.31537,2.60382,6.31705,2.83849,8.9209,.52313l23.43674-20.84016c2.60385-2.31535,2.83853-6.31703,.52316-8.92087l-23.49817-26.42592c-2.31537-2.60384-6.31702-2.83852-8.92087-.52316l-23.43674,20.84016Z" fill="#3f3d56"/><path d="M362.63864,207.76308l-19.31085,17.17139c-.81906,.72832-2.078,.6545-2.80634-.16457s-.65448-2.078,.16458-2.80634l19.31085-17.17137c.81906-.72832,2.078-.6545,2.80634,.16457s.65448,2.078-.16458,2.80634v-.00002Z" fill="#16b378"/><path d="M369.94812,215.98327l-19.31085,17.17139c-.81906,.72832-2.078,.6545-2.80634-.16457s-.65448-2.078,.16458-2.80634l19.31085-17.17137c.81906-.72832,2.078-.6545,2.80634,.16457s.65448,2.078-.16458,2.80634v-.00002Z" fill="#16b378"/><path d="M355.32916,199.54288l-19.31085,17.17137c-.81906,.72832-2.078,.6545-2.80634-.16457s-.65448-2.078,.16458-2.80634l19.31085-17.17137c.81906-.72832,2.078-.6545,2.80634,.16457s.65448,2.078-.16458,2.80634Z" fill="#16b378"/></g><g><path d="M114.29526,329.69291h-31.3623c-4.03564,0-7.31885-3.2832-7.31885-7.31885v-35.3623c0-4.03564,3.2832-7.31885,7.31885-7.31885h31.3623c4.03564,0,7.31885,3.2832,7.31885,7.31885v35.3623c0,4.03564-3.2832,7.31885-7.31885,7.31885Z" fill="#fff"/><path d="M114.29526,329.69291h-31.3623c-4.03564,0-7.31886-3.2832-7.31886-7.31885-2.78049-11.65225-2.54993-23.45087,0-35.3623,0-4.03564,3.28322-7.31885,7.31886-7.31885h31.3623c4.03564,0,7.31885,3.2832,7.31885,7.31885v35.3623c0,4.03564-3.2832,7.31885-7.31885,7.31885Zm-31.3623-49c-3.48438,0-6.31885,2.83447-6.31885,6.31885v35.3623c0,3.48438,2.83447,6.31885,6.31885,6.31885h31.3623c3.48438,0,6.31885-2.83447,6.31885-6.31885v-35.3623c0-3.48438-2.83447-6.31885-6.31885-6.31885h-31.3623Z" fill="#3f3d56"/><path d="M111.12632,301.19291h-25.84116c-1.09605,0-1.98778-.89175-1.98778-1.98779s.89174-1.98779,1.98778-1.98779h25.84116c1.09605,0,1.98778,.89175,1.98778,1.98779s-.89174,1.98779-1.98777,1.98779Z" fill="#16b378"/></g></svg>