<svg width="107" height="42" viewBox="0 0 107 42" fill="none" xmlns="http://www.w3.org/2000/svg">
<path d="M45.1257 5.21875H2.64915C1.69143 5.21875 0.915039 5.99536 0.915039 6.95336V35.4722C0.915039 36.4302 1.69143 37.2068 2.64915 37.2068H45.1257C46.0834 37.2068 46.8598 36.4302 46.8598 35.4722V6.95336C46.8598 5.99536 46.0834 5.21875 45.1257 5.21875Z" fill="white"/>
<path d="M45.1223 5.77642C45.7722 5.77642 46.2995 6.30386 46.2995 6.95387V35.4727C46.2995 36.1227 45.7722 36.6502 45.1223 36.6502H2.64951C1.99968 36.6502 1.47239 36.1227 1.47239 35.4727V6.95387C1.47239 6.30386 1.99968 5.77642 2.64951 5.77642H45.1223ZM45.1223 4.66211H2.64951C1.38327 4.66211 0.358398 5.68727 0.358398 6.95387V35.4727C0.358398 36.7393 1.38327 37.7645 2.64951 37.7645H45.1223C46.3886 37.7645 47.4135 36.7393 47.4135 35.4727V6.95387C47.4135 5.68727 46.3886 4.66211 45.1223 4.66211Z" fill="#D9D9D9"/>
<path d="M41.2008 8.80078H6.93063C5.9442 8.80078 5.14453 9.60067 5.14453 10.5874V32.0564C5.14453 33.0431 5.9442 33.843 6.93063 33.843H41.2008C42.1872 33.843 42.9869 33.0431 42.9869 32.0564V10.5874C42.9869 9.60067 42.1872 8.80078 41.2008 8.80078Z" fill="#D6EEE5"/>
<path d="M29.0251 22.3705C30.0153 21.7985 30.0152 20.3688 29.0249 19.797L20.2727 14.7441C19.2825 14.1725 18.0449 14.8873 18.0449 16.0309V26.1392C18.0449 27.283 19.2828 27.9978 20.273 27.4258L29.0251 22.3705Z" fill="#16B378"/>
<path d="M103.854 5.21875H61.3772C60.4195 5.21875 59.6431 5.99536 59.6431 6.95336V35.4722C59.6431 36.4302 60.4195 37.2068 61.3772 37.2068H103.854C104.811 37.2068 105.588 36.4302 105.588 35.4722V6.95336C105.588 5.99536 104.811 5.21875 103.854 5.21875Z" fill="white"/>
<path d="M103.85 5.77642C104.5 5.77642 105.027 6.30386 105.027 6.95387V35.4727C105.027 36.1227 104.5 36.6502 103.85 36.6502H61.377C60.7272 36.6502 60.1999 36.1227 60.1999 35.4727V6.95387C60.1999 6.30386 60.7272 5.77642 61.377 5.77642H103.85ZM103.85 4.66211H61.377C60.1108 4.66211 59.0859 5.68727 59.0859 6.95387V35.4727C59.0859 36.7393 60.1108 37.7645 61.377 37.7645H103.85C105.116 37.7645 106.141 36.7393 106.141 35.4727V6.95387C106.141 5.68727 105.116 4.66211 103.85 4.66211Z" fill="#D9D9D9"/>
<path d="M99.9288 8.80078H65.6587C64.6722 8.80078 63.8726 9.60067 63.8726 10.5874V32.0564C63.8726 33.0431 64.6722 33.843 65.6587 33.843H99.9288C100.915 33.843 101.715 33.0431 101.715 32.0564V10.5874C101.715 9.60067 100.915 8.80078 99.9288 8.80078Z" fill="#D6EEE5"/>
<path d="M87.7527 22.3705C88.7429 21.7985 88.7427 20.3688 87.7524 19.797L79.0003 14.7441C78.0101 14.1725 76.7725 14.8873 76.7725 16.0309V26.1392C76.7725 27.283 78.0103 27.9978 79.0005 27.4258L87.7527 22.3705Z" fill="#16B378"/>
<path d="M80.4243 1.31445H28.1469C26.9682 1.31445 26.0127 2.27025 26.0127 3.44929V38.5484C26.0127 39.7275 26.9682 40.6833 28.1469 40.6833H80.4243C81.603 40.6833 82.5586 39.7275 82.5586 38.5484V3.44929C82.5586 2.27025 81.603 1.31445 80.4243 1.31445Z" fill="white"/>
<path d="M80.4197 2.00032C81.2195 2.00032 81.8684 2.64946 81.8684 3.44945V38.5486C81.8684 39.3486 81.2195 39.9977 80.4197 39.9977H28.1469C27.3471 39.9977 26.6982 39.3486 26.6982 38.5486V3.44945C26.6982 2.64946 27.3471 2.00032 28.1469 2.00032H80.4197ZM80.4197 0.628906H28.1469C26.5885 0.628906 25.3271 1.89061 25.3271 3.44945V38.5486C25.3271 40.1074 26.5885 41.3691 28.1469 41.3691H80.4197C81.9781 41.3691 83.2395 40.1074 83.2395 38.5486V3.44945C83.2395 1.89061 81.9781 0.628906 80.4197 0.628906Z" fill="#D9D9D9"/>
<path d="M75.5934 5.72266H33.416C32.2019 5.72266 31.2178 6.70711 31.2178 7.9215V34.3441C31.2178 35.5585 32.2019 36.543 33.416 36.543H75.5934C76.8075 36.543 77.7917 35.5585 77.7917 34.3441V7.9215C77.7917 6.70711 76.8075 5.72266 75.5934 5.72266Z" fill="#D6EEE5"/>
<path d="M60.608 22.4226C61.8267 21.7187 61.8265 19.9591 60.6076 19.2554L49.8361 13.0366C48.6174 12.3331 47.0942 13.2128 47.0942 14.6203V27.0609C47.0942 28.4686 48.6177 29.3484 49.8364 28.6445L60.608 22.4226Z" fill="#16B378"/>
</svg>
