<?xml version="1.0" encoding="UTF-8"?>
<svg width="16px" height="16px" viewBox="0 0 16 16" version="1.1" xmlns="http://www.w3.org/2000/svg" xmlns:xlink="http://www.w3.org/1999/xlink">
    <!-- Generator: Sketch 52.5 (67469) - http://www.bohemiancoding.com/sketch -->
    <title>Icons / Data Types / TypeCustom</title>
    <desc>Created with Sketch.</desc>
    <g id="Icons-/-Data-Types-/-TypeCustom" stroke="none" stroke-width="1" fill="none" fill-rule="evenodd">
        <path d="M13,7 C14.6571424,7 16,8.34285763 16,10 C16,11.6571424 14.6571424,13 13,13 L13,15.5 C13,15.7761424 12.7761424,16 12.5,16 L9.45,16 C9.21226087,16 9.00739628,15.8325986 8.96002598,15.5996266 C8.7720288,14.675037 7.95556219,14 7,14 C6.04443781,14 5.2279712,14.675037 5.03997402,15.5996266 C4.99260372,15.8325986 4.78773913,16 4.55,16 L1.5,16 C1.22385763,16 1,15.7761424 1,15.5 L1,12.45 C1,12.2122609 1.16740139,12.0073963 1.40037338,11.960026 C2.32496298,11.7720288 3,10.9555622 3,10 C3,9.04443781 2.32496298,8.2279712 1.40037338,8.03997402 C1.16740139,7.99260372 1,7.78773913 1,7.55 L1,4.5 C1,4.22385763 1.22385763,4 1.5,4 L4,4 C4,2.34285763 5.34285763,1 7,1 C8.65714237,1 10,2.34285763 10,4 L12.5,4 C12.7761424,4 13,4.22385763 13,4.5 L13,7 Z M12,12.45 C12,12.1337505 12.2899168,11.8969369 12.5998022,11.9600617 C12.7299854,11.9865805 12.8635794,12 13,12 C14.1048576,12 15,11.1048576 15,10 C15,8.89514237 14.1048576,8 13,8 C12.8670206,8 12.7327208,8.01369174 12.5968932,8.04052187 C12.2878264,8.10157211 12,7.86503879 12,7.55 L12,5 L9.45,5 C9.13496121,5 8.89842789,4.71217362 8.95947813,4.40310679 C8.98630826,4.26727923 9,4.13297941 9,4 C9,2.89514237 8.10485763,2 7,2 C5.89514237,2 5,2.89514237 5,4 C5,4.13297941 5.01369174,4.26727923 5.04052187,4.40310679 C5.10157211,4.71217362 4.86503879,5 4.55,5 L2,5 L2,7.17075685 C3.17819581,7.5865826 4,8.70835751 4,10 C4,11.2916425 3.17819581,12.4134174 2,12.8292432 L2,15 L4.17075685,15 C4.5865826,13.8218042 5.70835751,13 7,13 C8.29164249,13 9.4134174,13.8218042 9.82924315,15 L12,15 L12,12.45 Z" id="Path" fill="#000000" fill-rule="nonzero"></path>
    </g>
</svg>