<?xml version="1.0" encoding="UTF-8"?>
<svg width="16px" height="16px" viewBox="0 0 16 16" version="1.1" xmlns="http://www.w3.org/2000/svg" xmlns:xlink="http://www.w3.org/1999/xlink">
    <!-- Generator: Sketch 52.5 (67469) - http://www.bohemiancoding.com/sketch -->
    <title>Icons / Data Types / TypeCard</title>
    <desc>Created with Sketch.</desc>
    <g id="Icons-/-Data-Types-/-TypeCard" stroke="none" stroke-width="1" fill="none" fill-rule="evenodd">
        <path d="M9.5,9 C9.22385763,9 9,8.77614237 9,8.5 C9,8.22385763 9.22385763,8 9.5,8 L12.5,8 C12.7761424,8 13,8.22385763 13,8.5 C13,8.77614237 12.7761424,9 12.5,9 L9.5,9 Z M9.5,12 C9.22385763,12 9,11.7761424 9,11.5 C9,11.2238576 9.22385763,11 9.5,11 L12.5,11 C12.7761424,11 13,11.2238576 13,11.5 C13,11.7761424 12.7761424,12 12.5,12 L9.5,12 Z M4.5,3 C4.77614237,3 5,3.22385763 5,3.5 C5,3.77614237 4.77614237,4 4.5,4 L1.5,4 C1.22385763,4 1,4.22385763 1,4.5 L1,13.5 C1,13.7761424 1.22385763,14 1.5,14 L14.5,14 C14.7761424,14 15,13.7761424 15,13.5 L15,4.5 C15,4.22385763 14.7761424,4 14.5,4 L11.5,4 C11.2238576,4 11,3.77614237 11,3.5 C11,3.22385763 11.2238576,3 11.5,3 L14.5,3 C15.3284271,3 16,3.67157288 16,4.5 L16,13.5 C16,14.3284271 15.3284271,15 14.5,15 L1.5,15 C0.671572875,15 1.66533454e-16,14.3284271 0,13.5 L0,4.5 C1.66533454e-16,3.67157288 0.671572875,3 1.5,3 L4.5,3 Z M4,9 L4,11 L6,11 L6,9 L4,9 Z M3.5,8 L6.5,8 C6.77614237,8 7,8.22385763 7,8.5 L7,11.5 C7,11.7761424 6.77614237,12 6.5,12 L3.5,12 C3.22385763,12 3,11.7761424 3,11.5 L3,8.5 C3,8.22385763 3.22385763,8 3.5,8 Z M9,5 L9,2 C9,1.44771525 8.55228475,1 8,1 C7.44771525,1 7,1.44771525 7,2 L7,5 L9,5 Z M8,0 C9.1045695,0 10,0.8954305 10,2 L10,5.5 C10,5.77614237 9.77614237,6 9.5,6 L6.5,6 C6.22385763,6 6,5.77614237 6,5.5 L6,2 C6,0.8954305 6.8954305,0 8,0 Z" id="Combined-Shape" fill="#000000" fill-rule="nonzero"></path>
    </g>
</svg>