<?xml version="1.0" encoding="UTF-8"?>
<svg width="16px" height="16px" viewBox="0 0 16 16" version="1.1" xmlns="http://www.w3.org/2000/svg" xmlns:xlink="http://www.w3.org/1999/xlink">
    <!-- Generator: Sketch 52.5 (67469) - http://www.bohemiancoding.com/sketch -->
    <title>Icons / Data Types / TypeTable</title>
    <desc>Created with Sketch.</desc>
    <g id="Icons-/-Data-Types-/-TypeTable" stroke="none" stroke-width="1" fill="none" fill-rule="evenodd">
        <path d="M8.5,1 L8.5,7.5 L15,7.5 L15,1 L8.5,1 Z M7.5,1 L1,1 L1,7.5 L7.5,7.5 L7.5,1 Z M1,8.5 L1,15 L7.5,15 L7.5,8.5 L1,8.5 Z M8.5,15 L15,15 L15,8.5 L8.5,8.5 L8.5,15 Z M0.533333333,0 L15.4666667,0 C15.7612185,0 16,0.238781467 16,0.533333333 L16,15.4666667 C16,15.7612185 15.7612185,16 15.4666667,16 L0.533333333,16 C0.238781467,16 0,15.7612185 0,15.4666667 L0,0.533333333 C0,0.238781467 0.238781467,0 0.533333333,0 Z" id="Combined-Shape" fill="#000000" fill-rule="nonzero"></path>
    </g>
</svg>