<?xml version="1.0" encoding="UTF-8"?>
<svg width="16px" height="16px" viewBox="0 0 16 16" version="1.1" xmlns="http://www.w3.org/2000/svg" xmlns:xlink="http://www.w3.org/1999/xlink">
    <!-- Generator: Sketch 52.5 (67469) - http://www.bohemiancoding.com/sketch -->
    <title>Icons / Data Types / TypeCell</title>
    <desc>Created with Sketch.</desc>
    <g id="Icons-/-Data-Types-/-TypeCell" stroke="none" stroke-width="1" fill="none" fill-rule="evenodd">
        <path d="M1,6 L1,10 L10,10 L10,6 L1,6 Z M1,5 L10,5 L10,1 L1.5,1 C1.22414237,1 1,1.22414237 1,1.5 L1,5 Z M11,1 L11,15 L14.5,15 C14.7758576,15 15,14.7758576 15,14.5 L15,1.5 C15,1.22414237 14.7758576,1 14.5,1 L11,1 Z M10,15 L10,11 L1,11 L1,14.5 C1,14.7758576 1.22414237,15 1.5,15 L10,15 Z M14.5,16 L1.5,16 C0.671857625,16 0,15.3281424 0,14.5 L0,1.5 C0,0.671857625 0.671857625,0 1.5,0 L14.5,0 C15.3281424,0 16,0.671857625 16,1.5 L16,14.5 C16,15.3281424 15.3281424,16 14.5,16 Z" id="Combined-Shape" fill="#000000" fill-rule="nonzero"></path>
    </g>
</svg>