<?xml version="1.0" encoding="UTF-8"?>
<svg width="16px" height="16px" viewBox="0 0 16 16" version="1.1" xmlns="http://www.w3.org/2000/svg" xmlns:xlink="http://www.w3.org/1999/xlink">
    <!-- Generator: Sketch 52.5 (67469) - http://www.bohemiancoding.com/sketch -->
    <title>TypeCardList</title>
    <desc>Created with Sketch.</desc>
    <g id="TypeCardList" stroke="none" stroke-width="1" fill="none" fill-rule="evenodd">
        <g id="cards-1" transform="translate(-1.000000, 1.000000)" fill="#000000" fill-rule="nonzero">
            <path d="M14.2324081,13 L15.5657415,11 L3.76759188,11 L2.43425855,13 L14.2324081,13 Z M14.5,14 L1.5,14 C1.10065231,14 0.86245661,13.5549273 1.08397485,13.2226499 L3.08397485,10.2226499 C3.17670774,10.0835506 3.33282341,10 3.5,10 L16.5,10 C16.8993477,10 17.1375434,10.4450727 16.9160251,10.7773501 L14.9160251,13.7773501 C14.8232923,13.9164494 14.6671766,14 14.5,14 Z M14.2324081,3 L15.5657415,1 L3.76759188,1 L2.43425855,3 L14.2324081,3 Z M14.5,4 L1.5,4 C1.10065231,4 0.86245661,3.55492727 1.08397485,3.2226499 L3.08397485,0.222649902 C3.17670774,0.0835505677 3.33282341,0 3.5,0 L16.5,0 C16.8993477,0 17.1375434,0.445072733 16.9160251,0.777350098 L14.9160251,3.7773501 C14.8232923,3.91644943 14.6671766,4 14.5,4 Z M14.2324081,8 L15.5657415,6 L3.76759188,6 L2.43425855,8 L14.2324081,8 Z M14.5,9 L1.5,9 C1.10065231,9 0.86245661,8.55492727 1.08397485,8.2226499 L3.08397485,5.2226499 C3.17670774,5.08355057 3.33282341,5 3.5,5 L16.5,5 C16.8993477,5 17.1375434,5.44507273 16.9160251,5.7773501 L14.9160251,8.7773501 C14.8232923,8.91644943 14.6671766,9 14.5,9 Z" id="Combined-Shape"></path>
        </g>
    </g>
</svg>