<svg width="16" height="12" fill="none" xmlns="http://www.w3.org/2000/svg">
  <mask id="a" maskUnits="userSpaceOnUse" x="0" y="0" width="16" height="12">
    <path fill="#fff" d="M0 0h16v12H0z"/>
  </mask>
  <g mask="url(#a)">
    <path fill-rule="evenodd" clip-rule="evenodd" d="M0 0h16v12H0V0z" fill="#E31D1C"/>
    <path fill-rule="evenodd" clip-rule="evenodd" d="M0 1v1h16V1H0zm0 2v1h16V3H0zm0 3V5h16v1H0zm0 1v1h16V7H0zm0 3V9h16v1H0zm0 2v-1h16v1H0z" fill="#F7FCFF"/>
    <path fill="#2E42A5" d="M0 0h9v7H0z"/>
    <path fill-rule="evenodd" clip-rule="evenodd" d="M1.04 2.174l.53-.37.411.297h-.233l.471.416-.159.584h-.249l-.242-.536-.206.536H.748l.471.416-.179.657.53-.37.411.297h-.233l.471.416-.159.584h-.249l-.242-.536-.206.536H.748l.471.416-.179.657.53-.37.513.37-.16-.657.412-.416h-.19l.425-.296.411.296h-.233l.471.416-.179.657.53-.37.513.37-.16-.657.412-.416h-.19l.425-.296.411.296h-.233l.471.416-.179.657.53-.37.513.37-.16-.657.412-.416h-.19l.425-.296.411.296h-.233l.471.416-.179.657.53-.37.513.37-.16-.657.412-.416h-.524l-.242-.536-.206.536h-.298l-.142-.584.412-.416h-.19l.425-.296.513.369-.16-.657.412-.416h-.524l-.242-.536-.206.536h-.298l-.142-.584.412-.416h-.19l.425-.296.513.369-.16-.657.412-.416h-.524L7.569.565l-.206.536h-.615l.471.416-.159.584h-.249l-.242-.536-.206.536h-.298l-.142-.584.412-.416h-.524L5.569.565l-.206.536h-.615l.471.416-.159.584h-.249l-.242-.536-.206.536h-.298l-.142-.584.412-.416h-.524L3.569.565l-.206.536h-.615l.471.416-.159.584h-.249l-.242-.536-.206.536h-.298l-.142-.584.412-.416h-.524L1.569.565l-.206.536H.748l.471.416-.179.657zM7.06 4.1l.159-.584-.47-.416h.232l-.411-.296-.425.296h.19l-.412.416.142.584h.298l.206-.536.242.536h.249zm-1.079 0l-.411-.296-.425.296h.19l-.412.416.142.584h.298l.206-.536.242.536h.249l.159-.584-.47-.416h.232zm-1.762.416L4.06 5.1h-.249l-.242-.536-.206.536h-.298l-.142-.584.412-.416h-.19l.425-.296.411.296h-.233l.471.416zm.144-.416h-.298l-.142-.584.412-.416h-.19l.425-.296.411.296h-.233l.471.416-.159.584h-.249l-.242-.536-.206.536zm-1.303 0l.159-.584-.47-.416h.232l-.411-.296-.425.296h.19l-.412.416.142.584h.298l.206-.536.242.536h.249zm3.159-1.584L6.06 3.1h-.249l-.242-.536-.206.536h-.298l-.142-.584.412-.416h-.19l.425-.296.411.296h-.233l.471.416zM3.981 2.1l-.411-.296-.425.296h.19l-.412.416.142.584h.298l.206-.536.242.536h.249l.159-.584-.47-.416h.232z" fill="#F7FCFF"/>
  </g>
</svg>
