<svg width="16" height="16" viewBox="0 0 16 16" fill="none" xmlns="http://www.w3.org/2000/svg">
<g clip-path="url(#clip0_439_8451)">
<path d="M15.5001 4.10039L8.5001 0.100391C8.2001 0.000390626 7.8001 0.000390626 7.5001 0.100391L0.500098 4.10039C-0.199902 4.50039 -0.199902 5.50039 0.500098 5.80039L7.5001 9.80039C7.8001 10.0004 8.2001 10.0004 8.5001 9.80039L15.5001 5.80039C16.2001 5.50039 16.2001 4.50039 15.5001 4.10039Z" fill="#4A5899"/>
<path d="M9.5 11.6C9 11.9 8.5 12 8 12C7.5 12 7 11.9 6.5 11.6L2 9V13C2 15.1 5.1 16 8 16C10.9 16 14 15.1 14 13V9L9.5 11.6Z" fill="#4A5899"/>
</g>
<defs>
<clipPath id="clip0_439_8451">
<rect width="16" height="16" fill="white"/>
</clipPath>
</defs>
</svg>
