<svg width="16" height="16" viewBox="0 0 16 16" fill="none" xmlns="http://www.w3.org/2000/svg">
<path d="M8.36719 9.68164V10.9783C8.83919 10.8983 9.07519 10.6936 9.07519 10.3636C9.07519 10.0123 8.68852 9.82897 8.36719 9.68164Z" fill="#0075A2"/>
<path d="M6.98193 7.20313C6.98193 7.57113 7.3146 7.7358 7.65393 7.88513V6.66113C7.20593 6.72713 6.98193 6.9078 6.98193 7.20313Z" fill="#0075A2"/>
<path d="M11.9999 2L9.99992 0L7.99992 2L5.99992 0L3.99992 2L1.33325 0V15.3333C1.33325 15.702 1.63192 16 1.99992 16H13.9999C14.3679 16 14.6666 15.702 14.6666 15.3333V0L11.9999 2ZM8.36725 12.2187V13.2867H7.65392V12.24C6.80659 12.2227 6.06325 12.0733 5.42459 11.792V10.4173C6.02459 10.714 6.97659 10.974 7.65392 11.016V9.40133C6.46125 8.93867 5.41459 8.49 5.41459 7.20333C5.41459 6.03467 6.48659 5.48533 7.65392 5.37V4.57267H8.36725V5.34867C9.16192 5.38333 9.88125 5.54333 10.5233 5.828L10.0339 7.04667C9.49259 6.82467 8.93659 6.68933 8.36725 6.64067V8.17733C9.63259 8.664 10.6433 9.10733 10.6433 10.2867C10.6433 11.53 9.61059 12.1047 8.36725 12.2187Z" fill="#0075A2"/>
</svg>
