<svg width="16" height="16" viewBox="0 0 16 16" fill="none" xmlns="http://www.w3.org/2000/svg">
<path d="M15.2751 10.2934L13.0871 9.66839C12.9102 9.61783 12.7508 9.51948 12.6262 9.38416C12.5017 9.24884 12.4168 9.08179 12.3811 8.90139L12.2471 8.22639C12.7696 7.98757 13.2126 7.60373 13.5234 7.12048C13.8341 6.63724 13.9996 6.07493 14.0001 5.50039V4.12639C14.0122 3.33083 13.7164 2.56138 13.1745 1.97882C12.6325 1.39627 11.8864 1.0457 11.0921 1.00039C10.4991 0.982496 9.91412 1.14082 9.41111 1.45533C8.90809 1.76985 8.50962 2.22644 8.26607 2.76739C8.74312 3.46167 8.99899 4.28401 9.00007 5.12639V6.50039C8.99828 6.86416 8.94611 7.22593 8.84507 7.57539C9.1043 7.84733 9.41231 8.06816 9.75307 8.22639L9.61907 8.90039C9.5833 9.08079 9.49848 9.24784 9.37392 9.38316C9.24936 9.51848 9.0899 9.61683 8.91307 9.66739L8.07007 9.90839L9.55007 10.3314C9.96727 10.4519 10.3341 10.7045 10.5956 11.0512C10.857 11.398 10.999 11.8201 11.0001 12.2544V14.5004C10.9984 14.6711 10.9673 14.8403 10.9081 15.0004H15.5001C15.6327 15.0004 15.7599 14.9477 15.8536 14.8539C15.9474 14.7602 16.0001 14.633 16.0001 14.5004V11.2544C16 11.0372 15.9292 10.826 15.7984 10.6526C15.6676 10.4792 15.4839 10.3531 15.2751 10.2934Z" fill="#688047"/>
<path d="M9.275 11.2934L7.087 10.6684C6.91004 10.6178 6.75049 10.5193 6.62592 10.3838C6.50135 10.2483 6.4166 10.081 6.381 9.90043L6.247 9.22543C6.7694 8.98669 7.21228 8.603 7.52303 8.11995C7.83377 7.6369 7.99932 7.0748 8 6.50043V5.12643C8.01213 4.33088 7.71632 3.56142 7.17439 2.97887C6.63246 2.39631 5.88636 2.04575 5.092 2.00043C4.69036 1.98811 4.29034 2.0566 3.91568 2.20184C3.54101 2.34708 3.19935 2.5661 2.91095 2.84591C2.62256 3.12573 2.39332 3.46062 2.23683 3.83073C2.08035 4.20084 1.99981 4.59861 2 5.00043V6.50043C2.00049 7.07497 2.16595 7.63729 2.4767 8.12053C2.78746 8.60377 3.23045 8.98762 3.753 9.22643L3.619 9.90043C3.58323 10.0808 3.49841 10.2479 3.37385 10.3832C3.24929 10.5185 3.08983 10.6169 2.913 10.6674L0.725 11.2924C0.516025 11.3522 0.332214 11.4784 0.201397 11.652C0.0705796 11.8256 -0.000120636 12.0371 1.54521e-07 12.2544V14.5004C1.54521e-07 14.633 0.0526786 14.7602 0.146447 14.854C0.240215 14.9478 0.367392 15.0004 0.5 15.0004H9.5C9.63261 15.0004 9.75979 14.9478 9.85355 14.854C9.94732 14.7602 10 14.633 10 14.5004V12.2544C9.9999 12.0373 9.9291 11.826 9.7983 11.6526C9.6675 11.4792 9.48381 11.3532 9.275 11.2934V11.2934Z" fill="#688047"/>
</svg>
