<svg width="16" height="16" viewBox="0 0 16 16" fill="none" xmlns="http://www.w3.org/2000/svg">
<path d="M8 13.0004C8 12.2048 7.68393 11.4417 7.12132 10.8791C6.55871 10.3165 5.79565 10.0004 5 10.0004C4.65395 10.0035 4.31111 10.0671 3.987 10.1884C3.58017 9.81309 3.28556 9.33217 3.13598 8.79926C2.9864 8.26634 2.98774 7.70236 3.13984 7.17016C3.29194 6.63796 3.58884 6.15845 3.99743 5.78506C4.40603 5.41167 4.91028 5.15907 5.454 5.05541L6.654 7.12941C6.7203 7.24425 6.82951 7.32804 6.9576 7.36236C7.08569 7.39668 7.22216 7.37871 7.337 7.31241L9.071 6.31241C9.18583 6.2461 9.26963 6.13689 9.30395 6.00881C9.33827 5.88072 9.3203 5.74425 9.254 5.62941L6.254 0.429408C6.22083 0.372348 6.1767 0.322418 6.12414 0.282498C6.07159 0.242578 6.01165 0.213459 5.94778 0.196818C5.88391 0.180178 5.81739 0.176346 5.75203 0.185543C5.68668 0.194741 5.62379 0.216786 5.567 0.250408L3.833 1.25041C3.71833 1.31688 3.63475 1.42616 3.60062 1.55424C3.56649 1.68231 3.58461 1.81869 3.651 1.93341L4.428 3.27841C3.62349 3.5413 2.89936 4.00509 2.3241 4.62591C1.74883 5.24673 1.34147 6.00404 1.14053 6.82621C0.939593 7.64838 0.95173 8.50822 1.17579 9.32439C1.39986 10.1406 1.82844 10.8861 2.421 11.4904C2.1481 11.947 2.00272 12.4685 2 13.0004V16.0004H14V14.0004H8V13.0004Z" fill="#231942"/>
<path d="M8.83005 11.9115L13.2871 9.33847L12.2871 7.60547L7.83105 10.1785C8.30612 10.6617 8.64998 11.2582 8.83005 11.9115Z" fill="#231942"/>
</svg>
