<svg width="16" height="16" viewBox="0 0 16 16" fill="none" xmlns="http://www.w3.org/2000/svg">
<path d="M16.0001 1.00002C16.0001 0.734801 15.8947 0.480447 15.7072 0.292911C15.5196 0.105374 15.2653 1.74019e-05 15.0001 1.74019e-05H10.4501C9.85886 -0.00163217 9.27321 0.114009 8.72701 0.340246C8.18082 0.566483 7.68493 0.89882 7.26805 1.31802L3.29305 5.29302C3.10558 5.48055 3.00027 5.73485 3.00027 6.00002C3.00027 6.26518 3.10558 6.51949 3.29305 6.70702C3.74126 7.15576 4.33803 7.42519 4.97104 7.4646C5.60405 7.50402 6.22964 7.31069 6.73005 6.92102L9.41705 4.83102L13.6101 9.02402C13.7271 9.14104 13.8187 9.28102 13.879 9.43515C13.9394 9.58927 13.9672 9.75422 13.9607 9.91961C13.9542 10.085 13.9136 10.2473 13.8414 10.3962C13.7691 10.5451 13.6669 10.6775 13.5411 10.785L12.9751 11.268L11.3541 9.64602C11.3076 9.59953 11.2524 9.56265 11.1916 9.53749C11.1309 9.51233 11.0658 9.49939 11.0001 9.49939C10.9343 9.49939 10.8692 9.51233 10.8085 9.53749C10.7477 9.56265 10.6925 9.59953 10.6461 9.64602C10.5996 9.6925 10.5627 9.74769 10.5375 9.80843C10.5124 9.86917 10.4994 9.93427 10.4994 10C10.4994 10.0658 10.5124 10.1309 10.5375 10.1916C10.5627 10.2523 10.5996 10.3075 10.6461 10.354L12.2121 11.919L11.3571 12.65L9.85705 11.15C9.76317 11.0561 9.63583 11.0034 9.50305 11.0034C9.37028 11.0034 9.24294 11.0561 9.14905 11.15C9.05516 11.2439 9.00242 11.3712 9.00242 11.504C9.00242 11.6368 9.05516 11.7641 9.14905 11.858L10.5941 13.3L10.4561 13.418C10.2087 13.6302 9.91293 13.7782 9.59486 13.8492C9.27679 13.9202 8.94615 13.9119 8.63205 13.825C8.59492 13.3572 8.39292 12.9178 8.06205 12.585L4.47705 9.00002C4.29136 8.81426 4.0709 8.6669 3.82826 8.56635C3.58563 8.46579 3.32556 8.41401 3.06291 8.41397C2.80025 8.41392 2.54017 8.46561 2.29749 8.56608C2.05482 8.66654 1.83431 8.81383 1.64855 8.99952C1.4628 9.18521 1.31544 9.40566 1.21488 9.6483C1.11433 9.89094 1.06255 10.151 1.0625 10.4137C1.06241 10.9441 1.27304 11.4529 1.64805 11.828L5.23405 15.414C5.56411 15.7431 5.99874 15.9466 6.46286 15.9893C6.92699 16.032 7.39146 15.9113 7.77605 15.648C8.21639 15.8122 8.68212 15.8978 9.15205 15.901C10.1092 15.9037 11.0352 15.561 11.7601 14.936L14.8401 12.306C15.1866 12.0279 15.4694 11.6786 15.6696 11.2819C15.8697 10.8851 15.9824 10.45 16.0001 10.006V1.00002Z" fill="#885A5A"/>
<path d="M2 7V2H5C5.26522 2 5.51957 1.89464 5.70711 1.70711C5.89464 1.51957 6 1.26522 6 1C6 0.734784 5.89464 0.48043 5.70711 0.292893C5.51957 0.105357 5.26522 0 5 0L1 0C0.734784 0 0.48043 0.105357 0.292893 0.292893C0.105357 0.48043 0 0.734784 0 1L0 7C0 7.26522 0.105357 7.51957 0.292893 7.70711C0.48043 7.89464 0.734784 8 1 8C1.26522 8 1.51957 7.89464 1.70711 7.70711C1.89464 7.51957 2 7.26522 2 7Z" fill="#885A5A"/>
</svg>
