<svg width="250" height="215" viewBox="0 0 250 215" fill="none" xmlns="http://www.w3.org/2000/svg">
<g clip-path="url(#clip0_664_12841)">
<path d="M18.9655 197.496C20.4488 198.003 22.0414 198.13 23.5898 197.865C25.1383 197.599 26.5904 196.95 27.8063 195.979C30.9028 193.448 31.8738 189.28 32.6635 185.419L35 174L30.1084 177.28C26.5904 179.638 22.9933 182.073 20.5577 185.489C18.1221 188.905 17.0595 193.569 19.0159 197.266" fill="#D9D9D9"/>
<path d="M19.892 212.685C19.3193 208.27 18.73 203.797 19.1327 199.335C19.4896 195.371 20.6324 191.501 22.9589 188.326C24.1938 186.645 25.6964 185.204 27.3992 184.068C27.8432 183.772 28.2518 184.516 27.8098 184.812C24.8634 186.782 22.5844 189.691 21.3014 193.121C19.8844 196.934 19.6569 201.091 19.901 205.142C20.0485 207.591 20.362 210.025 20.6768 212.456C20.7017 212.566 20.6862 212.681 20.6334 212.78C20.5807 212.878 20.4946 212.951 20.3926 212.985C20.2886 213.015 20.1778 213 20.0841 212.944C19.9904 212.887 19.9215 212.794 19.8923 212.684L19.892 212.685Z" fill="#F7F7F7"/>
<path d="M24 205.062C24.6313 205.998 25.4991 206.759 26.5198 207.273C27.5406 207.787 28.6798 208.036 29.8279 207.996C32.7788 207.859 35.238 205.852 37.4515 203.945L44 198.306L39.6661 198.104C36.5494 197.958 33.3522 197.822 30.3836 198.76C27.415 199.699 24.6773 201.954 24.1345 204.95" fill="#D9D9D9"/>
<path d="M18.0568 214.416C20.9825 209.218 24.3758 203.44 30.4397 201.593C32.1256 201.082 33.8933 200.898 35.6478 201.053C36.2008 201.101 36.0627 201.957 35.5108 201.91C32.5699 201.664 29.6346 202.444 27.1992 204.118C24.8555 205.72 23.0307 207.947 21.4864 210.309C20.5403 211.755 19.6929 213.263 18.8455 214.769C18.5747 215.251 17.7828 214.903 18.0568 214.416Z" fill="#F7F7F7"/>
<path d="M248.16 151H89.8401C89.3523 150.999 88.8846 150.805 88.5397 150.459C88.1947 150.114 88.0006 149.645 88 149.156V1.84371C88.0006 1.35492 88.1947 0.886339 88.5397 0.540715C88.8846 0.195092 89.3523 0.000638965 89.8401 0H248.16C248.648 0.000638965 249.115 0.195092 249.46 0.540715C249.805 0.886339 249.999 1.35492 250 1.84371V149.156C249.999 149.645 249.805 150.113 249.46 150.459C249.115 150.805 248.648 150.999 248.16 151Z" fill="white"/>
<path d="M248.16 151H89.8401C89.3523 150.999 88.8846 150.805 88.5397 150.459C88.1947 150.114 88.0006 149.645 88 149.156V1.84371C88.0006 1.35492 88.1947 0.886339 88.5397 0.540715C88.8846 0.195092 89.3523 0.000638965 89.8401 0H248.16C248.648 0.000638965 249.115 0.195092 249.46 0.540715C249.805 0.886339 249.999 1.35492 250 1.84371V149.156C249.999 149.645 249.805 150.113 249.46 150.459C249.115 150.805 248.648 150.999 248.16 151ZM89.8401 0.736031C89.5478 0.736667 89.2676 0.85332 89.0608 1.06046C88.8541 1.2676 88.7377 1.54835 88.737 1.84129V149.156C88.7377 149.449 88.8541 149.73 89.0608 149.937C89.2676 150.144 89.5478 150.261 89.8401 150.261H248.16C248.452 150.261 248.733 150.144 248.939 149.937C249.146 149.73 249.262 149.449 249.263 149.156V1.84371C249.262 1.55077 249.146 1.27001 248.939 1.06288C248.732 0.85574 248.452 0.739086 248.16 0.73845L89.8401 0.736031Z" fill="#D9D9D9"/>
<path d="M164.246 38C163.916 38.0007 163.599 38.159 163.365 38.4402C163.131 38.7215 163 39.1026 163 39.5C163 39.8974 163.131 40.2785 163.365 40.5598C163.599 40.841 163.916 40.9993 164.246 41H232.754C233.084 40.9993 233.401 40.841 233.635 40.5598C233.869 40.2785 234 39.8974 234 39.5C234 39.1026 233.869 38.7215 233.635 38.4402C233.401 38.159 233.084 38.0007 232.754 38H164.246Z" fill="#D9D9D9"/>
<path d="M164.263 46C163.928 46.001 163.607 46.1594 163.37 46.4406C163.133 46.7218 163 47.1028 163 47.5C163 47.8972 163.133 48.2782 163.37 48.5594C163.607 48.8406 163.928 48.999 164.263 49H199.737C200.072 48.999 200.393 48.8406 200.63 48.5594C200.867 48.2782 201 47.8972 201 47.5C201 47.1028 200.867 46.7218 200.63 46.4406C200.393 46.1594 200.072 46.001 199.737 46H164.263Z" fill="#D9D9D9"/>
<path d="M104.246 86C103.915 86.001 103.598 86.1594 103.365 86.4406C103.131 86.7218 103 87.1028 103 87.5C103 87.8972 103.131 88.2782 103.365 88.5594C103.598 88.8406 103.915 88.999 104.246 89H232.754C233.085 88.999 233.402 88.8406 233.635 88.5594C233.869 88.2782 234 87.8972 234 87.5C234 87.1028 233.869 86.7218 233.635 86.4406C233.402 86.1594 233.085 86.001 232.754 86H104.246Z" fill="#D9D9D9"/>
<path d="M104.253 94C103.92 94.001 103.602 94.1594 103.367 94.4406C103.132 94.7218 103 95.1028 103 95.5C103 95.8972 103.132 96.2782 103.367 96.5594C103.602 96.8406 103.92 96.999 104.253 97H199.747C200.08 96.999 200.398 96.8406 200.633 96.5594C200.868 96.2782 201 95.8972 201 95.5C201 95.1028 200.868 94.7218 200.633 94.4406C200.398 94.1594 200.08 94.001 199.747 94H104.253Z" fill="#D9D9D9"/>
<path d="M104.246 101C103.915 101.001 103.598 101.159 103.365 101.441C103.131 101.722 103 102.103 103 102.5C103 102.897 103.131 103.278 103.365 103.559C103.598 103.841 103.915 103.999 104.246 104H232.754C233.085 103.999 233.402 103.841 233.635 103.559C233.869 103.278 234 102.897 234 102.5C234 102.103 233.869 101.722 233.635 101.441C233.402 101.159 233.085 101.001 232.754 101H104.246Z" fill="#D9D9D9"/>
<path d="M104.253 109C103.92 109.001 103.602 109.159 103.367 109.441C103.132 109.722 103 110.103 103 110.5C103 110.897 103.132 111.278 103.367 111.559C103.602 111.841 103.92 111.999 104.253 112H199.747C200.08 111.999 200.398 111.841 200.633 111.559C200.868 111.278 201 110.897 201 110.5C201 110.103 200.868 109.722 200.633 109.441C200.398 109.159 200.08 109.001 199.747 109H104.253Z" fill="#D9D9D9"/>
<path d="M104.246 116C103.915 116.001 103.598 116.159 103.365 116.441C103.131 116.722 103 117.103 103 117.5C103 117.897 103.131 118.278 103.365 118.559C103.598 118.841 103.915 118.999 104.246 119H232.754C233.085 118.999 233.402 118.841 233.635 118.559C233.869 118.278 234 117.897 234 117.5C234 117.103 233.869 116.722 233.635 116.441C233.402 116.159 233.085 116.001 232.754 116H104.246Z" fill="#D9D9D9"/>
<path d="M104.253 124C103.92 124.001 103.602 124.159 103.367 124.441C103.132 124.722 103 125.103 103 125.5C103 125.897 103.132 126.278 103.367 126.559C103.602 126.841 103.92 126.999 104.253 127H199.747C200.08 126.999 200.398 126.841 200.633 126.559C200.868 126.278 201 125.897 201 125.5C201 125.103 200.868 124.722 200.633 124.441C200.398 124.159 200.08 124.001 199.747 124H104.253Z" fill="#D9D9D9"/>
<path d="M125 61C121.44 61 117.96 59.9444 115 57.9665C112.04 55.9887 109.733 53.1775 108.37 49.8884C107.008 46.5994 106.651 42.9802 107.346 39.4885C108.04 35.9968 109.755 32.7895 112.272 30.2721C114.789 27.7548 117.997 26.0404 121.488 25.3459C124.98 24.6513 128.599 25.0078 131.888 26.3702C135.177 27.7325 137.989 30.0396 139.966 32.9997C141.944 35.9598 143 39.4399 143 43C142.995 47.7722 141.096 52.3474 137.722 55.7219C134.348 59.0964 129.772 60.9945 125 61Z" fill="#16B378"/>
<path d="M69.9936 129.323C69.9633 128.678 69.7927 128.048 69.4941 127.477C69.1954 126.906 68.7758 126.407 68.265 126.017C67.7541 125.626 67.1643 125.353 66.5371 125.217C65.91 125.08 65.2607 125.084 64.6351 125.227L58.831 117L53 119.328L61.3588 130.831C61.6677 131.872 62.3457 132.763 63.2642 133.335C64.1827 133.907 65.2778 134.12 66.3422 133.935C67.4066 133.749 68.3661 133.176 69.0391 132.327C69.7121 131.477 70.0517 130.408 69.9936 129.323Z" fill="#FFF3DE"/>
<path d="M58.9468 129L41 105.431L47.7245 84.036C48.2173 78.6571 51.5422 77.1551 51.6836 77.0937L51.8994 77L57.751 92.797L53.4546 104.395L64 122.35L58.9468 129Z" fill="#262633"/>
<path d="M120.809 57.0385C120.147 57.1194 119.511 57.341 118.946 57.6875C118.381 58.034 117.9 58.4971 117.539 59.0441C117.177 59.5911 116.943 60.2087 116.853 60.8534C116.763 61.4982 116.819 62.1544 117.017 62.7758L109 69.2858L111.87 75L123.059 65.6517C124.107 65.2581 124.972 64.5031 125.488 63.5299C126.004 62.5566 126.135 61.4326 125.858 60.3709C125.581 59.3092 124.914 58.3836 123.983 57.7694C123.052 57.1552 121.923 56.8951 120.809 57.0385Z" fill="#FFF3DE"/>
<path d="M122 68.4885L100.032 88L78.2998 82.9764C72.9292 82.8967 71.1816 79.726 71.1097 79.5908L71 79.3847L86.2044 72.4091L98.0365 75.7755L115.014 64L122 68.4885Z" fill="#262633"/>
<path d="M83.0011 209L89.0993 209L92 186L83 186L83.0011 209Z" fill="#FFF3DE"/>
<path d="M101 215L83 215.001L82.9997 208.001L95.9497 208C97.2891 208 98.5736 208.536 99.5206 209.489C100.468 210.442 101 211.735 101 213.083L101 215Z" fill="#494949"/>
<path d="M60.0008 209L66.0989 209L69 186L60 186L60.0008 209Z" fill="#FFF3DE"/>
<path d="M77 215L59 215.001L58.9997 208.001L71.9497 208C72.6129 208 73.2696 208.132 73.8823 208.387C74.495 208.642 75.0517 209.017 75.5207 209.489C75.9896 209.961 76.3616 210.521 76.6154 211.138C76.8692 211.755 76.9999 212.415 76.9999 213.083L77 215Z" fill="#494949"/>
<path d="M58 126L58.4729 159.704L58.9462 204L69.3513 203.037L74.5542 141.889L81.1758 203.037H91.918L93 141.408L89.2162 127.926L58 126Z" fill="#494949"/>
<path d="M78.2425 131C66.6814 131.001 56.0396 125.775 55.8959 125.703L55.7766 125.644L54.8064 102.391C54.5251 101.569 48.9852 85.3551 48.047 80.2015C47.0963 74.9801 60.8738 70.3977 62.5469 69.8619L62.9266 65.6615L78.3659 64L80.3228 69.3745L85.8618 71.4488C86.4897 71.6841 87.0094 72.1413 87.3224 72.7337C87.6353 73.3262 87.7198 74.0127 87.5598 74.6632L84.4813 87.166L92 128.531L90.3813 128.601C86.5013 130.351 82.3138 131 78.2425 131Z" fill="#262633"/>
<path d="M77.1817 60.0285C82.5097 57.1096 84.4706 50.4197 81.5615 45.0864C78.6524 39.7531 71.975 37.7958 66.6471 40.7148C61.3191 43.6337 59.3583 50.3235 62.2673 55.6569C65.1764 60.9902 71.8538 62.9475 77.1817 60.0285Z" fill="#FFF3DE"/>
<path d="M62.3141 60.8596C64.3894 63.0713 68.2436 61.884 68.514 58.8626C68.5352 58.628 68.5337 58.392 68.5094 58.1577C68.3698 56.8193 67.5969 55.6043 67.782 54.1911C67.8239 53.8394 67.9549 53.5043 68.1625 53.2174C69.8163 51.0019 73.6984 54.2083 75.2591 52.2027C76.2161 50.9729 75.0912 49.0366 75.8256 47.6621C76.7949 45.8479 79.6659 46.7429 81.4663 45.7493C83.4695 44.6439 83.3497 41.5691 82.0311 39.6988C80.4229 37.4179 77.6034 36.2009 74.8189 36.0254C72.0345 35.85 69.2692 36.6031 66.6697 37.6166C63.7161 38.7682 60.7872 40.3596 58.9696 42.9579C56.7592 46.1177 56.5465 50.3657 57.6519 54.0604C58.3244 56.308 60.6194 59.0536 62.3141 60.8596Z" fill="#494949"/>
<path d="M140.632 215H0.368146C0.270508 215 0.176862 214.947 0.107822 214.854C0.0387808 214.76 0 214.633 0 214.5C0 214.367 0.0387808 214.24 0.107822 214.146C0.176862 214.053 0.270508 214 0.368146 214H140.632C140.729 214 140.823 214.053 140.892 214.146C140.961 214.24 141 214.367 141 214.5C141 214.633 140.961 214.76 140.892 214.854C140.823 214.947 140.729 215 140.632 215Z" fill="#D9D9D9"/>
<path d="M124.096 50C123.777 50.0004 123.47 49.8812 123.236 49.6665L117.403 44.3171C117.158 44.0919 117.013 43.7797 117.001 43.4493C116.989 43.1188 117.11 42.7972 117.338 42.5549C117.566 42.3126 117.882 42.1696 118.216 42.1572C118.551 42.1448 118.877 42.2641 119.123 42.4889L124.064 47.0201L133.839 37.3688C133.957 37.2522 134.096 37.1596 134.249 37.0963C134.403 37.033 134.568 37.0003 134.734 37C134.9 36.9997 135.065 37.0318 135.219 37.0945C135.373 37.1573 135.512 37.2493 135.63 37.3655C135.748 37.4816 135.841 37.6196 135.904 37.7714C135.968 37.9232 136 38.0859 136 38.2501C136 38.4144 135.966 38.5769 135.902 38.7285C135.838 38.88 135.744 39.0176 135.626 39.1333L124.99 49.6347C124.872 49.7507 124.733 49.8426 124.58 49.9053C124.426 49.968 124.262 50.0002 124.096 50Z" fill="white"/>
</g>
<defs>
<clipPath id="clip0_664_12841">
<rect width="250" height="215" fill="white"/>
</clipPath>
</defs>
</svg>
