<?xml version="1.0" encoding="UTF-8"?>
<svg width="41px" height="38px" viewBox="0 0 41 38" version="1.1" xmlns="http://www.w3.org/2000/svg" xmlns:xlink="http://www.w3.org/1999/xlink">
    <!-- Generator: Sketch 52.5 (67469) - http://www.bohemiancoding.com/sketch -->
    <title>Slice 1</title>
    <desc>Created with Sketch.</desc>
    <g id="Page-1" stroke="none" stroke-width="1" fill="none" fill-rule="evenodd">
        <g id="grist" transform="translate(0.664062, 0.917969)">
            <g id="g10" transform="translate(0.022193, 0.074918)">
                <g id="g4348">
                    <g id="g12" transform="translate(27.448160, 0.168619)" fill="#2CB0AF">
                        <path d="M10.8624745,0.0985917347 L5.01558743,0.0985917347 C2.31763491,0.0985917347 0.12730186,2.28892009 0.12730186,4.98684183 L0.12730186,9.85788972 L6.02023995,9.85788972 C8.69278503,9.85788972 10.8624745,7.68810131 10.8624745,5.01559775 L10.8624745,0.0985917347 Z" id="path14"></path>
                    </g>
                    <g id="g16" transform="translate(19.325608, 5.175230) scale(-1, 1) translate(-19.325608, -5.175230) translate(13.767731, 0.168619)" fill="#2CB0AF">
                        <path d="M10.8624745,0.0985917347 L5.01558743,0.0985917347 C2.31763491,0.0985917347 0.12730186,2.28892009 0.12730186,4.98684183 L0.12730186,9.85788972 L6.02023995,9.85788972 C8.69278503,9.85788972 10.8624745,7.68810131 10.8624745,5.01559775 L10.8624745,0.0985917347 Z" id="path18"></path>
                    </g>
                    <g id="g20" transform="translate(5.771053, 17.753945) scale(-1, 1) translate(-5.771053, -17.753945) translate(0.213175, 12.747333)" fill="#F9AE41">
                        <path d="M10.8624745,0.0985917347 L5.01558743,0.0985917347 C2.31763491,0.0985917347 0.12730186,2.28892009 0.12730186,4.98684183 L0.12730186,9.85788972 L6.02023995,9.85788972 C8.69278503,9.85788972 10.8624745,7.68810131 10.8624745,5.01559775 L10.8624745,0.0985917347 Z" id="path22"></path>
                    </g>
                    <g id="g24" transform="translate(5.771053, 30.332572) scale(-1, 1) translate(-5.771053, -30.332572) translate(0.213175, 25.325961)" fill="#F9AE41">
                        <path d="M10.8624745,0.0985917347 L5.01558743,0.0985917347 C2.31763491,0.0985917347 0.12730186,2.28892009 0.12730186,4.98684183 L0.12730186,9.85788972 L6.02023995,9.85788972 C8.69278503,9.85788972 10.8624745,7.68810131 10.8624745,5.01559775 L10.8624745,0.0985917347 Z" id="path26"></path>
                    </g>
                    <g id="g28" transform="translate(19.325608, 17.753945) scale(-1, 1) translate(-19.325608, -17.753945) translate(13.767731, 12.747333)" fill="#D2D2D2">
                        <path d="M10.8624745,0.0985917347 L5.01558743,0.0985917347 C2.31763491,0.0985917347 0.12730186,2.28892009 0.12730186,4.98684183 L0.12730186,9.85788972 L6.02023995,9.85788972 C8.69278503,9.85788972 10.8624745,7.68810131 10.8624745,5.01559775 L10.8624745,0.0985917347 Z" id="path30"></path>
                    </g>
                    <g id="g32" transform="translate(27.448160, 12.747333)" fill="#D2D2D2">
                        <path d="M10.8624745,0.0985917347 L5.01558743,0.0985917347 C2.31763491,0.0985917347 0.12730186,2.28892009 0.12730186,4.98684183 L0.12730186,9.85788972 L6.02023995,9.85788972 C8.69278503,9.85788972 10.8624745,7.68810131 10.8624745,5.01559775 L10.8624745,0.0985917347 Z" id="path34"></path>
                    </g>
                    <g id="g36" transform="translate(19.325608, 30.332572) scale(-1, 1) translate(-19.325608, -30.332572) translate(13.767731, 25.325961)" fill="#D2D2D2">
                        <path d="M10.8624745,0.0985917347 L5.01558743,0.0985917347 C2.31763491,0.0985917347 0.12730186,2.28892009 0.12730186,4.98684183 L0.12730186,9.85788972 L6.02023995,9.85788972 C8.69278503,9.85788972 10.8624745,7.68810131 10.8624745,5.01559775 L10.8624745,0.0985917347 Z" id="path38"></path>
                    </g>
                    <g id="g40" transform="translate(27.448160, 25.325961)" fill="#D2D2D2">
                        <path d="M10.8624745,0.0985917347 L5.01558743,0.0985917347 C2.31763491,0.0985917347 0.12730186,2.28892009 0.12730186,4.98684183 L0.12730186,9.85788972 L6.02023995,9.85788972 C8.69278503,9.85788972 10.8624745,7.68810131 10.8624745,5.01559775 L10.8624745,0.0985917347 Z" id="path42"></path>
                    </g>
                </g>
            </g>
        </g>
    </g>
</svg>