<?xml version="1.0" encoding="UTF-8"?>
<svg width="46px" height="46px" viewBox="0 0 46 46" version="1.1" xmlns="http://www.w3.org/2000/svg" xmlns:xlink="http://www.w3.org/1999/xlink">
    <!-- Generator: Sketch 52.5 (67469) - http://www.bohemiancoding.com/sketch -->
    <title>ThumbPreview</title>
    <desc>Created with Sketch.</desc>
    <defs>
        <path d="M4.05761719,6.36816406 L4.05761719,5.16210938 L7.17285156,5.16210938 L7.17285156,8.01367188 C6.87011567,8.30664209 6.43148074,8.56461477 5.85693359,8.78759766 C5.28238645,9.01058054 4.70052378,9.12207031 4.11132812,9.12207031 C3.36262646,9.12207031 2.70996372,8.96500808 2.15332031,8.65087891 C1.5966769,8.33674973 1.17838682,7.88753547 0.8984375,7.30322266 C0.618488184,6.71890984 0.478515625,6.08333677 0.478515625,5.39648438 C0.478515625,4.65103794 0.634764062,3.98860967 0.947265625,3.40917969 C1.25976719,2.82974971 1.71711938,2.38541821 2.31933594,2.07617188 C2.77832261,1.83854048 3.34960596,1.71972656 4.03320312,1.71972656 C4.92187944,1.71972656 5.61604568,1.90608538 6.11572266,2.27880859 C6.61539963,2.65153181 6.93684824,3.16666338 7.08007812,3.82421875 L5.64453125,4.09277344 C5.54361929,3.74120918 5.3540053,3.46370544 5.07568359,3.26025391 C4.79736189,3.05680237 4.44987187,2.95507812 4.03320312,2.95507812 C3.40168955,2.95507812 2.89957869,3.15527144 2.52685547,3.55566406 C2.15413225,3.95605669 1.96777344,4.55012627 1.96777344,5.33789062 C1.96777344,6.18750425 2.15657363,6.82470491 2.53417969,7.24951172 C2.91178574,7.67431853 3.40657246,7.88671875 4.01855469,7.88671875 C4.32129058,7.88671875 4.62483572,7.82731179 4.92919922,7.70849609 C5.23356272,7.5896804 5.49479058,7.44563887 5.71289062,7.27636719 L5.71289062,6.36816406 L4.05761719,6.36816406 Z M9.21074218,9 L9.21074218,1.84179688 L12.2527344,1.84179688 C13.0177121,1.84179688 13.5735334,1.9060866 13.9202148,2.03466797 C14.2668963,2.16324934 14.5444,2.39192544 14.7527344,2.72070312 C14.9610687,3.04948081 15.0652344,3.42545361 15.0652344,3.84863281 C15.0652344,4.38574487 14.9073583,4.82926257 14.5916016,5.17919922 C14.2758448,5.52913586 13.8038443,5.74967402 13.1755859,5.84082031 C13.4880875,6.02311289 13.7460602,6.2233062 13.9495117,6.44140625 C14.1529632,6.6595063 14.4272118,7.04687222 14.7722656,7.60351562 L15.6462891,9 L13.9177734,9 L12.8728516,7.44238281 C12.5017559,6.8857394 12.2478522,6.53499421 12.1111328,6.39013672 C11.9744134,6.24527922 11.829558,6.14599636 11.6765625,6.09228516 C11.5235669,6.03857395 11.2810563,6.01171875 10.9490234,6.01171875 L10.6560547,6.01171875 L10.6560547,9 L9.21074218,9 Z M10.6560547,4.86914062 L11.7253906,4.86914062 C12.4187535,4.86914062 12.8516918,4.83984404 13.0242187,4.78125 C13.1967456,4.72265596 13.3318354,4.62174551 13.4294922,4.47851562 C13.5271489,4.33528574 13.5759766,4.15625107 13.5759766,3.94140625 C13.5759766,3.70051963 13.5116868,3.50602288 13.3831055,3.35791016 C13.2545241,3.20979744 13.073048,3.11621113 12.8386719,3.07714844 C12.7214838,3.06087231 12.3699248,3.05273438 11.7839844,3.05273438 L10.6560547,3.05273438 L10.6560547,4.86914062 Z M17.0835937,9 L17.0835937,1.84179688 L18.5289062,1.84179688 L18.5289062,9 L17.0835937,9 Z M20.2396484,6.67089844 L21.6458984,6.53417969 C21.7305342,7.00618726 21.9022448,7.35286348 22.1610351,7.57421875 C22.4198255,7.79557402 22.7689431,7.90625 23.2083984,7.90625 C23.6738955,7.90625 24.0246407,7.80778093 24.2606445,7.61083984 C24.4966483,7.41389875 24.6146484,7.18359507 24.6146484,6.91992188 C24.6146484,6.7506502 24.565007,6.60660867 24.4657226,6.48779297 C24.3664383,6.36897727 24.1931002,6.26562544 23.9457031,6.17773438 C23.7764314,6.11914033 23.3906931,6.01497471 22.7884765,5.86523438 C22.0137331,5.67317612 21.4701187,5.43717588 21.1576172,5.15722656 C20.7181618,4.76334438 20.4984375,4.28320596 20.4984375,3.71679688 C20.4984375,3.35221172 20.6017893,3.01123206 20.8084961,2.69384766 C21.0152028,2.37646326 21.3130514,2.13476646 21.7020507,1.96875 C22.0910501,1.80273354 22.5606092,1.71972656 23.1107422,1.71972656 C24.0091841,1.71972656 24.6854469,1.9166647 25.1395507,2.31054688 C25.5936546,2.70442905 25.8320962,3.23013994 25.8548828,3.88769531 L24.4095703,3.95117188 C24.347721,3.58333149 24.2150726,3.31884846 24.0116211,3.15771484 C23.8081695,2.99658123 23.5029968,2.91601562 23.0960937,2.91601562 C22.6761697,2.91601562 22.347397,3.00227778 22.1097656,3.17480469 C21.95677,3.28548232 21.8802734,3.43359282 21.8802734,3.61914062 C21.8802734,3.7884123 21.9518873,3.93326763 22.0951172,4.05371094 C22.2774097,4.20670649 22.7201136,4.36621011 23.4232422,4.53222656 C24.1263707,4.69824302 24.646385,4.86995354 24.9833007,5.04736328 C25.3202165,5.22477302 25.5838857,5.46728362 25.7743164,5.77490234 C25.964747,6.08252107 26.0599609,6.46256284 26.0599609,6.91503906 C26.0599609,7.32519736 25.9460297,7.70930811 25.718164,8.06738281 C25.4902983,8.42545752 25.1680359,8.69156814 24.7513672,8.86572266 C24.3346984,9.03987717 23.8154979,9.12695312 23.19375,9.12695312 C22.2887975,9.12695312 21.5938175,8.91780808 21.108789,8.49951172 C20.6237606,8.08121536 20.3340499,7.47168369 20.2396484,6.67089844 Z M29.5871093,9 L29.5871093,3.05273438 L27.4630859,3.05273438 L27.4630859,1.84179688 L33.1515625,1.84179688 L33.1515625,3.05273438 L31.0324218,3.05273438 L31.0324218,9 L29.5871093,9 Z" id="path-1"></path>
    </defs>
    <g id="Page-1" stroke="none" stroke-width="1" fill="none" fill-rule="evenodd" opacity="0.900000036">
        <g id="ThumbPreview" transform="translate(-1.000000, -1.000000)">
            <g id="preview---favourite">
                <rect id="Rectangle" x="0" y="0" width="48" height="48"></rect>
                <g id="Group" transform="translate(1.000000, 1.000000)">
                    <polygon id="Path" fill="#0E512B" points="43 26 3 26 0 22 4 18 42 18 46 22"></polygon>
                    <path d="M40,46 L6,46 C4.895,46 4,45.105 4,44 L4,2 C4,0.895 4.895,0 6,0 L30,0 L42,12 L42,44 C42,45.105 41.105,46 40,46 Z" id="Path" fill="#E6E6E6"></path>
                    <path d="M30,0 L30,10 C30,11.105 30.895,12 32,12 L42,12 L30,0 Z" id="Path" fill="#B3B3B3"></path>
                    <path d="M44,40 L2,40 C0.895,40 0,39.105 0,38 L0,22 L46,22 L46,38 C46,39.105 45.105,40 44,40 Z" id="Path" fill="#16B378"></path>
                    <g id="Grist" transform="translate(6.000000, 25.000000)">
                        <g id="GRIST">
                            <use fill="#000000" xlink:href="#path-1"></use>
                            <use fill="#FFFFFF" xlink:href="#path-1"></use>
                        </g>
                    </g>
                </g>
            </g>
        </g>
    </g>
</svg>