<?xml version="1.0" encoding="UTF-8"?>
<svg width="16px" height="16px" viewBox="0 0 16 16" version="1.1" xmlns="http://www.w3.org/2000/svg" xmlns:xlink="http://www.w3.org/1999/xlink">
    <!-- Generator: Sketch 52.5 (67469) - http://www.bohemiancoding.com/sketch -->
    <title>Icons / Fields / FieldReference</title>
    <desc>Created with Sketch.</desc>
    <g id="Icons-/-Fields-/-FieldReference" stroke="none" stroke-width="1" fill="none" fill-rule="evenodd">
        <path d="M5.85355339,10.8535534 C5.65829124,11.0488155 5.34170876,11.0488155 5.14644661,10.8535534 C4.95118446,10.6582912 4.95118446,10.3417088 5.14644661,10.1464466 L10.1464466,5.14644661 C10.3417088,4.95118446 10.6582912,4.95118446 10.8535534,5.14644661 C11.0488155,5.34170876 11.0488155,5.65829124 10.8535534,5.85355339 L5.85355339,10.8535534 Z M7.35355339,5.35355339 C7.15829124,5.54881554 6.84170876,5.54881554 6.64644661,5.35355339 C6.45118446,5.15829124 6.45118446,4.84170876 6.64644661,4.64644661 L8.3185182,2.97437503 C9.61846445,1.6749551 11.7255356,1.6749551 13.025625,2.9745182 C14.3250449,4.27446445 14.3250449,6.38153555 13.0255534,7.68155339 L11.3535534,9.35355339 C11.1582912,9.54881554 10.8417088,9.54881554 10.6464466,9.35355339 C10.4511845,9.15829124 10.4511845,8.84170876 10.6464466,8.64644661 L12.318375,6.9745182 C13.2274615,6.06506347 13.2274615,4.59093653 12.3185182,3.68162497 C11.4090635,2.77253846 9.93493653,2.77253846 9.02555339,3.68155339 L7.35355339,5.35355339 Z M4.64644661,6.64644661 C4.84170876,6.45118446 5.15829124,6.45118446 5.35355339,6.64644661 C5.54881554,6.84170876 5.54881554,7.15829124 5.35355339,7.35355339 L3.68162497,9.0254818 C2.77253846,9.93493653 2.77253846,11.4090635 3.6814818,12.318375 C4.59093653,13.2274615 6.06506347,13.2274615 6.97444661,12.3184466 L8.64644661,10.6464466 C8.84170876,10.4511845 9.15829124,10.4511845 9.35355339,10.6464466 C9.54881554,10.8417088 9.54881554,11.1582912 9.35355339,11.3535534 L7.6814818,13.025625 C6.38153555,14.3250449 4.27446445,14.3250449 2.97437503,13.0254818 C1.6749551,11.7255356 1.6749551,9.61846445 2.97444661,8.31844661 L4.64644661,6.64644661 Z" id="Combined-Shape" fill="#000000" fill-rule="nonzero"></path>
    </g>
</svg>