<?xml version="1.0" encoding="UTF-8"?>
<svg width="16px" height="16px" viewBox="0 0 16 16" version="1.1" xmlns="http://www.w3.org/2000/svg" xmlns:xlink="http://www.w3.org/1999/xlink">
    <!-- Generator: Sketch 52.5 (67469) - http://www.bohemiancoding.com/sketch -->
    <title>Icons / Fields / FieldTable</title>
    <desc>Created with Sketch.</desc>
    <g id="Icons-/-Fields-/-FieldTable" stroke="none" stroke-width="1" fill="none" fill-rule="evenodd">
        <path d="M8.5,3 L8.5,7.5 L13,7.5 L13,3.5 C13,3.22385763 12.7761424,3 12.5,3 L8.5,3 Z M7.5,3 L3.5,3 C3.22385763,3 3,3.22385763 3,3.5 L3,7.5 L7.5,7.5 L7.5,3 Z M3,8.5 L3,12.5 C3,12.7761424 3.22385763,13 3.5,13 L7.5,13 L7.5,8.5 L3,8.5 Z M8.5,13 L12.5,13 C12.7761424,13 13,12.7761424 13,12.5 L13,8.5 L8.5,8.5 L8.5,13 Z M3.5,2 L12.5,2 C13.3284271,2 14,2.67157288 14,3.5 L14,12.5 C14,13.3284271 13.3284271,14 12.5,14 L3.5,14 C2.67157288,14 2,13.3284271 2,12.5 L2,3.5 C2,2.67157288 2.67157288,2 3.5,2 Z" id="Combined-Shape" fill="#000000" fill-rule="nonzero"></path>
    </g>
</svg>