<?xml version="1.0" encoding="UTF-8"?>
<svg width="16px" height="16px" viewBox="0 0 16 16" version="1.1" xmlns="http://www.w3.org/2000/svg" xmlns:xlink="http://www.w3.org/1999/xlink">
    <!-- Generator: Sketch 52.5 (67469) - http://www.bohemiancoding.com/sketch -->
    <title>Icons / Fields / FieldNumeric</title>
    <desc>Created with Sketch.</desc>
    <g id="Icons-/-Fields-/-FieldNumeric" stroke="none" stroke-width="1" fill="none" fill-rule="evenodd">
        <path d="M4.90234375,12 L3.8359375,12 L3.8359375,5.17382812 L3.78320312,5.17382812 L1.93164062,6.50976562 L1.93164062,5.40820312 L3.8359375,4.00195312 L4.90234375,4.00195312 L4.90234375,12 Z M5.55273438,11.2734375 C5.55273438,10.7695312 5.92773438,10.4179688 6.390625,10.4179688 C6.87695312,10.4179688 7.24609375,10.7695312 7.24609375,11.2734375 C7.24609375,11.7539062 6.87695312,12.1054688 6.390625,12.1054688 C5.92773438,12.1054688 5.55273438,11.7539062 5.55273438,11.2734375 Z M8.30664062,7.86328125 L8.30664062,8.14453125 C8.30664062,10.0605469 8.99804688,11.2207031 10.09375,11.2207031 C11.1953125,11.2207031 11.8808594,10.0605469 11.8808594,8.14453125 L11.8808594,7.86328125 C11.8808594,5.953125 11.1953125,4.78125 10.09375,4.78125 C8.99804688,4.78125 8.30664062,5.953125 8.30664062,7.86328125 Z M7.234375,8.15625 L7.234375,7.85742188 C7.234375,5.4375 8.28320312,3.83789062 10.1054688,3.83789062 C11.9160156,3.83789062 12.953125,5.42578125 12.953125,7.85742188 L12.953125,8.15625 C12.953125,10.5761719 11.9101562,12.1640625 10.09375,12.1640625 C8.28320312,12.1640625 7.234375,10.5820312 7.234375,8.15625 Z" id="1.0" fill="#000000" fill-rule="nonzero"></path>
    </g>
</svg>