<?xml version="1.0" encoding="UTF-8"?>
<svg width="16px" height="16px" viewBox="0 0 16 16" version="1.1" xmlns="http://www.w3.org/2000/svg" xmlns:xlink="http://www.w3.org/1999/xlink">
    <!-- Generator: Sketch 52.5 (67469) - http://www.bohemiancoding.com/sketch -->
    <title>Icons / Fields / FieldChoice</title>
    <desc>Created with Sketch.</desc>
    <g id="Icons-/-Fields-/-FieldChoice" stroke="none" stroke-width="1" fill="none" fill-rule="evenodd">
        <path d="M10.6095656,5.18765248 C10.7820704,4.97202151 11.0967166,4.93706082 11.3123475,5.1095656 C11.5279785,5.28207037 11.5629392,5.59671656 11.3904344,5.81234752 L7.3904344,10.8123475 C7.20427175,11.0450508 6.85716842,11.0642752 6.64644661,10.8535534 L4.64644661,8.85355339 C4.45118446,8.65829124 4.45118446,8.34170876 4.64644661,8.14644661 C4.84170876,7.95118446 5.15829124,7.95118446 5.35355339,8.14644661 L6.95854056,9.75143378 L10.6095656,5.18765248 Z M8,14 C4.6862915,14 2,11.3137085 2,8 C2,4.6862915 4.6862915,2 8,2 C11.3137085,2 14,4.6862915 14,8 C14,11.3137085 11.3137085,14 8,14 Z M8,13 C10.7614237,13 13,10.7614237 13,8 C13,5.23857625 10.7614237,3 8,3 C5.23857625,3 3,5.23857625 3,8 C3,10.7614237 5.23857625,13 8,13 Z" id="Combined-Shape" fill="#000000" fill-rule="nonzero"></path>
    </g>
</svg>