<?xml version="1.0" encoding="UTF-8"?>
<svg width="16px" height="16px" viewBox="0 0 16 16" version="1.1" xmlns="http://www.w3.org/2000/svg" xmlns:xlink="http://www.w3.org/1999/xlink">
    <!-- Generator: Sketch 52.5 (67469) - http://www.bohemiancoding.com/sketch -->
    <title>Icons / Fields / FieldToggle</title>
    <desc>Created with Sketch.</desc>
    <g id="Icons-/-Fields-/-FieldToggle" stroke="none" stroke-width="1" fill="none" fill-rule="evenodd">
        <path d="M8.6458244,11 L10,11 C11.6568542,11 13,9.65685425 13,8 C13,6.34314575 11.6568542,5 10,5 L8.6458244,5 C9.47624511,5.73294445 10,6.80530747 10,8 C10,9.19469253 9.47624511,10.2670555 8.6458244,11 Z M6,4 L10,4 C12.209139,4 14,5.790861 14,8 C14,10.209139 12.209139,12 10,12 L6,12 C3.790861,12 2,10.209139 2,8 C2,5.790861 3.790861,4 6,4 Z M6,11 C7.65685425,11 9,9.65685425 9,8 C9,6.34314575 7.65685425,5 6,5 C4.34314575,5 3,6.34314575 3,8 C3,9.65685425 4.34314575,11 6,11 Z" id="Combined-Shape" fill="#000000" fill-rule="nonzero"></path>
    </g>
</svg>