<?xml version="1.0" encoding="UTF-8"?>
<svg width="16" height="16" viewBox="0 0 16 16" version="1.1" xmlns="http://www.w3.org/2000/svg" xmlns:xlink="http://www.w3.org/1999/xlink">
    <title>Icons / Fields / FieldUser</title>
    <g id="Icons-/-Fields-/-FieldUser" stroke="none" stroke-width="1" fill="none" fill-rule="evenodd">
        <path fill-rule="evenodd" clip-rule="evenodd" d="M8 2C6.13604 2 4.625 3.51104 4.625 5.375C4.625 7.23896 6.13604 8.75 8 8.75C9.86396 8.75 11.375 7.23896 11.375 5.375C11.375 3.51104 9.86396 2 8 2ZM5.375 5.375C5.375 3.92525 6.55025 2.75 8 2.75C9.44975 2.75 10.625 3.92525 10.625 5.375C10.625 6.82475 9.44975 8 8 8C6.55025 8 5.375 6.82475 5.375 5.375Z" fill="black"/>
        <path d="M3.74036 10.7698C4.27747 10.3697 4.9074 10.0631 5.35034 9.91814C5.69681 10.0966 6.59604 10.4724 7.99986 10.4724C9.40375 10.4724 10.3031 10.0965 10.6496 9.91813C11.0926 10.0631 11.7225 10.3696 12.2597 10.7698C12.6771 11.0808 13.25 11.5655 13.25 12.1406H14C14 11.3068 13.3313 10.6329 12.7077 10.1684C12.0581 9.68435 11.3226 9.31926 10.5411 9.10743C9.8032 9.58824 8.86215 9.72243 7.99986 9.72243C7.13802 9.72243 6.19628 9.58856 5.45889 9.10742C4.67742 9.31927 3.94195 9.68437 3.29227 10.1684C2.66872 10.633 2 11.3069 2 12.1406C2 13.2799 3.49955 13.6149 4.36948 13.7656C5.55907 13.9716 6.99391 14 8.00105 14C9.0227 14 9.9053 13.9346 10.5332 13.8692C10.8706 13.834 11.2089 13.7952 11.5433 13.7368C11.5433 13.7368 11.4296 13.0914 11.4131 12.9982C11.096 13.053 10.7753 13.0899 10.4554 13.1232C9.84765 13.1866 8.99155 13.25 8.00105 13.25C6.99603 13.25 5.61785 13.2206 4.49745 13.0266C4.0785 12.954 2.75 12.7749 2.75 12.1406C2.75 11.5655 3.32289 11.0808 3.74036 10.7698Z" fill="black"/>
        <path fill-rule="evenodd" clip-rule="evenodd" d="M8 2C6.13604 2 4.625 3.51104 4.625 5.375C4.625 7.23896 6.13604 8.75 8 8.75C9.86396 8.75 11.375 7.23896 11.375 5.375C11.375 3.51104 9.86396 2 8 2ZM5.375 5.375C5.375 3.92525 6.55025 2.75 8 2.75C9.44975 2.75 10.625 3.92525 10.625 5.375C10.625 6.82475 9.44975 8 8 8C6.55025 8 5.375 6.82475 5.375 5.375Z" stroke="black" stroke-width="0.2"/>
        <path d="M3.74036 10.7698C4.27747 10.3697 4.9074 10.0631 5.35034 9.91814C5.69681 10.0966 6.59604 10.4724 7.99986 10.4724C9.40375 10.4724 10.3031 10.0965 10.6496 9.91813C11.0926 10.0631 11.7225 10.3696 12.2597 10.7698C12.6771 11.0808 13.25 11.5655 13.25 12.1406H14C14 11.3068 13.3313 10.6329 12.7077 10.1684C12.0581 9.68435 11.3226 9.31926 10.5411 9.10743C9.8032 9.58824 8.86215 9.72243 7.99986 9.72243C7.13802 9.72243 6.19628 9.58856 5.45889 9.10742C4.67742 9.31927 3.94195 9.68437 3.29227 10.1684C2.66872 10.633 2 11.3069 2 12.1406C2 13.2799 3.49955 13.6149 4.36948 13.7656C5.55907 13.9716 6.99391 14 8.00105 14C9.0227 14 9.9053 13.9346 10.5332 13.8692C10.8706 13.834 11.2089 13.7952 11.5433 13.7368C11.5433 13.7368 11.4296 13.0914 11.4131 12.9982C11.096 13.053 10.7753 13.0899 10.4554 13.1232C9.84765 13.1866 8.99155 13.25 8.00105 13.25C6.99603 13.25 5.61785 13.2206 4.49745 13.0266C4.0785 12.954 2.75 12.7749 2.75 12.1406C2.75 11.5655 3.32289 11.0808 3.74036 10.7698Z" stroke="black" stroke-width="0.2"/>
    </g>
</svg>