<?xml version="1.0" encoding="UTF-8"?>
<svg width="16px" height="16px" viewBox="0 0 16 16" version="1.1" xmlns="http://www.w3.org/2000/svg" xmlns:xlink="http://www.w3.org/1999/xlink">
    <!-- Generator: Sketch 52.5 (67469) - http://www.bohemiancoding.com/sketch -->
    <title>Icons / Fields / FieldCheckbox</title>
    <desc>Created with Sketch.</desc>
    <g id="Icons-/-Fields-/-FieldCheckbox" stroke="none" stroke-width="1" fill="none" fill-rule="evenodd">
        <path d="M3.5,3 C3.22385763,3 3,3.22385763 3,3.5 L3,12.5 C3,12.7761424 3.22385763,13 3.5,13 L12.5,13 C12.7761424,13 13,12.7761424 13,12.5 L13,3.5 C13,3.22385763 12.7761424,3 12.5,3 L3.5,3 Z M3.5,2 L12.5,2 C13.3284271,2 14,2.67157288 14,3.5 L14,12.5 C14,13.3284271 13.3284271,14 12.5,14 L3.5,14 C2.67157288,14 2,13.3284271 2,12.5 L2,3.5 C2,2.67157288 2.67157288,2 3.5,2 Z M10.6095656,5.18765248 C10.7820704,4.97202151 11.0967166,4.93706082 11.3123475,5.1095656 C11.5279785,5.28207037 11.5629392,5.59671656 11.3904344,5.81234752 L7.3904344,10.8123475 C7.20427175,11.0450508 6.85716842,11.0642752 6.64644661,10.8535534 L4.64644661,8.85355339 C4.45118446,8.65829124 4.45118446,8.34170876 4.64644661,8.14644661 C4.84170876,7.95118446 5.15829124,7.95118446 5.35355339,8.14644661 L6.95854056,9.75143378 L10.6095656,5.18765248 Z" id="Combined-Shape" fill="#000000" fill-rule="nonzero"></path>
    </g>
</svg>