<?xml version="1.0" encoding="UTF-8"?>
<svg width="16px" height="16px" viewBox="0 0 16 16" version="1.1" xmlns="http://www.w3.org/2000/svg" xmlns:xlink="http://www.w3.org/1999/xlink">
    <!-- Generator: Sketch 52.5 (67469) - http://www.bohemiancoding.com/sketch -->
    <title>Icons / Fields / FieldReference</title>
    <desc>Created with Sketch.</desc>
    <g id="Icons-/-Fields-/-FieldReference" stroke="none" stroke-width="1" fill="none" fill-rule="evenodd">
        <path d="m 7.3535534,5.3535534 c -0.1952622,0.1952621 -0.5118446,0.1952621 -0.7071068,0 -0.1952621,-0.1952622 -0.1952621,-0.5118446 0,-0.7071068 L 8.3185182,2.974375 c 1.2999462,-1.2994199 3.4070178,-1.2994199 4.7071068,1.432e-4 1.29942,1.2999462 1.29942,3.4070173 -7.2e-5,4.7070352 l -1.672,1.672 c -0.195262,0.1952621 -0.511844,0.1952621 -0.707106,0 -0.195262,-0.1952622 -0.195262,-0.5118446 0,-0.7071068 L 12.318375,6.9745182 C 13.227462,6.0650635 13.227462,4.5909365 12.318518,3.681625 11.409064,2.7725385 9.9349365,2.7725385 9.0255534,3.6815534 Z M 4.6464466,6.6464466 c 0.1952622,-0.1952621 0.5118446,-0.1952621 0.7071068,0 0.1952621,0.1952622 0.1952621,0.5118446 0,0.7071068 L 3.681625,9.0254818 c -0.9090865,0.9094547 -0.9090865,2.3835822 -1.432e-4,3.2928932 0.9094547,0.909087 2.3835817,0.909087 3.2929648,7.2e-5 l 1.672,-1.672 c 0.1952622,-0.195262 0.5118446,-0.195262 0.7071068,0 0.1952621,0.195262 0.1952621,0.511844 0,0.707106 L 7.6814818,13.025625 C 6.3815355,14.325045 4.2744644,14.325045 2.974375,13.025482 1.6749551,11.725536 1.6749551,9.6184644 2.9744466,8.3184466 Z" id="Combined-Shape" fill="#000000" fill-rule="nonzero"></path>
    </g>
</svg>