<svg width="40" height="40" viewBox="0 0 40 40" fill="none" xmlns="http://www.w3.org/2000/svg">
<path opacity="0.1" fill-rule="evenodd" clip-rule="evenodd" d="M39.5402 0H18.0047C8.06752 0 0 8.9774 0 20.0353V40H21.7051C31.5487 40 39.5402 31.1068 39.5402 20.1531V0Z" fill="#7141F9"/>
<path opacity="0.44" d="M13.8297 16.7786V23.223C13.8297 25.0026 15.211 26.4452 16.9148 26.4452H23.0851V27.324C23.0851 28.8431 22.2958 29.6675 20.8413 29.6675H12.9883C11.5339 29.6675 10.7446 28.8431 10.7446 27.324V19.122C10.7446 17.6029 11.5339 16.7786 12.9883 16.7786H13.8297ZM25.9832 11.4082C27.4376 11.4082 28.2269 12.2326 28.2269 13.7516V21.9537C28.2269 23.4727 27.4376 24.2971 25.9832 24.2971H25.1418V17.8526C25.1418 16.0731 23.7605 14.6304 22.0567 14.6304H15.8865V13.7516C15.8865 12.2326 16.6758 11.4082 18.1302 11.4082H25.9832Z" fill="#7141F9"/>
<path fill-rule="evenodd" clip-rule="evenodd" d="M17.1956 16.7793H21.7765C22.6249 16.7793 23.0853 17.2602 23.0853 18.1463V22.9308C23.0853 23.8169 22.6249 24.2978 21.7765 24.2978H17.1956C16.3471 24.2978 15.8867 23.8169 15.8867 22.9308V18.1463C15.8867 17.2602 16.3471 16.7793 17.1956 16.7793Z" fill="#7141F9"/>
</svg>
