<svg width="40" height="40" viewBox="0 0 40 40" fill="none" xmlns="http://www.w3.org/2000/svg">
<g clip-path="url(#clip0_1349_6898)">
<path fill-rule="evenodd" clip-rule="evenodd" d="M39.5402 0H18.0047C8.06752 0 0 8.9774 0 20.0353V40H21.7051C31.5487 40 39.5402 31.1068 39.5402 20.1531V0Z" fill="white"/>
<path opacity="0.44" d="M23.9729 12.9996C23.9729 12.2264 23.3061 11.5996 22.4835 11.5996C21.661 11.5996 20.9941 12.2264 20.9941 12.9996V26.0663C20.9941 26.8395 21.661 27.4663 22.4835 27.4663C23.3061 27.4663 23.9729 26.8395 23.9729 26.0663V12.9996Z" fill="#16B378"/>
<path d="M19.008 17.9576C19.008 17.1844 18.3412 16.5576 17.5187 16.5576C16.6961 16.5576 16.0293 17.1844 16.0293 17.9576V26.066C16.0293 26.8391 16.6961 27.466 17.5187 27.466C18.3412 27.466 19.008 26.8391 19.008 26.066V17.9576Z" fill="#16B378"/>
<path d="M28.9358 19.941C28.9358 19.1678 28.2689 18.541 27.4464 18.541C26.6238 18.541 25.957 19.1678 25.957 19.941V26.066C25.957 26.8392 26.6238 27.466 27.4464 27.466C28.2689 27.466 28.9358 26.8392 28.9358 26.066V19.941Z" fill="#16B378"/>
<path d="M14.0432 21.9254C14.0432 21.1522 13.3764 20.5254 12.5538 20.5254C11.7313 20.5254 11.0645 21.1522 11.0645 21.9254V26.0671C11.0645 26.8403 11.7313 27.4671 12.5538 27.4671C13.3764 27.4671 14.0432 26.8403 14.0432 26.0671V21.9254Z" fill="#16B378"/>
</g>
<defs>
<clipPath id="clip0_1349_6898">
<rect width="40" height="40" fill="white"/>
</clipPath>
</defs>
</svg>
