<svg width="40" height="40" viewBox="0 0 40 40" fill="none" xmlns="http://www.w3.org/2000/svg">
<g opacity="0.1">
<path fill-rule="evenodd" clip-rule="evenodd" d="M39.5402 0H18.0047C8.06752 0 0 8.9774 0 20.0353V40H21.7051C31.5487 40 39.5402 31.1068 39.5402 20.1531V0Z" fill="#F9AE41"/>
</g>
<path fill-rule="evenodd" clip-rule="evenodd" d="M22.4917 27.9306L28.453 18.8307C28.652 18.5268 28.5776 18.1119 28.2866 17.904C28.1805 17.8281 28.0548 17.7875 27.9262 17.7875H23.279V11.9948C23.279 11.6266 22.9932 11.3281 22.6407 11.3281C22.43 11.3281 22.2329 11.4367 22.1139 11.6183L16.1526 20.7183C15.9535 21.0221 16.028 21.437 16.3189 21.6449C16.4251 21.7208 16.5507 21.7614 16.6794 21.7614H21.3266V27.5542C21.3266 27.9223 21.6123 28.2208 21.9649 28.2208C22.1756 28.2208 22.3727 28.1122 22.4917 27.9306Z" fill="#F9AE41"/>
<path opacity="0.44" fill-rule="evenodd" clip-rule="evenodd" d="M16.1453 24.7419C16.8503 24.7419 17.4219 25.3388 17.4219 26.0752V26.3889C17.4219 27.1253 16.8503 27.7223 16.1453 27.7223H10.8887C10.1837 27.7223 9.61211 27.1253 9.61211 26.3889V26.0752C9.61211 25.3388 10.1837 24.7419 10.8887 24.7419H16.1453ZM13.2166 18.7811C13.9217 18.7811 14.4932 19.3781 14.4932 20.1144V20.4282C14.4932 21.1645 13.9217 21.7615 13.2166 21.7615H8.93626C8.23122 21.7615 7.65967 21.1645 7.65967 20.4282V20.1144C7.65967 19.3781 8.23122 18.7811 8.93626 18.7811H13.2166ZM16.1453 12.8203C16.8503 12.8203 17.4219 13.4173 17.4219 14.1536V14.4674C17.4219 15.2038 16.8503 15.8007 16.1453 15.8007H10.8887C10.1837 15.8007 9.61211 15.2038 9.61211 14.4674V14.1536C9.61211 13.4173 10.1837 12.8203 10.8887 12.8203H16.1453Z" fill="#F9AE41"/>
</svg>
