<svg width="40" height="40" viewBox="0 0 40 40" fill="none" xmlns="http://www.w3.org/2000/svg">
<g clip-path="url(#clip0_1349_6885)">
<path fill-rule="evenodd" clip-rule="evenodd" d="M39.5402 0H18.0047C8.06752 0 0 8.9774 0 20.0353V40H21.7051C31.5487 40 39.5402 31.1068 39.5402 20.1531V0Z" fill="white"/>
<path fill-rule="evenodd" clip-rule="evenodd" d="M23.4917 27.9306L29.453 18.8307C29.652 18.5268 29.5776 18.1119 29.2866 17.904C29.1805 17.8281 29.0548 17.7875 28.9262 17.7875H24.279V11.9948C24.279 11.6266 23.9932 11.3281 23.6407 11.3281C23.43 11.3281 23.2329 11.4367 23.1139 11.6183L17.1526 20.7183C16.9535 21.0221 17.028 21.437 17.3189 21.6449C17.4251 21.7208 17.5507 21.7614 17.6794 21.7614H22.3266V27.5542C22.3266 27.9223 22.6123 28.2208 22.9649 28.2208C23.1756 28.2208 23.3727 28.1122 23.4917 27.9306Z" fill="#F9AE41"/>
<path opacity="0.44" fill-rule="evenodd" clip-rule="evenodd" d="M17.1458 24.7419C17.8508 24.7419 18.4224 25.3388 18.4224 26.0752V26.3889C18.4224 27.1253 17.8508 27.7223 17.1458 27.7223H11.8892C11.1841 27.7223 10.6126 27.1253 10.6126 26.3889V26.0752C10.6126 25.3388 11.1841 24.7419 11.8892 24.7419H17.1458ZM14.2171 18.7811C14.9221 18.7811 15.4937 19.3781 15.4937 20.1144V20.4282C15.4937 21.1645 14.9221 21.7615 14.2171 21.7615H9.93675C9.23171 21.7615 8.66016 21.1645 8.66016 20.4282V20.1144C8.66016 19.3781 9.23171 18.7811 9.93675 18.7811H14.2171ZM17.1458 12.8203C17.8508 12.8203 18.4224 13.4173 18.4224 14.1536V14.4674C18.4224 15.2038 17.8508 15.8007 17.1458 15.8007H11.8892C11.1841 15.8007 10.6126 15.2038 10.6126 14.4674V14.1536C10.6126 13.4173 11.1841 12.8203 11.8892 12.8203H17.1458Z" fill="#F9AE41"/>
</g>
<defs>
<clipPath id="clip0_1349_6885">
<rect width="40" height="40" fill="white"/>
</clipPath>
</defs>
</svg>
