<svg width="40" height="40" viewBox="0 0 40 40" fill="none" xmlns="http://www.w3.org/2000/svg">
<path opacity="0.1" fill-rule="evenodd" clip-rule="evenodd" d="M39.5402 0H18.0047C8.06752 0 0 8.9774 0 20.0353V40H21.7051C31.5487 40 39.5402 31.1068 39.5402 20.1531V0Z" fill="#16B378"/>
<path opacity="0.44" d="M23.9718 12.2216C23.9718 11.3625 23.305 10.666 22.4824 10.666C21.6599 10.666 20.993 11.3625 20.993 12.2216V26.7401C20.993 27.5992 21.6599 28.2956 22.4824 28.2956C23.305 28.2956 23.9718 27.5992 23.9718 26.7401V12.2216Z" fill="#16B378"/>
<path d="M19.007 17.7304C19.007 16.8713 18.3402 16.1748 17.5177 16.1748C16.6951 16.1748 16.0283 16.8713 16.0283 17.7304V26.7396C16.0283 27.5987 16.6951 28.2952 17.5177 28.2952C18.3402 28.2952 19.007 27.5987 19.007 26.7396V17.7304Z" fill="#16B378"/>
<path d="M28.9362 19.9345C28.9362 19.0754 28.2694 18.3789 27.4469 18.3789C26.6243 18.3789 25.9575 19.0754 25.9575 19.9345V26.74C25.9575 27.5991 26.6243 28.2956 27.4469 28.2956C28.2694 28.2956 28.9362 27.5991 28.9362 26.74V19.9345Z" fill="#16B378"/>
<path d="M14.0427 22.1386C14.0427 21.2795 13.3759 20.583 12.5533 20.583C11.7308 20.583 11.064 21.2795 11.064 22.1386V26.7404C11.064 27.5995 11.7308 28.296 12.5533 28.296C13.3759 28.296 14.0427 27.5995 14.0427 26.7404V22.1386Z" fill="#16B378"/>
</svg>
