<svg width="40" height="40" viewBox="0 0 40 40" fill="none" xmlns="http://www.w3.org/2000/svg">
<g clip-path="url(#clip0_1349_6871)">
<path fill-rule="evenodd" clip-rule="evenodd" d="M39.5402 0H18.0047C8.06752 0 0 8.9774 0 20.0353V40H21.7051C31.5487 40 39.5402 31.1068 39.5402 20.1531V0Z" fill="white"/>
<path opacity="0.44" d="M13.8312 16.7786V23.223C13.8312 25.0026 15.2125 26.4452 16.9163 26.4452H23.0865V27.324C23.0865 28.8431 22.2972 29.6675 20.8428 29.6675H12.9898C11.5354 29.6675 10.7461 28.8431 10.7461 27.324V19.122C10.7461 17.6029 11.5354 16.7786 12.9898 16.7786H13.8312ZM25.9847 11.4082C27.4391 11.4082 28.2284 12.2326 28.2284 13.7516V21.9537C28.2284 23.4727 27.4391 24.2971 25.9847 24.2971H25.1433V17.8526C25.1433 16.0731 23.762 14.6304 22.0582 14.6304H15.8879V13.7516C15.8879 12.2326 16.6772 11.4082 18.1317 11.4082H25.9847Z" fill="#7141F9"/>
<path fill-rule="evenodd" clip-rule="evenodd" d="M17.1975 16.7793H21.7784C22.6268 16.7793 23.0873 17.2602 23.0873 18.1463V22.9308C23.0873 23.8169 22.6268 24.2978 21.7784 24.2978H17.1975C16.3491 24.2978 15.8887 23.8169 15.8887 22.9308V18.1463C15.8887 17.2602 16.3491 16.7793 17.1975 16.7793Z" fill="#7141F9"/>
</g>
<defs>
<clipPath id="clip0_1349_6871">
<rect width="40" height="40" fill="white"/>
</clipPath>
</defs>
</svg>
